<?xml version="1.0" encoding="UTF-8"?>
<!DOCTYPE svg PUBLIC "-//W3C//DTD SVG 1.1//EN" "http://www.w3.org/Graphics/SVG/1.1/DTD/svg11.dtd">
<!-- Creator: CorelDRAW 2021 (64-Bit) -->
<svg xmlns="http://www.w3.org/2000/svg" xml:space="preserve" width="93.1419mm" height="71.297mm" version="1.1" style="shape-rendering:geometricPrecision; text-rendering:geometricPrecision; image-rendering:optimizeQuality; fill-rule:evenodd; clip-rule:evenodd"
viewBox="0 0 9484.19 7259.83"
 xmlns:xlink="http://www.w3.org/1999/xlink"
 xmlns:xodm="http://www.corel.com/coreldraw/odm/2003">
 <defs>
  <style type="text/css">
   <![CDATA[
    .str0 {stroke:#2B2A29;stroke-width:7.76;stroke-miterlimit:22.9256}
    .fil4 {fill:#2B2A29}
    .fil0 {fill:white}
    .fil3 {fill:#FEFEFE;fill-rule:nonzero}
    .fil6 {fill:#2B2A29;fill-rule:nonzero}
    .fil5 {fill:#E31E24;fill-rule:nonzero}
    .fil2 {fill:#00A0E3;fill-rule:nonzero}
    .fil1 {fill:#008DD2;fill-rule:nonzero}
    .fil7 {fill:white;fill-rule:nonzero}
   ]]>
  </style>
 </defs>
 <g id="Layer_x0020_1">
  <metadata id="CorelCorpID_0Corel-Layer"/>
  <g id="_2028333589920">
   <polygon class="fil0" points="-0,0 1018.94,165.54 2853.86,844.74 4360.71,958.9 6392.66,136.99 8561.61,1438.35 8630.1,1826.48 9337.85,2442.92 8972.57,2990.86 8538.78,3241.99 8972.57,3515.97 9484.19,3595.5 9463.97,4111.15 8812.75,4703.17 8333.3,6347.01 7465.72,6689.46 7374.4,7237.99 1278.62,7259.83 1415.51,5707.74 1621,5319.61 2534.23,5251.11 1963.46,4566.19 1578.18,3970.75 1536.6,2470.05 500.23,1105.8 "/>
   <path class="fil1" d="M4263.32 3273.75c45.18,31.26 87.16,60.58 125.19,87.07 10.78,-17.29 21.78,-34.55 33.57,-51.57 -58.53,-39.96 -117.79,-80.27 -176.94,-120.99 6.93,26.48 12.81,55.06 18.18,85.49z"/>
   <path class="fil1" d="M3864.14 3923.11c-25.87,50.09 -52,101.54 -77.99,152.49 -188.15,370.36 -261.27,504.12 -341.65,552.89 -24.09,14.73 -51.35,22.28 -78.85,22.28 -147.37,0 -168.25,-167.83 -178.37,-248.62 -10.09,-81.29 -16.76,-187.53 -23.91,-299.56 -4.87,-76.18 -11.29,-177.67 -19.86,-268.19 -55.3,101.25 -116.12,223.77 -160.65,313.76 -7.69,14.98 -14.73,29.17 -21.77,43.54l140.44 1083.41 -208.15 -136.6 43.4 367.28 268.32 180.24 336.43 -111.99 -120.33 -78.74 311.32 -485.57 557.14 -402.99c-10.73,-6.03 -20.97,-12.31 -30.19,-18.33 -204.84,-137.75 -321.58,-395.94 -395.33,-665.32z"/>
   <path class="fil1" d="M1646.57 1276.25l175.89 -226.34c0,0 49.92,-13.97 152.44,105.09 102.45,118.91 40.61,230.68 -129.3,220.19 -169.86,-10.51 -199.04,-98.94 -199.04,-98.94zm-232 -127.27c-210.58,-146.07 -340.53,-287 -256.93,-377.26 0,0 116.12,-53.26 435.39,110.98 124.29,64.01 182.28,132.53 111.88,197.81 -70.54,65.03 -79.76,214.43 -290.34,68.48zm1268.8 1886.47c108.58,96.53 150.81,274.08 171.93,490.84l20.87 10.23 3.84 30.34c125.2,-233.37 202.41,-381.99 290.11,-470.97l-232.38 -274.23 263.95 240.47c37.46,-35.6 90,-61.63 142.38,-61.63 20.47,0 38.8,3.23 55.95,8.97l-1049.4 -1016.09c0,0 892.16,572.79 1252.18,822.01 106.87,74.13 217.22,150.56 323.88,224.81 9.07,-8.71 18.19,-15.75 27.4,-21.52l15.1 -8.21c3.44,-1.77 7.18,-2.54 10.73,-3.7 -474.18,-325.3 -916.99,-631.13 -1115.56,-769.66 -386.98,-269.59 -1042.42,-805.6 -1042.42,-805.6 0,0 187.8,139.02 339.98,-30.74 116.39,-130.07 -107.63,-266.8 -107.63,-266.8l1052.16 617.31c0,0 1020.43,752.38 1652.73,1220.17 15.6,-11.28 31.24,-22.03 47.25,-32.81 -436.16,-310.95 -1363.66,-1018.11 -1363.66,-1018.11l53.9 32.25c0,0 1082.38,504.65 1372.98,636.4 145.7,65.9 263.6,118.77 345.04,155.03 60.52,-18.57 121.84,-32.77 183.57,-42.24 -419.28,-284.1 -1032.73,-716.41 -1032.73,-716.41l1195.97 631.13 2.54 1.67 132.38 -57.75 -46.23 -103.95 84.63 -203.8 224.91 -23.03 155.83 67.35 72.32 -389.06 -283.56 -276.41 391.74 -56.96 27.26 -55.02 -1750.39 166.52 -160.65 -112.02 -870.79 -248.73 -828.04 85.25c0,0 -979.98,-540.6 -1165.34,-627.4 -185.4,-86.45 -596.85,-225.72 -932.87,-306.25 -52,-12.51 -30.49,-9.22 -58.4,-23.04l-8.2 8.96 43.79 41.63c0,0 176.54,320.93 417.57,565.31 241.21,244.26 1069.61,896.91 1069.61,896.91l93.44 822.78 184.24 232.86c55.81,-32 110.46,-48.77 163.33,-48.77 61.08,0 117.15,21.53 162.73,61.7z"/>
   <path class="fil1" d="M4360.06 4640.97l136.49 973.19 330.05 118.68 747.11 -583.49 -280 -376.4 -397.11 12.05c-74.51,-9.2 -352.44,-64.52 -536.54,-144.03z"/>
   <polygon class="fil2" points="6383.49,1388.52 6386.97,1390.8 6388.36,1387.98 "/>
   <polygon class="fil1" points="3770.23,5032.53 3999.28,5215.35 4355.53,4952.77 4312.02,4638.5 "/>
   <polygon class="fil1" points="3461.52,5488.86 3561.75,5549.94 3971.41,5235.75 3754.15,5057.57 "/>
   <path class="fil1" d="M2936.82 5133.82l131.22 89.2 -129.69 -985.86c-35.72,71.81 -66.45,131.98 -93.6,181.26l92.07 715.4z"/>
   <polygon class="fil1" points="6346.11,1415.01 4495.1,1577.33 4591.62,1649.79 6339.33,1487.48 6368.8,1427.81 "/>
   <path class="fil3" d="M2054.24 1133.96c0,0 224.05,136.73 107.67,266.79 -152.24,169.76 -340.02,30.74 -340.02,30.74 0,0 655.59,536.13 1042.47,805.6 198.68,138.52 641.51,444.36 1115.56,769.66 22.39,-8.96 45.42,-14.48 68.73,-14.48 111.25,0 164.64,74.79 196.5,196.03 59.15,40.68 118.44,81.03 176.94,120.95 88.08,-126.46 204.05,-241.68 337.19,-337.69 -632.29,-467.92 -1652.73,-1220.29 -1652.73,-1220.29l-1052.3 -617.3z"/>
   <path class="fil3" d="M3496.72 1952.84l-53.93 -32.26c0,0 927.5,707.04 1363.55,1018.12 125.85,-83.98 264.88,-150.81 408.37,-194.48 -81.4,-36.32 -199.3,-89.09 -345,-155.03 -290.6,-131.83 -1372.99,-636.36 -1372.99,-636.36z"/>
   <path class="fil3" d="M3926.7 3040.24c-106.65,-74.25 -216.97,-150.82 -323.88,-224.82 -359.98,-249.23 -1252.14,-822.12 -1252.14,-822.12l1049.36 1016.18c49.94,15.76 86.55,54.29 114.45,110.76l231.7 224.31c91.42,-183.84 137,-263.34 180.51,-304.31z"/>
   <path class="fil3" d="M4292.05 3493.3c1.82,16.52 3.75,33.28 5.66,50.33 23.16,-62.64 54.15,-123.81 90.77,-182.82 -38.03,-26.49 -80.02,-55.81 -125.19,-87.07 11.39,65.29 19.82,139.29 28.77,219.56z"/>
   <polygon class="fil3" points="6261.38,2392.41 6271.36,2398.4 6272.38,2394.95 6263.02,2389.83 "/>
   <path class="fil3" d="M5696.55 2699.19l19.82 3.96c4.25,1.01 8.45,1.78 12.7,2.83l25.99 6.89 0 -0.37c85.75,22.39 170.26,59.12 244.77,106.52 47.87,30.19 91.77,63.47 131.48,99.96l140.04 -520.66 -9.98 -5.89 1.67 -2.54 -84.24 -45.98 -614.76 274.5 125.59 79.97c2.32,0.3 4.5,0.3 6.93,0.79z"/>
   <path class="fil3" d="M5640.88 2691.69l-98.41 -63.76 21.47 -9.47 -2.42 -1.78 -1195.94 -631.13c0,0 613.46,432.32 1032.6,716.38 47.36,-7.55 94.86,-13.18 142.11,-14.99 32.26,-1.26 66.04,1.05 100.59,4.76z"/>
   <path class="fil3" d="M5640.88 2691.69c16.15,2.04 32.26,3.7 48.81,6.78l-125.75 -80.01 -21.47 9.47 98.41 63.76z"/>
   <path class="fil3" d="M1593 882.69c-319.3,-164.27 -435.39,-111.01 -435.39,-111.01 -83.6,90.25 46.34,231.2 256.94,377.25 210.57,146.11 219.94,-3.44 290.46,-68.48 70.42,-65.28 12.29,-133.79 -112,-197.76z"/>
   <path class="fil3" d="M1974.91 1154.96c-102.52,-119.06 -152.44,-104.98 -152.44,-104.98l-175.89 226.22c0,0 29.17,88.59 199.04,99.07 169.91,10.49 231.74,-101.24 129.3,-220.31z"/>
   <path class="fil3" d="M2937.8 2821.71l250.17 257.07c3.59,-3.7 7.15,-7.55 10.89,-10.74l-261.06 -246.33z"/>
   <path class="fil4" d="M6092.77 3768.55c33.82,-94.34 52.84,-194.71 54.13,-294.87 0.9,-78.7 -22.1,-156.9 -56.1,-227.3 -52.21,-108.07 -153.23,-236.32 -258.55,-297.15 -17.63,-10.22 -35.29,-20.1 -53.17,-29.52 1.2,0.72 2.4,1.45 3.59,2.18 55.27,33.73 106.72,74.17 149.27,123.2 89.87,103.55 96.6,255.11 84.56,384.77 -0.68,6.54 -1.61,13.04 -2.37,19.57 22.55,46.79 39.97,95.92 52.33,146.35 14.2,57.57 24.09,114.06 26.32,172.77zm-394.11 -892.48l1.49 -4.35 4.65 1.23c72.78,19.18 143.62,50 207.32,90.12 283.68,179.51 385.96,476.39 317.86,797.13 -20.87,97.52 -52.9,184.8 -100.37,272.38 -72.46,134.59 -193.98,279.51 -312.23,376.88 -258.39,212.52 -584.58,281.89 -910.15,225.15l-4.64 -0.8 0.74 -9.4 4.71 -0.07c23.84,-0.34 49.22,2.3 73.04,4.11 34.81,2.67 69.52,4.94 104.43,5.61 84.3,1.65 172.96,-4.5 255.29,-23.67 154.2,-35.95 332.63,-123.99 452.9,-227.63 39.41,-34.15 77.26,-70.17 113.22,-107.96 42.47,-67.97 77.86,-143.53 104.06,-220.07 -180.14,275.73 -443.74,487.42 -784.36,510.93 -66.04,4.56 -129.93,1.05 -192.7,-9.57 -110.08,-18.63 -222.84,-55.5 -315.94,-118.8 -92.78,-63.08 -165.09,-149.15 -210.24,-257.8 -169.81,-408.63 105.09,-1003.97 559.9,-1073.4 34.2,-5.09 73.12,-8.92 107.07,0.01 50.93,-12.67 103.07,-20.54 155.51,-22.97 68.12,-3.15 137.31,2.93 204.31,15.68 -0.34,-55.39 -21.72,-126.43 -86.01,-132.62 -156.62,-14.74 -302.6,19.98 -444.29,84.83 -168.44,76.82 -312.75,197.12 -421.84,346.38 -85.79,117.36 -156.53,263.33 -179.95,407.74 -34.75,214.65 -15.78,401.48 106.87,557.8 62.16,79.24 140.41,141.03 227.42,190.79 26.26,15 50.42,28.93 78.06,41.59 6.53,3.27 13.12,6.54 19.72,9.72 1.26,0.62 2.59,1.35 3.91,1.82l4.76 1.65 -3.05 9.59 -4.84 -1.38c-160.5,-46.18 -297.61,-138.65 -386.9,-281.38 -130.48,-208.58 -126.43,-468.86 -49.26,-695.65 92.92,-273.26 332.9,-498.26 582.43,-631.76 167.11,-89.4 357.18,-148.91 547.29,-156.13 42.33,-1.63 85.33,2.52 126.97,10.05l0.72 0.13 0.65 0.33c0.16,0.08 0.33,0.16 0.49,0.24l3.47 0.6c7.49,1.31 14.97,2.74 22.36,4.53l0.82 0.2 0.71 0.45c4.27,2.69 8.9,5.26 13.65,7.76zm126.38 98.36c1.67,2.06 3.27,4.14 4.79,6.24 70.5,97.84 106.85,210.87 94.48,331.57 24.6,28.14 46.15,58.73 64.98,90.98 8.23,-103.07 -8.96,-203.5 -49.01,-299.26 -18.84,-44.94 -64.56,-90.36 -115.25,-129.53zm88.34 401.63c-43.36,183.26 -185.57,341.71 -333.83,450.74 17.12,28.28 33.95,56.83 49.81,85.83 12.03,21.97 24.33,45.22 33.82,68.55 150.52,-131.03 277.59,-306.2 316.28,-504.92 -17.92,-35.84 -40.46,-69.39 -66.07,-100.2zm-608.77 134.82c-96.1,70.27 -216.49,135.1 -331.26,166.69 -52.94,14.56 -111.92,22.69 -166.82,28.93 3.01,82.03 16.76,164.54 41.2,242.92 46.44,-6.21 92.96,-16.81 138.14,-29.01 46.76,-12.65 91.81,-27.02 136.47,-45.88 49.08,-20.73 97.23,-45.19 145.49,-67.88 61.1,-28.62 116.95,-61.54 169.13,-104.48 -10.63,-17.01 -21.3,-34 -31.8,-51.09 -30.43,-49.01 -63.82,-95.74 -100.54,-140.2zm-492.85 61.45c21.98,-1.26 43.92,-3.15 65.75,-5.41 54.48,-7.47 113.04,-25.68 164.7,-44.13 66.73,-23.84 132.63,-52.81 195.25,-86.08 -26.29,-26.86 -53.78,-52.4 -82.01,-77.26 -10.65,-9.58 -21.53,-18.95 -32.51,-28.14 -41.38,24.07 -89.02,43.32 -136.09,51.52 -41.83,7.38 -76.89,9.63 -119.15,3.99 -23.07,58.49 -45.17,106.79 -53.94,169.44 -0.74,5.35 -1.41,10.71 -2.01,16.08zm721.48 286.78c-48.65,32.41 -106.04,60.95 -158.98,84.97 -90.28,40.95 -184.83,74.41 -280.76,99.37 -62.68,16.22 -125.98,30.65 -189.66,42.46 38.03,73.33 88.46,140.53 152.12,193.54 45.63,-11.73 89.83,-27.2 135.12,-39.28 151.2,-41.57 298.19,-120.31 421.35,-217.03 -3.05,-8.05 -6.11,-16.13 -9.37,-24.13 -19.07,-48.47 -43.6,-94.92 -69.82,-139.9zm37.02 -752.75c24.2,5.47 48.7,12.14 71.97,20.56 9.41,3.25 18.75,6.69 27.98,10.39 -0.09,-0.25 -0.17,-0.52 -0.26,-0.77 -16.88,-46.1 -49.08,-87 -86.02,-118.85 -8.06,-6.95 -43.51,-34.32 -60.86,-40.81 26.48,38.62 43.54,82.63 47.2,129.49zm114.61 89.3c-36.97,-19.02 -75.35,-35.47 -114.85,-48.46 -1.79,19.97 -5.88,39.53 -12.04,58.66 -35.15,108.01 -125.94,204.05 -213.22,274.18 46.75,57.9 90.67,119.36 130.69,181.79 0.96,1.28 1.85,2.59 2.72,3.91 45.88,-43.78 86.36,-93.11 123.16,-144.68 66.39,-92.54 102.01,-211.77 83.54,-325.4zm-520.12 108.28c39.21,28.41 74.84,59.02 108.62,93.98 3.92,4.04 7.7,8.21 11.55,12.31 89.65,-52.48 220.76,-145.46 243.25,-252.67 1.64,-7.27 2.89,-14.59 3.87,-21.97 -73.64,-20.16 -150.42,-29.33 -226.68,-23.7 -32.76,2.53 -63.49,3.59 -95.25,10.74 8.04,6.01 14.81,13.44 20.08,22.26 30.42,50.93 -13.46,111.56 -49.65,145.78 -4.82,4.71 -10.27,9.12 -15.78,13.27zm-181.36 -91.8c36.4,8.41 76.41,22.26 106.86,41.79 9.51,6.01 18.92,12.16 28.31,18.37 40.9,-35.41 51.26,-67.18 -14.19,-82.45 -41.07,-9.3 -83.99,3.47 -120.97,22.29zm-202.81 497.11c-29.74,3.14 -59.82,5.9 -89.68,7.78 -7.05,50.3 -20.2,177.96 -0.51,216.43 32.57,23.6 90.93,22.65 130.86,19.12 -24.15,-78.64 -37.91,-161.12 -40.67,-243.33zm96.48 381.67c-40.89,7.19 -84.98,14.46 -126.61,17.82 15.52,39.37 63.13,153.01 86.24,163.73l0.74 0.35 0.59 0.55c43.29,40.16 131.18,26.26 186.85,13.74 -61.44,-54.84 -110.45,-123 -147.81,-196.19zm450.1 349.34c-68.14,-19.89 -137.89,-47.47 -199.64,-80.55 -4.29,-2.3 -8.48,-4.77 -12.7,-7.19 -35.27,10.14 -70.73,19.54 -106.32,28.51 -11.29,2.84 -22.59,5.62 -33.89,8.48 -1.38,0.35 -3.17,0.75 -5.06,1.2 6.87,5.95 18.71,12.46 24.09,15.18 39.31,19.85 90.73,31.98 133.59,40.46 66.29,13.1 134.35,8.7 199.91,-6.09zm309.26 -350.43c-93.59,75.84 -198.45,138.93 -308.52,187.6 -57.64,25.34 -117.98,46.05 -178.2,64.62 50.64,27.73 108.62,55.95 164.28,68.7 33.12,7.59 57.98,7.14 91,7.2 102.23,-35.21 200.59,-91.68 288.45,-154.64 -17.78,-58.06 -36.87,-116.19 -57.01,-173.48zm107.53 135.64c48.19,-37.46 94.61,-77.76 138.06,-120.58 68.58,-67.92 124.92,-148.3 167.8,-234.67 7.74,-113.94 -9.88,-234.17 -48.51,-342.02 -43.61,203.66 -160.08,379.69 -313.93,518.19 5.32,15.09 10.51,30.22 15.61,45.38 9.52,28.28 18.77,56.71 27.4,85.26 4.61,15.23 10.05,32.35 13.56,48.44zm-894.96 -841.62c-6.88,-1.16 -27.74,-5.77 -34.3,-8.56 -16.57,25.43 -75.11,116.41 -92.81,159.7 -6.93,16.96 -9.01,30.06 12.39,35.29 16.79,4.1 41.66,3.61 52.81,3.26 8.94,-65.36 32.77,-119.38 57.85,-180.3 1.31,-3.15 2.74,-6.25 4.07,-9.39zm36.55 -35.25c20.72,3.46 30.78,2.49 51.84,1.81 42.9,-1.3 96.76,-24.46 133.84,-45.22 3.72,-1.97 7.39,-4.13 11,-6.36 -33.29,-25.79 -80.85,-60.81 -118.6,-75.78 -53.11,31.29 -90.16,65.58 -124.79,115.79 5.25,1.54 23.28,5.38 28.54,6.32 15.3,-28.76 25.56,-43.04 48.95,-66.03 2.38,-2.38 5.53,-5.76 9.43,-2.4 4.72,4.1 -1.42,10.26 -3.74,13.41 -4.15,5.62 -8.24,11.26 -12.21,17 -11.47,16.54 -14.87,23.65 -24.26,41.46zm1294.51 121.87c-0.68,38.6 -2.36,77.25 -5.01,115.02 -1.92,27.47 -4.5,55.01 -8.36,82.28 -15.43,108.48 -36.95,179.51 -88.93,275.39 -6.34,31.36 -14.17,62.41 -23.14,93.12 -13.06,44.44 -33.59,89.06 -57.04,131.2 50.63,-67.2 93.94,-140.22 124.59,-218.52 36.57,-93.52 62.74,-184.7 67.25,-285.48 2.83,-63.47 -2.37,-128.65 -9.35,-193.02z"/>
   <path class="fil4" d="M3902.56 3584.71c-37.59,57.71 -71.56,119.66 -104.08,180.07 -44.04,81.8 -86.27,164.62 -128.39,247.41 -59.01,115.97 -117.36,233.1 -180.33,346.95 -23.1,41.76 -89.89,163.97 -129.95,188.37 -3.79,2.28 -8.05,3.54 -12.49,2.99 -18.47,-2.29 -27.15,-34.72 -30.91,-49.38 -9.18,-35.75 -13.82,-75.49 -17.76,-112.18 -11.87,-110.51 -17.24,-222.85 -24.51,-333.81 -7.13,-108.76 -14.1,-221.44 -31.08,-329.07 -4.2,-26.61 -22.83,-146.49 -57.61,-152.21 -4.39,-0.72 -8.67,0.5 -12.57,2.49 -41.76,21.27 -100.96,120.75 -124.43,160.73 -56.9,96.92 -108,198.91 -158.21,299.45 -56.36,112.85 -111.19,227.63 -171.32,338.46 -19.82,36.51 -41.32,75.58 -65.68,109.25 -8.78,12.13 -31.42,43.74 -49.76,37.35 -21.81,-7.75 -33.52,-51.07 -38.62,-70.78 -12.64,-48.79 -19.73,-101.93 -26.07,-151.91 -18.61,-146.97 -30.08,-295.36 -46.29,-442.71 -11.1,-100.83 -23.68,-202.2 -42.01,-301.98 -6.67,-36.35 -22.77,-102.03 -65.46,-112.52 -45.12,-11.08 -102.09,42.89 -129.95,72.07 -56.31,58.99 -106.18,133.36 -148.2,203.12 -32,53.14 -61.78,108.14 -88.52,164.13 -20.31,42.54 -40.82,88.62 -54.58,133.76l-11.29 37.05 -1.35 -38.7c-5.12,-145.86 58.96,-316.44 124.93,-444.38 58.18,-112.85 136.77,-231.08 227.84,-320.13 35.23,-34.44 76.77,-68.77 121.29,-90.41 33.97,-16.52 73.4,-27.14 110.79,-16.43 16.25,4.65 30.7,12.95 43.32,24.16 93.56,83.16 119.06,299.06 130.05,417.24 9.89,106.31 12.92,212.39 19.48,318.8 2.09,33.95 4.23,70.95 10.63,104.35 0.9,4.66 7.03,34.37 14.18,34.13 19.27,-0.67 87.25,-122.63 96.63,-139.31 57.24,-101.85 110.82,-206.07 166.54,-308.81 48.73,-89.88 202.52,-380.34 291.49,-423.4 7.94,-3.86 16.54,-5.72 25.32,-4.32 46.87,7.5 70.86,106.13 79.8,143.51 22.26,93.02 34.17,192.96 45.23,287.98 11.71,100.61 20.78,202.49 35.62,302.61 1.92,12.96 18.06,122.17 34.84,123.59 0.33,0.02 0.65,-0.03 0.97,-0.13 42.99,-13.12 214.29,-375.66 239.4,-427.18 45.99,-94.33 91.63,-189.38 140.62,-282.19 16.33,-30.93 69.18,-132.72 97.82,-150.83l0.35 -0.22 0.38 -0.17c10.8,-5.03 22.57,-7.45 34.28,-4.28 31.29,8.47 46.98,53.4 55.09,80.86 16.08,54.42 24.17,116.41 31.35,172.68 21.12,165.65 34.86,330.41 65.41,495.03 29.28,157.72 76.63,338.32 169.86,471.06 44.65,63.82 112.97,110.86 180.27,148.05 109.99,60.79 236.28,107.35 354.85,148.35l5.51 1.91 -2.65 11.34 -5.78 -0.72c-43.37,-5.45 -87.77,-14.51 -130.5,-23.72 -59.71,-12.86 -119.22,-27.58 -177.99,-44.23 -51.87,-14.7 -103.77,-31 -154.11,-50.31 -39.25,-15.06 -82.59,-33.49 -117.55,-57.02 -260.32,-175.27 -362.04,-625.43 -414.16,-925.9z"/>
   <path class="fil4" d="M6949.4 4042.45c37.35,-44.4 71.19,-115.47 95.44,-166.92 39.4,-83.55 75.11,-169.17 111.48,-254.08 39.76,-92.85 80.1,-187.51 127.02,-276.95 25.26,-48.14 72.9,-134.9 120.6,-163.31l1.64 -0.98 1.85 0.43c62.79,14.5 98.48,90.93 118.45,145.57 31.34,85.73 48.73,183.69 63.34,273.72 14.72,90.84 26.05,182.79 43,273.16 6.26,33.36 23.2,124.72 51.33,149.12 47.26,-20.05 94,-117.91 113.89,-160.56 46.45,-99.69 84.77,-205.48 124.14,-308.23 25.34,-66.17 50.98,-132.38 79.09,-197.43 23.87,-55.23 50.12,-111.98 81.72,-163.24l0.44 -0.72 0.66 -0.52c15.81,-12.42 34.35,-21.09 54.86,-19.16 68.44,6.4 117.12,130.33 137.25,184.14 21.85,58.4 39.65,118.91 55.87,179.09 18.27,67.78 34.55,136.16 50.19,204.6 27.52,120.45 52.37,241.88 82.16,361.74 11.54,46.4 35.19,163.59 67.18,198.24 83.9,90.95 333.13,-150.26 388.25,-203.3 72.76,-70.03 142.23,-144.18 209.23,-219.74 19.64,-22.16 39.08,-44.49 58.36,-66.97 5.38,-6.27 10.73,-12.56 16.11,-18.84 5.42,-4.24 10.31,-3.7 14.4,-1.68 4.81,2.36 7.54,7.38 3.47,12.86 -14.11,19.05 -28.76,35.94 -44.24,53.91 -26.22,30.43 -53.08,60.35 -80.23,89.94 -72.39,78.95 -147.35,156.15 -224.72,230.24 -63.86,61.16 -362.17,349.22 -460.54,283.36 -42.16,-28.23 -77.32,-126.96 -93.17,-173.3 -33.5,-97.97 -59.37,-200.62 -84.5,-301.06 -27.96,-111.79 -53.88,-225.65 -86.64,-336.07 -6.1,-20.55 -43.26,-149.59 -71.78,-148.75 -3.17,0.09 -5.96,1.9 -8.22,4 -16.97,22.76 -31.56,50.34 -44.36,75.63 -18.73,36.96 -35.84,74.96 -52.42,112.93 -41.37,94.73 -79.85,190.88 -119.36,286.41 -39.51,95.54 -79.72,191.87 -125.07,284.79 -27.24,55.8 -70.13,141.21 -114.91,184.37 -6.99,6.74 -15.79,12.05 -25.8,11.62 -44.03,-1.91 -75.54,-118.65 -84.69,-151.21 -29.3,-104.33 -49.21,-214.93 -68.53,-321.58 -19.69,-108.74 -37.43,-218.64 -60.41,-326.69 -3.15,-14.77 -30.29,-145.03 -49.84,-144.89 -3.17,0.03 -6.62,5.29 -7.99,7.6 -78.77,132.07 -370.54,920.54 -482.99,929.41 -53.21,4.38 -85.52,-138.01 -94.47,-173.98 -14.72,-59.12 -26.69,-119.23 -38.32,-179.02 -13.29,-68.27 -25.97,-136.65 -39.55,-204.86 -13.79,-69.25 -28.41,-138.51 -45.85,-206.94 -14.51,-56.95 -31.14,-114.96 -52.95,-169.69 -23.61,30.36 -57.52,121.06 -69.21,151.07 -36.57,93.93 -71.21,188.47 -109.43,281.78 -20.11,49.11 -41.11,97.95 -63.91,145.86 -70.67,148.67 -152.53,296.82 -282.8,402 -134.01,108.27 -388.85,171.63 -558.82,163.87l-4.42 -0.2 -1.68 -17.7c187.92,-17.09 356.91,-49.32 510.58,-167.52 152.67,-117.53 250.74,-311.63 323.87,-485.05 43.53,-102.79 78.2,-211.83 112.32,-318.11 20.58,-64.1 40.88,-128.31 62.33,-192.13 18.99,-56.52 38.86,-113.28 61.85,-168.31 18.89,-45.2 69.73,-167.16 129.69,-168.5 7.41,-0.16 14.71,1.49 21.47,4.51 44.08,19.68 66.65,125.45 75.74,167.52 21.89,101.45 35.48,206.19 52.51,308.67 18.5,111.25 54,327.75 130.03,416.04z"/>
   <path class="fil5" d="M7754.84 4691.95c-178.1,-49.53 -351.82,-133.75 -672.1,-172.8 -361.14,-43.91 -673.01,150.3 -926.74,251.29l-109.71 309.55 -198.07 -41.98 -303.76 1129.37c301.48,-151.03 727.55,-232.31 1069.07,-239.25 174.37,-2.69 554.85,195.6 827.78,246.79 207.29,38.8 342.82,-33.01 342.82,-33.01l428.49 -1479.24c0,0 -248.76,87.32 -457.79,29.27z"/>
   <polygon class="fil5" points="5844.45,4496.01 5927.55,4664.74 6113.83,4691.75 5979.01,4823.12 6010.76,5008.33 5844.45,4920.76 5677.77,5008.33 5709.53,4823.12 5574.97,4691.75 5761.13,4664.74 "/>
   <polygon class="fil5" points="3251.37,5154.52 3030.52,5060.32 3239.47,4942.28 3260.7,4703.27 3437.64,4865.49 3671.52,4811.96 3571.9,5030.24 3695.33,5236.11 3456.69,5208.81 3298.98,5389.83 "/>
   <path class="fil3" d="M3232.42 4630.48l-12.44 139.53 -13.42 151.19 -131.99 74.65 -122.15 68.73 128.93 54.92 139.68 59.77 30.08 148.5 27.91 137.49 92.17 -105.75 99.72 -114.17 150.81 17.27 139.28 16.01 -72.06 -120.58 -77.99 -130.09 63 -138.01 58.13 -127.49 -136.63 31.25 -147.84 34.03 -111.76 -102.55 -103.43 -94.72zm56.58 145.81l138.62 126.98 183.33 -41.98 -78.09 171.04 96.67 161.44 -186.93 -21.53 -123.67 141.86 -37.24 -184.35 -173.09 -73.74 163.73 -92.43 16.66 -187.29z"/>
   <path class="fil5" d="M7665.07 1675.28c0,0 -121.1,-110.47 -130.2,-119.28 -9.07,-9.23 -841.07,-650.08 -983.94,-758.15 -142.87,-108.18 -390.36,-190.48 -491.35,-88.98 -100.89,101.29 -106.11,149.81 -95.11,220.1 10.89,70.51 0.1,137.45 253.33,315.82 253.12,178.17 365.39,273.43 365.39,273.43l-51.1 -245.27 189.21 -148.79c0,0 -93.7,74.54 -79,175.53 14.62,100.99 47.5,292.64 47.5,292.64 0,0 188.45,168.99 251.44,197.92 63.51,28.81 112.14,25.11 193.42,35.85 81.3,10.49 169.92,22.93 195.13,38.93 25.22,16.26 43.52,43.27 43.52,43.27l9.2 -29.17c0,0 9.37,-50.84 63.52,-76.06 54.03,-25.48 219.04,-127.77 219.04,-127.77z"/>
   <path class="fil5" d="M8132.77 1982.45c0,0 688.67,437.43 721.29,507.72 32.78,70.29 22.14,160.54 -98.81,199.08 -120.84,37.89 -295.86,108.94 -502.09,-29.83 -83.1,-55.7 -68.24,-45.68 -68.24,-45.68 0,0 47.04,-99.69 90.3,-148.47 43.26,-49.02 149.97,-138 182.38,-150.77 32.51,-12.71 2.3,-34.91 -40.84,-2.14 -43.14,32.52 -225.06,146.83 -225.06,146.83 0,0 -16.26,77.71 -34.29,101.28 -18.03,23.16 -25.22,28.66 -25.22,28.66l-320.54 -222.98 -5.37 -25.35 27.55 -32.04c0,0 137.24,-69.5 207.53,-112.28 70.41,-42.75 105.5,-113.29 100.63,-142.45 -4.9,-29.08 -9.22,-71.56 -9.22,-71.56z"/>
   <path class="fil5" d="M7857.37 1662.79c0,0 -108.58,-19.2 -49.32,174.98 62.74,205.87 185.76,306.85 268.11,299.3 0,0 -21.13,27.54 -134.96,74 -113.56,46.09 -156.8,66.59 -160.14,122.01 -3.45,55.56 53.77,193.57 78.34,218.03 24.46,24.31 116.23,-57.23 167.98,13.06 51.46,70.54 48.18,119.31 -48.41,187.02 -93.8,53.49 -165.9,32.19 -165.9,32.19 0,0 -116.35,-2.55 -124.54,-8.05 -8.05,-5.23 70.75,-123.85 100.58,-148.16 46.19,-41.79 -19.31,-135.48 -51.82,-156.95 -32.52,-21.78 -92.09,-69.76 -92.09,-69.76 0,0 44.99,-94.72 -11.37,-138.8 -43.4,-37.51 -116.49,-51.1 -138.12,-34.82 -21.52,16.25 -61.22,-29.44 -72.21,-162.47 -11.54,-138.77 11.9,-178.58 14.48,-207.24 0,0 239.4,-156.05 309.8,-188.81 70.29,-32.81 109.59,-5.51 109.59,-5.51z"/>
   <path class="fil5" d="M8054.21 2720.24c0,0 271.57,131.69 290.66,211.73 19.35,79.75 -52.23,195.08 -259.5,173.85 -44.27,-4.36 -112.28,1.89 -174.73,-34.82 -241.32,-141.72 -578.15,-361.27 -604.9,-379.34 0,0 -263.96,-0.76 -287,-0.76 -23.19,0 -301.74,107.78 -515.66,173.36 -213.78,65.53 -259.76,122.51 -346.31,118.51 -86.91,-4.09 -115.2,-14.59 -134.52,-158.06 -9.61,-71.46 -1.88,-75.75 -1.88,-75.75l173.68 -45.25 124.68 141.96c0,0 408.5,-266.54 496.46,-334.25 87.82,-67.97 104.09,-84.23 104.09,-84.23 -382.67,-283.55 -585.95,-419.54 -649.97,-479.3 -66.2,-62.09 -96.28,-162.33 -12.67,-254.64 83.86,-92.16 243.76,-83.2 436.3,60.07 192.66,142.97 590.02,449.59 590.02,449.59 0,0 55.57,-1.54 97.55,3.97 41.98,5.24 85.39,29.55 85.39,29.55 0,0 -18.8,-12.02 -96.13,85.52 -76.67,97.7 -103.68,146.47 -99.72,165.53 4.21,18.98 17.67,22.93 42.24,22.93 24.2,0 41.88,-2.94 66.19,-6.93 24.32,-4.09 40.72,-4.35 40.72,-4.35 0,0 -8.2,1.56 41.84,6.78 50.33,5.52 74.51,-12.27 89.38,-21.74 14.84,-9.71 37.89,-36.76 37.89,-36.76l15.69 -43.12 12.05 -39.29 5.94 -19.09 22.9 6.55c0,0 -52.62,59.77 -5.12,97.55 47.61,37.87 120.53,92.53 120.53,92.53 0,0 34.56,20.84 -7.75,75.16 -55.3,66.33 -103.82,181.81 -103.82,181.81 0,0 81.19,6.53 161.2,13.02 79.87,6.67 169.21,-9.84 194.69,-41.09 31.53,-24.46 49.62,-51.17 49.62,-51.17z"/>
   <path class="fil5" d="M6337.56 2951.07c0,0 27.96,16.53 86.65,41.42 76.24,32.34 182.3,63.03 266.93,33.24 149.77,-52.51 115.33,-137.5 73.6,-177.05l-32.26 -30.97 -394.93 133.36z"/>
   <path class="fil5" d="M6738.43 2303.64c0,0 -252.31,211.46 -277.53,215.31 -25.37,3.44 -168.24,-147.59 -219.05,-171.03 -50.43,-23.56 -90.57,8.67 -97.61,23.16 -7.29,14.17 5.25,14.17 189.71,128.79 71.96,44.67 90.4,56.46 90.4,56.46l-161.88 114.86 68.99 133.25 529.88 -374.25 -119.52 -128.54 -3.38 2z"/>
   <path class="fil5" d="M6376.42 2558.78c0,0 -255.27,-161.83 -336.7,-205.09 -81.29,-43.01 -213.16,-66.35 -270.6,11.64 -57.89,77.59 -39.59,149.76 70.65,236.06 110.47,86.55 165.85,125.45 165.85,125.45l166.6 -46.7 -97.66 -91.67 33.02 -25.62 153.51 164.39 -114.35 -202.12 28.81 -16.4 76.98 137.28 123.89 -87.21z"/>
   <path class="fil5" d="M7132.37 2046.47c0,0 46.65,-64.16 128.43,-43.91 70.54,17.52 125.86,-74.76 125.86,-74.76 0,0 -16.66,33.02 3.59,123.27 19.96,90.26 26.82,137.12 26.82,137.12 0,0 -107.62,-24.6 -127.46,-19.11 -18,-3.26 -157.24,-122.61 -157.24,-122.61z"/>
   <path class="fil5" d="M8006.37 1996.1l16.51 73.23c0,0 -41.47,-10.01 -40.71,-22.02 1.91,-27.39 5.25,-57.73 5.25,-57.73l18.95 6.53z"/>
   <path class="fil5" d="M8005.6 1779.82c0,0 -35.71,8.17 -39.16,11 -3.34,2.42 -3.95,23.69 -1.16,27.5 2.59,4.25 8.72,25.72 10.13,30.49 1.41,4.75 -4.1,17.03 -4.1,17.03 0,0 -10.23,4.24 -12.16,2.67 -2.07,-1.12 -19.59,-3.94 -20.21,-1.12 -0.65,2.69 0,22.14 2.04,27.66 2.03,5.22 8.2,23.04 10.23,26.99 2.07,4.11 12.15,16.77 12.15,16.77l14.99 10.22c0,0 17.03,6.04 19.09,6.04 1.92,0 9.98,-12.67 9.98,-12.67l-1.27 -14.33c0,0 7.91,-1.57 10.74,1.52 2.69,2.43 11,12.81 11,12.81l13.46 10.74 11.5 4.75 9.48 -1.55 15.5 -7.56 12.16 -10.73 10.12 -10.24 -0.76 -14.21 -10.77 -17.53c0,0 -28.42,-5.52 -31.11,-6.27 -2.68,-0.51 -21.12,-10.5 -24.46,-11.9 -3.3,-1.27 -12.91,-19.87 -12.91,-22.29 0,-2.83 -7.41,-19.09 -8.72,-26.49 -1.52,-7.55 3.2,-17.55 3.2,-17.55l8.2 -6.78 -17.16 -24.94z"/>
   <path class="fil5" d="M8134.35 1792.24c-20.47,-9.99 -40.06,-19.97 -59.01,-15.21 -18.94,4.72 -29.68,7.91 -29.68,12.92 0,4.6 -2.07,15.61 -0.8,20.86 1.43,5.51 11.66,33.93 11.66,33.93 10.04,10.64 17.47,18.1 31.42,23.19 7.14,2.45 28.57,15.87 34.92,8.32 2.17,-1.92 13.05,-22.28 13.05,-22.28l9.98 -24.21 -3.44 -27.25 -8.1 -10.26z"/>
   <path class="fil5" d="M7582.55 2339.15c0,0 17.82,63.5 -29.44,100.22 -47.36,36.47 -128.36,33.01 -128.36,33.01 0,0 -44.99,-10.98 18.52,-62.44 63.5,-51.85 116.22,-84.27 116.22,-84.27l23.05 13.48z"/>
   <polygon class="fil3" points="6377.61,1706.55 6475.45,1789.26 6612.66,1742 6535.11,1832.52 6623.68,1906.65 6484.66,1885.13 6407.34,1973.86 6399.89,1879.87 6255.35,1854.79 6387.12,1814.84 "/>
   <polygon class="fil3" points="8076,2910.98 8157.44,2966.79 8285.46,2919.4 8218.61,2997.23 8291.19,3047.42 8161.13,3040.79 8083.69,3116.69 8081.63,3044.49 7951.57,3030.3 8079.7,2984.97 "/>
   <path class="fil5" d="M7872.86 1905.81l42.86 -1.13 19.7 34.54 -20.47 33.29c0,0 -13.53,-13.93 -23.81,-30.19 -10.23,-16.25 -18.29,-36.5 -18.29,-36.5z"/>
   <path class="fil5" d="M7965.8 1975.33c0,0 8.93,11.29 18.94,13.97 10.35,2.83 19.7,5.52 19.7,5.52l14.14 70.48c0,0 -18.18,1.27 -42.49,-18.93 -24.46,-20.25 -25.87,-33.03 -25.87,-33.03l15.58 -38.01z"/>
   <path class="fil5" d="M8028.64 1999.11l42.98 70.69c0,0 20.21,-17.67 19.55,-45.43 -0.76,-27.79 -1.26,-23.55 -1.26,-23.55l-41.88 -20.54 -18.62 16.17 -0.76 2.67z"/>
   <path class="fil5" d="M7884.24 1715.16c0,0 8.35,-5 31.89,-1.81 23.3,3.34 33.03,11.8 33.03,11.8l1.67 50.02 -20.87 10.29 -45.72 -70.3z"/>
   <path class="fil5" d="M7867.48 1758.81l51.83 68.22c0,0 -8.39,19.55 -8.15,27.6 0.37,8.21 2.55,12.92 2.55,12.92l-46.12 -13.28c0,0 -15.75,-35.19 -13.32,-56.17 2.43,-21.01 13.21,-39.3 13.21,-39.3z"/>
   <polygon class="fil6" points="2137.84,5828.08 2050.89,6321.22 1905.63,6321.22 1942.16,6114.1 1898.72,6114.1 1862.16,6321.22 1716.88,6321.22 1803.86,5828.08 1949.1,5828.08 1918.05,6004.44 1961.49,6004.44 1992.61,5828.08 "/>
   <polygon class="fil6 str0" points="2461.21,6321.23 2315.61,6321.23 2385.19,5926.45 2342.06,5926.45 2272.46,6321.23 2126.86,6321.23 2213.88,5827.79 2548.21,5827.79 "/>
   <polygon class="fil6" points="2871.19,6321.23 2725.59,6321.23 2795.18,5926.45 2752.05,5926.45 2682.45,6321.23 2536.85,6321.23 2623.84,5827.79 2958.21,5827.79 "/>
   <path class="fil6" d="M3294.59 5944.12l81.8 0 -58.51 165.4 -1.34 173.96 -81.76 0 1.34 -173.96 58.47 -165.4zm-126.6 0l81.76 0 -58.14 165.4 -1.72 173.96 -81.75 0 1.68 -173.96 58.17 -165.4z"/>
   <polygon class="fil6" points="3748.52,5828.08 3731.1,5926.78 3644.86,5926.78 3575.27,6321.22 3430,6321.22 3499.64,5926.78 3413.66,5926.78 3431.08,5828.08 "/>
   <path class="fil6" d="M3930.09 6060.5l5.22 -29.56c3.7,-20.94 4.82,-34.41 3.36,-40.53 -1.46,-6.09 -6.09,-9.13 -13.92,-9.13 -9.66,0 -16.08,2.61 -19.33,7.75 -3.18,5.19 -6.79,19.17 -10.82,41.91l-5.22 29.56 40.71 0zm128.18 65.78l-180.45 0 -15.41 87.47c-3.22,18.25 -3.85,30.04 -1.76,35.3 2.06,5.24 7.32,7.94 15.86,7.94 10.52,0 18.25,-3.54 23.05,-10.52 4.78,-7.03 8.99,-20.53 12.54,-40.71l9.4 -53.3 132.17 0 -5.29 29.86c-4.4,25 -9.55,44.17 -15.53,57.57 -5.9,13.39 -16.75,27.73 -32.57,42.95 -15.78,15.27 -34.41,26.65 -55.93,34.29 -21.42,7.62 -47.35,11.41 -77.69,11.41 -29.48,0 -54.77,-3.77 -76,-11.26 -21.24,-7.5 -36.94,-17.81 -47.18,-30.93 -10.18,-13.1 -16.38,-27.51 -18.43,-43.26 -2.06,-15.7 -0.41,-38.65 4.85,-68.69l20.82 -117.87c6.24,-35.34 16.54,-63.21 30.9,-83.62 14.47,-20.42 34.93,-36.05 61.45,-46.91 26.49,-10.85 55.79,-16.31 87.72,-16.31 39.11,0 70.27,6.58 93.33,19.63 23.13,13.14 37.91,30.48 44.32,52.09 6.41,21.69 6.19,52.04 -0.74,91.24l-9.44 53.62z"/>
   <polygon class="fil6" points="4520.11,6321.23 4400.78,6321.23 4449.89,6042.53 4342.79,6321.23 4266.52,6321.23 4255.63,6042.53 4206.48,6321.23 4087.11,6321.23 4158.39,5917.05 4331.15,5917.05 4336.34,6140.64 4416.19,5917.05 4591.39,5917.05 "/>
   <polygon class="fil6" points="4587.49,6321.23 4658.75,5917.05 4985.15,5917.05 4913.88,6321.23 4775.18,6321.23 4831.52,6001.68 4782.2,6001.68 4725.85,6321.23 "/>
   <path class="fil6" d="M5243.38 5944.12l0.15 165.4 -60.01 173.96 -81.76 0 60 -173.96 -0.18 -165.4 81.8 0zm-126.34 0l-0.15 165.4 -59.67 173.96 -81.79 0 59.69 -173.96 0.15 -165.4 81.77 0z"/>
   <polygon class="fil6" points="1944.32,6966.85 1822.85,6966.85 1861.36,6748.45 1725.95,6966.85 1598.93,6966.85 1670.2,6562.62 1791.66,6562.62 1753.48,6779.2 1886.89,6562.62 2015.59,6562.62 "/>
   <polygon class="fil6" points="2444.7,6966.85 2325.36,6966.85 2374.47,6688.14 2267.38,6966.85 2191.1,6966.85 2180.21,6688.14 2131.07,6966.85 2011.7,6966.85 2082.97,6562.62 2255.73,6562.62 2260.88,6786.21 2340.78,6562.62 2515.97,6562.62 "/>
   <polygon class="fil6" points="2622.57,6866.32 2604.84,6966.85 2499.61,6966.85 2517.3,6866.32 "/>
   <path class="fil6" d="M3221.64 6753.01l11.23 -63.65c2.99,-16.87 1.61,-30.38 -4.06,-40.54 -5.68,-10.14 -14.03,-15.22 -25.08,-15.22l-14.86 0 -30.78 174.85 14.86 0c11.01,0 21.16,-5.1 30.42,-15.26 9.29,-10.14 15.33,-23.53 18.28,-40.18zm-209.19 55.44l30.82 -174.85 -12.06 0c-10.81,0 -20.85,5.08 -30.14,15.22 -9.22,10.15 -15.38,23.66 -18.36,40.54l-11.2 63.65c-2.94,16.65 -1.53,30.04 4.11,40.18 5.7,10.16 13.95,15.26 24.77,15.26l12.05 0zm359.34 -83.13c-5.66,32.24 -11.5,55.52 -17.46,69.7 -8.28,19.73 -21.68,37.45 -40.12,53.32 -28.72,24.56 -76.75,36.87 -144.17,36.87l-25.53 0 -14.37 81.64 -145.6 0 14.37 -81.64 -22.42 0c-67.61,0 -111.42,-12.31 -131.5,-36.87 -12.84,-15.86 -19.96,-33.58 -21.31,-53.32 -0.97,-14.18 1.38,-37.46 7.13,-69.7l1.5 -8.58c5.7,-32.28 11.54,-55.57 17.5,-69.74 8.24,-19.67 21.64,-37.5 40.07,-53.3 28.37,-23.96 76.54,-35.96 144.38,-35.96 5.03,0 12.58,-0.31 22.57,-0.9l14.73 -83.51 145.6 0 -14.7 83.51c11.61,0.59 20.04,0.9 25.34,0.9 67.84,0 111.64,12.01 131.34,35.96 12.84,15.79 19.93,33.62 21.31,53.3 0.89,14.17 -1.46,37.46 -7.17,69.74l-1.5 8.58z"/>
   <polygon class="fil6" points="3493.65,6866.32 3475.92,6966.85 3370.7,6966.85 3388.39,6866.32 "/>
   <path class="fil6" d="M3622.35 6473.35l145.6 0 -36.05 208.35c27.5,-0.59 44,-14.02 49.52,-40.22l19.77 -96.23c7.17,-35.56 19.22,-59.48 36.09,-71.9l134.23 0c-15.16,12.02 -25.98,36.78 -32.39,74.32l-14.21 84.71c-8.58,51.16 -46.39,80.3 -113.44,87.4 64.55,7.12 91.98,36.68 82.36,88.65l-14.52 78.62c-6.82,37.35 -5.07,63.93 5.26,79.79l-134.26 0c-13.47,-12.4 -17.01,-36.35 -10.78,-71.91l16.97 -96.23c2.2,-12.16 -0.34,-21.98 -7.42,-29.41 -7.09,-7.38 -17.32,-11.19 -30.6,-11.45l-37.53 209 -145.61 0 87.02 -493.49z"/>
   <path class="fil6" d="M4155.31 6674.08c3.66,-20.66 4.69,-33.72 3.1,-39.13 -1.53,-5.38 -6.5,-8.05 -14.74,-8.05 -8.36,0 -14.29,2.68 -18.02,8.05 -3.69,5.41 -7.38,18.47 -11.04,39.13l-32.17 182.51c-3.37,19.07 -4.19,31.49 -2.46,37.28 1.75,5.82 6.64,8.7 14.7,8.7 8.28,0 14.25,-2.66 17.8,-7.91 3.53,-5.29 6.86,-16.65 9.96,-34.1l32.88 -186.47zm134.02 30.5l-17.45 98.98c-6.38,36.35 -13.18,63.04 -20.33,79.97 -7.1,16.98 -18.77,32.79 -34.9,47.53 -16.19,14.71 -35.53,25.57 -58.06,32.58 -22.5,7.01 -47.58,10.52 -75.16,10.52 -30.81,0 -56.37,-3.02 -76.72,-8.99 -20.33,-6.01 -35.37,-15.04 -45.11,-27.13 -9.7,-12.06 -15.6,-26.68 -17.62,-43.85 -2.05,-17.17 -0.04,-42.91 6.01,-77.28l18.25 -103.52c6.68,-37.6 16.45,-66.91 29.37,-88.02 12.91,-21.16 32.46,-38.1 58.66,-50.9 26.16,-12.8 57.88,-19.18 95.15,-19.18 31.27,0 57.39,4.1 78.4,12.35 21.02,8.18 36.35,18.92 46.28,32.09 9.82,13.22 15.74,26.84 17.8,40.83 2.02,14.02 0.52,35.37 -4.56,64z"/>
   <path class="fil6" d="M4538.65 6680.2c4.4,-24.97 6.04,-40.09 4.92,-45.37 -1.15,-5.31 -6.41,-7.92 -15.85,-7.92 -9.17,0 -15.67,3.03 -19.37,9.11 -3.73,6.12 -7.69,20.85 -11.79,44.18l-29.55 167.53c-4.26,24.38 -5.6,39.63 -3.88,45.71 1.68,6.09 7.12,9.11 16.3,9.11 8.99,0 15.04,-2.76 18.25,-8.36 3.14,-5.56 6.64,-19.1 10.41,-40.68l30.57 -173.32zm-18.96 -117.58l-8.7 35.71c14.96,-14.45 30.6,-25.23 46.76,-32.36 16.23,-7.13 33.17,-10.67 50.9,-10.67 21.6,0 39.4,5.15 53.32,15.41 13.99,10.23 21.72,22.07 23.28,35.5 1.57,13.39 -0.48,36.12 -6.18,68.21l-30.04 170.3c-6.47,36.71 -13.55,62.91 -21.2,78.38 -7.73,15.58 -20,27.95 -36.94,37.17 -16.94,9.23 -36.2,13.89 -57.8,13.89 -17.28,0 -32.69,-3.58 -46.09,-10.66 -13.47,-7.17 -25.08,-17.7 -34.78,-31.77l-16.34 92.69 -139.41 0 81.43 -461.8 141.79 0z"/>
   <path class="fil6" d="M4918.67 6674.08c3.61,-20.66 4.69,-33.72 3.1,-39.13 -1.53,-5.38 -6.5,-8.05 -14.74,-8.05 -8.36,0 -14.29,2.68 -18.02,8.05 -3.7,5.41 -7.38,18.47 -11.04,39.13l-32.17 182.51c-3.36,19.07 -4.19,31.49 -2.46,37.28 1.75,5.82 6.64,8.7 14.69,8.7 8.29,0 14.26,-2.66 17.81,-7.91 3.53,-5.29 6.85,-16.65 9.96,-34.1l32.88 -186.47zm134.02 30.5l-17.45 98.98c-6.38,36.35 -13.18,63.04 -20.34,79.97 -7.09,16.98 -18.77,32.79 -34.89,47.53 -16.24,14.71 -35.53,25.57 -58.06,32.58 -22.5,7.01 -47.58,10.52 -75.16,10.52 -30.82,0 -56.38,-3.02 -76.72,-8.99 -20.33,-6.01 -35.37,-15.04 -45.12,-27.13 -9.69,-12.06 -15.59,-26.68 -17.61,-43.85 -2.06,-17.17 -0.04,-42.91 6.01,-77.28l18.25 -103.52c6.68,-37.6 16.45,-66.91 29.37,-88.02 12.91,-21.16 32.46,-38.1 58.66,-50.9 26.16,-12.8 57.87,-19.18 95.15,-19.18 31.27,0 57.39,4.1 78.41,12.35 21.01,8.18 36.34,18.92 46.27,32.09 9.81,13.22 15.74,26.84 17.8,40.83 2.02,14.02 0.52,35.37 -4.56,64z"/>
   <polygon class="fil6" points="5417.3,6562.62 5402.37,6647.32 5322.66,6647.32 5266.32,6966.85 5127.29,6966.85 5183.63,6647.32 5103.56,6647.32 5118.49,6562.62 "/>
   <path class="fil6" d="M5600.56 6562.67l-27.69 157.11c29.22,0 46.24,-13.66 51.09,-41.1l12.1 -68.51c4.85,-27.57 12.8,-43.43 23.88,-47.5l134.26 0c-12.77,13.21 -21.34,32.69 -25.85,58.48l-9.97 56.35c-3.43,19.69 -15.42,36.04 -35.89,49.02 -7.54,4.9 -22.8,11.75 -45.72,20.71 -14.85,5.87 -30.97,9.02 -48.28,9.41 7.87,1.19 22.31,4.59 43.47,10.07 45.22,13.39 64.92,36.87 59,70.38l-12.5 70.93c-4.59,25.97 -2.91,45.57 5.15,58.77l-134.23 0c-8.17,-12.39 -10.56,-28.22 -7.17,-47.55l15.04 -85.26c4.86,-27.39 -7.61,-41.09 -37.27,-41.09l-30.64 173.9 -137.66 0 71.24 -404.12 137.65 0z"/>
   <path class="fil6" d="M5998.14 6674.08c3.66,-20.66 4.7,-33.72 3.1,-39.13 -1.53,-5.38 -6.46,-8.05 -14.77,-8.05 -8.28,0 -14.26,2.68 -17.98,8.05 -3.7,5.41 -7.35,18.47 -11.05,39.13l-32.17 182.51c-3.36,19.07 -4.17,31.49 -2.42,37.28 1.72,5.82 6.61,8.7 14.66,8.7 8.28,0 14.22,-2.66 17.8,-7.91 3.58,-5.29 6.9,-16.65 9.97,-34.1l32.87 -186.47zm134.04 30.5l-17.47 98.98c-6.41,36.35 -13.18,63.04 -20.29,79.97 -7.13,16.98 -18.77,32.79 -34.93,47.53 -16.23,14.71 -35.56,25.57 -58.03,32.58 -22.49,7.01 -47.6,10.52 -75.19,10.52 -30.82,0 -56.37,-3.02 -76.72,-8.99 -20.33,-6.01 -35.41,-15.04 -45.12,-27.13 -9.69,-12.06 -15.59,-26.68 -17.61,-43.85 -2.05,-17.17 -0.08,-42.91 6.01,-77.28l18.24 -103.52c6.65,-37.6 16.45,-66.91 29.38,-88.02 12.9,-21.16 32.46,-38.1 58.65,-50.9 26.2,-12.8 57.89,-19.18 95.16,-19.18 31.27,0 57.39,4.1 78.4,12.35 20.98,8.18 36.39,18.92 46.24,32.09 9.86,13.22 15.82,26.84 17.84,40.83 2.01,14.02 0.52,35.37 -4.55,64z"/>
   <path class="fil6" d="M6332.66 6712.8c21.15,0 34.51,-2.34 40.04,-7.01 5.56,-4.67 9.47,-13.93 11.93,-27.77 2.09,-11.58 0.87,-19.56 -3.69,-24.03 -4.48,-4.45 -16.76,-6.68 -36.72,-6.68l-11.57 65.48zm23.21 128.54l2.42 -13.73c3.11,-17.46 2.35,-28.36 -2.16,-32.73 -4.52,-4.4 -16.79,-6.56 -36.79,-6.56l-16.54 93.55c18.65,0 31.42,-2.39 38.21,-7.17 6.82,-4.82 11.75,-15.91 14.85,-33.37zm135.42 18.85c-7.31,41.27 -22.43,69.33 -45.44,84.29 -22.96,14.89 -68.52,22.36 -136.58,22.36l-159.74 0 71.24 -404.24 164.59 0c56.39,0 93.7,8.22 112.1,24.7 18.39,16.42 24.06,44.56 17.05,84.37 -8.05,45.68 -39.55,71.67 -94.48,77.99 27.32,4.06 47.77,13.76 61.28,29.07 13.54,15.33 18.25,34.55 14.17,57.72l-4.17 23.73z"/>
   <path class="fil6" d="M6733.11 6774.62c-24.85,14.44 -39.93,26.49 -45.22,36.27 -5.26,9.73 -9.52,23.74 -12.77,42.02 -3.69,20.93 -4.47,34.44 -2.49,40.52 2.06,6.12 7.65,9.13 16.86,9.13 8.77,0 14.89,-2.38 18.36,-7.17 3.51,-4.77 7.06,-17.3 10.64,-37.6l14.62 -83.17zm-34.41 -55.44l-130.78 0 4.78 -27.1c5.56,-31.27 13.88,-55.37 25.08,-72.35 11.12,-16.91 30.14,-31.91 57.05,-44.94 26.9,-12.98 60.04,-19.51 99.37,-19.51 47.12,0 81.38,7.34 102.72,22.08 21.31,14.75 32.46,32.81 33.59,54.23 1,21.45 -4.34,65.56 -16.13,132.39l-35.74 202.88 -135.61 0 6.31 -36.05c-11.05,14.4 -23.92,25.29 -38.66,32.5 -14.73,7.24 -31.37,10.84 -50.04,10.84 -24.37,0 -45.71,-6.03 -63.92,-18.11 -18.22,-12.1 -23.74,-38.59 -16.54,-79.37l5.85 -33.18c5.35,-30.29 14.37,-50.88 27.1,-61.86 12.77,-10.98 41.83,-23.77 87.2,-38.4 48.55,-15.82 74.93,-26.54 79.11,-31.97 4.14,-5.5 7.76,-16.69 10.75,-33.51 3.73,-21.13 4.32,-34.85 1.94,-41.27 -2.5,-6.43 -7.81,-9.59 -16.09,-9.59 -9.45,0 -15.79,2.72 -19.03,8.05 -3.22,5.42 -6.87,19.37 -10.86,41.9l-7.46 42.33z"/>
   <path class="fil7" d="M6586.86 5641.34c-23.73,-0.54 -42.05,-6.74 -55.81,-18.88 -13.47,-12.4 -23.19,-28.03 -29.38,-46.9 -6.2,-19.14 -9.98,-39.09 -11.6,-59.85 -1.34,-20.75 -2.16,-39.63 -1.88,-57.14 -0.27,-19.42 -0.27,-39.63 0,-60.93 0.54,-21.29 3.24,-41.24 8.36,-59.84 4.85,-18.6 14.29,-33.7 27.76,-45.57 13.48,-11.59 33.43,-17.79 59.31,-18.05 25.34,0.26 45.02,6.2 59.3,17.25 14.56,11.32 25.08,25.88 31.55,43.94 6.47,18.06 10.52,37.47 12.13,58.23 1.62,20.76 2.43,40.71 2.16,60.12 0.27,19.41 -0.26,39.9 -1.34,61.46 -1.08,21.57 -4.86,41.79 -10.78,60.93 -5.94,19.13 -15.91,34.5 -30.19,46.64 -14.02,12.13 -33.97,18.33 -59.58,18.6zm-92.2 -700.37c-0.26,-18.06 0.81,-35.86 2.96,-53.39 1.89,-17.51 6.2,-33.42 12.68,-47.72 6.74,-14.29 16.44,-25.87 29.39,-34.5 12.93,-8.63 30.46,-12.94 52.02,-13.22 18.87,0.27 34.51,4.86 46.64,13.76 12.4,8.89 21.84,20.49 28.85,35.04 6.74,14.29 11.6,29.66 14.29,46.11 2.97,16.44 4.32,32.07 4.05,47.44 0.26,17.26 -1.08,34.23 -3.78,51.49 -2.7,16.98 -7.55,32.61 -14.83,46.64 -7.02,14.29 -17.26,25.61 -30.47,34.23 -13.21,8.63 -30.19,12.94 -51.22,13.22 -18.87,-0.27 -34.24,-4.58 -46.1,-13.22 -12.14,-8.35 -21.3,-19.41 -27.77,-33.43 -6.48,-13.75 -10.78,-28.57 -13.22,-44.74 -2.42,-16.18 -3.5,-32.09 -3.5,-47.72zm-114.84 231.3c-32.89,22.11 -59.31,43.67 -79.26,64.7 -19.95,21.3 -34.77,43.13 -44.75,65.78 -10.24,22.65 -16.98,47.45 -20.21,73.86 -3.24,26.42 -4.86,55.8 -4.58,88.42 0.26,78.45 13.47,145.57 39.9,201.1 26.69,55.54 64.7,98.13 114.3,127.78 49.61,29.66 109.19,44.49 179.01,44.75 84.65,0.27 155.27,-12.4 211.89,-38.01 56.61,-25.61 98.93,-65.78 127.24,-120.76 28.31,-55.27 42.59,-126.71 42.59,-214.86 0.54,-47.72 -3.5,-88.96 -12.13,-123.74 -8.62,-34.77 -23.99,-65.78 -46.37,-92.73 -22.37,-26.96 -53.92,-52.57 -95.16,-76.3l0 -3.24c35.85,-18.59 64.7,-40.97 86.27,-67.39 21.57,-26.15 37.2,-55.27 46.9,-87.08 9.44,-31.54 14.29,-64.7 14.02,-99.47 -0.27,-72.24 -15.1,-131.82 -43.94,-179 -28.85,-47.19 -69.82,-82.22 -122.39,-105.14 -52.57,-23.19 -114.57,-34.51 -186.28,-34.51 -70.1,0 -131.02,11.6 -183.32,34.78 -52.3,23.19 -92.74,58.5 -121.85,105.67 -29.11,47.18 -43.67,106.49 -44.21,178.19 -0.26,38.82 4.32,73.86 13.48,104.87 9.16,31.27 24.26,59.3 45.29,83.83 20.75,24.8 48.79,46.37 83.57,65.24l0 3.24zm907.41 111.61c2.42,-28.58 11.86,-50.41 28.31,-65.78 16.44,-15.37 38.82,-23.19 67.12,-23.19 23.19,0.26 41.78,6.2 55.8,17.79 13.75,11.32 24.53,26.42 31.55,45.03 7.01,18.59 11.86,38.82 14.29,60.38 2.42,21.84 3.78,42.87 3.78,63.62 0,20.49 0,38.55 -0.27,54.19 0.27,12.93 0,28.31 -0.8,46.1 -0.81,17.79 -2.7,36.13 -5.94,55 -3.23,18.87 -8.62,36.12 -16.17,52.02 -7.56,15.64 -18.34,28.04 -31.81,36.94 -13.48,8.89 -30.73,12.39 -52.03,10.51 -22.37,-2.96 -39.09,-11.05 -50.41,-24.8 -11.32,-13.47 -19.14,-29.92 -23.19,-49.06 -4.04,-19.41 -6.47,-38.83 -7.27,-58.5 -0.81,-19.68 -1.89,-36.93 -3.24,-52.03l-255.56 0 0 92.2c12.13,65.77 32.07,120.5 59.57,163.9 27.5,43.67 64.43,76.3 111.07,98.13 46.64,21.57 104.59,32.35 173.89,32.35 70.89,-0.26 130.2,-10.24 178.19,-29.92 47.98,-19.68 86.27,-48.25 114.56,-85.46 28.31,-36.93 48.79,-81.95 61.2,-134.26 12.4,-52.56 18.34,-111.6 18.06,-177.38 0.27,-41.51 -1.88,-82.22 -6.47,-122.39 -4.32,-40.43 -12.68,-78.18 -24.54,-113.76 -11.85,-35.59 -28.84,-67.12 -50.68,-94.63 -22.11,-27.23 -50.41,-48.79 -85.19,-64.42 -34.77,-15.38 -77.37,-23.46 -127.52,-23.73 -37.47,0 -71.44,6.2 -101.9,18.33 -30.19,12.4 -59.58,31.01 -87.35,56.08l11.32 -226.45 422.17 0 0 -218.36 -627.59 0 -30.73 661.56 237.77 0z"/>
  </g>
 </g>
</svg>
