<?xml version="1.0" encoding="UTF-8"?>
<!DOCTYPE svg PUBLIC "-//W3C//DTD SVG 1.1//EN" "http://www.w3.org/Graphics/SVG/1.1/DTD/svg11.dtd">
<!-- Creator: CorelDRAW 2021 (64-Bit) -->
<svg xmlns="http://www.w3.org/2000/svg" xml:space="preserve" width="50mm" height="24.8092mm" version="1.1" style="shape-rendering:geometricPrecision; text-rendering:geometricPrecision; image-rendering:optimizeQuality; fill-rule:evenodd; clip-rule:evenodd"
viewBox="0 0 1371.45 680.49"
 xmlns:xlink="http://www.w3.org/1999/xlink"
 xmlns:xodm="http://www.corel.com/coreldraw/odm/2003">
 <defs>
  <style type="text/css">
   <![CDATA[
    .fil0 {fill:#FEFEFE}
   ]]>
  </style>
 </defs>
 <g id="Layer_x0020_1">
  <metadata id="CorelCorpID_0Corel-Layer"/>
  <g id="_2718281036608">
   <path class="fil0" d="M142.99 487.02c-3.72,3.64 -8.57,5.46 -14.46,5.61l-76.18 0 0.02 -37.22 76.57 0c5.65,0 10.33,1.81 14.05,5.36 3.79,3.64 5.58,8.01 5.58,13.02 0,5.09 -1.78,9.45 -5.57,13.23zm739.03 -50.32c-16.91,35.13 -38.55,67.71 -65.7,96.81l3.66 0 59.97 0 6.08 0c8.23,-11.1 -7.12,11.76 0,0l59.44 0c23.37,0 42.3,-18.96 42.25,-42.33l-74.37 0c13.98,-20.65 38.16,-80.8 45.59,-105.2l0 -0 99.72 147.53 60.7 0 -126.4 -190.33 -22.74 0 -35.37 0 -19.63 0c-8.09,32.67 -19.02,64.02 -33.21,93.52zm-427.78 23.92c12.36,25.59 26.92,49.98 43.92,72.89l4.51 0 60.7 0 4.49 0c-26.99,-28.92 -48.53,-61.28 -65.38,-96.17 -14.34,-29.68 -25.36,-61.25 -33.52,-94.15l-20.4 0 -34.61 0 -23.51 0 -75.28 124.72 59.14 0 50.1 -84.64c7.99,26.71 17.86,52.58 29.83,77.36zm-106.45 72.88l46.85 -0.01c23.37,0 42.3,-18.96 42.25,-42.33l-17.29 0 -57.22 0 -1.85 0 -59.42 0 -9.92 0 0.3 -147.98 -52.5 0 -0.07 190.33 36.63 0 2.9 0 69.33 0 0.01 -0.01zm960.73 -190.32l-135.56 0 -32.95 0 0 0.01 -70.09 0c-0.02,23.37 18.9,42.33 42.25,42.33l27.83 0 63.52 0 90.88 0c9.01,0 16.38,7.37 16.38,16.38 0,9.01 -7.4,16.38 -16.38,16.38l-10.96 0c-3.78,0.08 -6.63,0.12 -8.97,0.14l0 -0.14 -21.96 0 -1.56 0 -84.59 0 -19.03 0 -33.41 0 0 54.04 40.4 61.18 12.04 0 0 -78.09c16.89,0 46.83,0 63.72,0l52.53 78.09 60.7 0 -50.52 -78.09 22.55 0c30.85,0 56.1,-25.25 56.1,-56.11 0,-30.86 -25.28,-56.11 -56.1,-56.11l-6.82 0zm-497.7 147.94l-138.95 0 131.28 -113.41 0 -34.53 -212.25 0c0,23.4 18.88,42.37 42.3,42.37l88.98 0 -131.43 113.4 0 34.55 194.48 0 25.59 -42.39zm-624.4 -47.37c-4.35,-4.65 -9.37,-7.99 -15.17,-10.26 1.52,-1.97 2.73,-3.19 3.79,-3.63 10.09,-9.97 15.09,-21.89 15.11,-35.92 0,-13.83 -5.01,-25.74 -15.25,-35.72 -10.17,-10.09 -23.25,-15.04 -39.39,-15.04l-135.44 0c-0.03,23.37 18.9,42.33 42.25,42.33l73.97 0c15.42,0 19.18,10.89 19.18,15.85 0,5.02 -1.77,9.38 -5.48,13.16 -3.79,3.7 -8.42,3.75 -14.07,3.75l-32.26 0 -83.66 0 -0.02 10.06 0.12 0 -0.07 105.15 145.6 0c16.78,-0.13 30.27,-5.3 40.76,-15.71 10.57,-10.68 15.74,-23.06 15.76,-37.37 0,-14.19 -5.16,-26.39 -15.74,-36.65z"/>
   <path class="fil0" d="M674.02 613.38c4.67,2.43 7.79,4.03 9.34,4.8 3.54,1.76 6.33,3.12 8.3,4.06l0.01 -0.02 0.43 0.18 0.43 -0.18 0.01 0.02c1.98,-0.94 4.78,-2.32 8.3,-4.06 1.55,-0.77 4.67,-2.37 9.34,-4.8 26.55,-13.8 50.28,-29.6 71.41,-47.12l77.55 0c-33.47,36.83 -74.48,68.88 -124.21,94.72 -1.96,1.02 -5.39,2.75 -10.39,5.22 -2.34,1.16 -5.73,2.79 -10.41,4.98l-1.05 0.53 -20.98 8.77 -20.98 -8.77 -1.05 -0.53c-4.67,-2.19 -8.09,-3.83 -10.41,-4.98 -5,-2.48 -8.43,-4.2 -10.39,-5.22 -49.72,-25.85 -90.73,-57.89 -124.2,-94.72l77.54 0c21.13,17.51 44.85,33.32 71.4,47.12zm17.91 -417.04l-0 0 -30.87 28.58 -53.06 0 121.09 -112.09c-12.35,-0.45 -24.7,-0.66 -36.99,-0.63 -34.8,-0.1 -69.97,1.74 -104.75,5.62 -33.52,3.74 -66.16,9.33 -97.21,16.87l-0.95 0.22 0.01 0.02c-9,2.08 -22.38,5.31 -34.86,8.82l-3.88 1.11 -0.01 0.55c-1.73,56.41 1.5,112.13 11.42,165.01l-54.38 0c-9.25,-53.83 -12.25,-109.93 -10.52,-166.48 0.08,-2.64 0.05,-8.86 0.02,-13.5l-0.1 -22.92 16.75 -6.81c6.9,-2.8 16.32,-5.77 26.23,-8.55 13.2,-3.71 27.62,-7.19 37.37,-9.45l0.73 -0.14c33.56,-8.12 68.3,-14.1 103.5,-18.02 36.11,-4.02 73.26,-5.93 110.62,-5.83 30.71,-0.09 61.29,1.19 91.25,3.88l22.71 -21.03 -0 0 30.66 -29.06 0 0 0.54 0.1 0 0 0.54 0.1 0 0 0.54 0.11 0 0 0.54 0.1 0 0 0.54 0.11 0 0 0.54 0.11 0 0 0.54 0.11 0 0 0.54 0.1 0 0 0.54 0.11 0 0 0.54 0.11 0 0 0.54 0.11 0 0 0.54 0.11 0 0 0.54 0.11 0.54 0.11 0 0 0.54 0.11 0.54 0.11 0 0 0.54 0.11 0 0 0.54 0.11 0 0 0.54 0.11 0 0 0.54 0.11 0 0 0.54 0.11 0.54 0.11 0 0 0.54 0.12 0 0 0.54 0.11 0 0 0.54 0.12 0.54 0.11 0 0 0.54 0.12 0 0 0.54 0.12 0.54 0.12 0 0 0.54 0.12 0 0 0.54 0.12 0 0 0.54 0.12 0 0 0.54 0.12 0 0 0.53 0.12 0 0 0.54 0.12 0 0 0.53 0.12 0.54 0.12 0 0 0.54 0.12 0 0 0.53 0.12 0 0 0.54 0.12 0.54 0.12 0.53 0.12 0 0 0.53 0.12 0 0 0.53 0.12 0 0 0.54 0.12 0.53 0.12 0.53 0.12 0 0 0.53 0.12 0.53 0.12 0 0 0.53 0.12 0.53 0.12 0 0 0.53 0.13 0 0 0.53 0.13 0 0 0.53 0.12 0 0 0.53 0.13 0 0 0.53 0.13 0.53 0.13 0.53 0.13 0 0 0.53 0.13 0.53 0.13 0 0 0.53 0.13 0.53 0.13 0.53 0.13 0.53 0.13 0.73 0.14 0.11 0.02 0.11 0.02 0.11 0.02 0.11 0.02 0.11 0.03 0.11 0.02 0.11 0.03 0.11 0.02 0 0 0.11 0.03 0 0 0.11 0.02 0.11 0.03 0 0 0.11 0.02 0.11 0.03 0.12 0.02 0.11 0.03 0.12 0.02 0.11 0.03 0.12 0.03 0.12 0.03 0.12 0.03 0.12 0.03 0.12 0.03 0.12 0.02 0.12 0.03 0 0 0.12 0.03 0.12 0.03 0 0 0.12 0.02 0 0 0.12 0.02 0.12 0.03 0 0 0.12 0.03 0.12 0.03 0.12 0.03 0 0 0.12 0.03 0 0 0.12 0.03 0.12 0.03 0 0 0.12 0.03 0 0 0.12 0.03 0 0 0.12 0.03 0.12 0.03 0 0 0.12 0.03 0 0 0.12 0.03 0 0 0.12 0.03 0 0 0.12 0.03 0 0 0.12 0.03 0 0 0.12 0.02 0 0 0.12 0.03 0 0 0.12 0.03 0 0 0.12 0.03 0 0 0.12 0.02 0 0 0.13 0.03 0.12 0.03 0 0 0.13 0.03 0 0 0.13 0.03 0 0 0.13 0.03 0 0 0.13 0.03 0 0 0.13 0.03 0 0 0.12 0.03 0 0 0.13 0.03 0 0 0.13 0.03 0 0 0.13 0.03 0 0 0.13 0.03 0 0 0.13 0.03 0 0 0.13 0.03 0 0 0.13 0.03 0 0 -49.56 46.05 0.46 0.06 0 0 -137.76 127.53 -0.78 0.73zm186.01 13.34l-53.06 0 81.18 -72.13 -0.01 0 90.42 -85.33 0.01 0 0.31 0.09 0.01 0 0.31 0.09 0.01 0 0.31 0.09 0.01 0 0.31 0.1 0.01 0 0.31 0.1 0.01 0 0.31 0.09 0.01 0 0.31 0.09 0.01 0 0.3 0.1 0.01 0 0.3 0.1 0.01 0 0.3 0.1 0.01 0 0.31 0.09 0 0 0.3 0.09 0.01 0 0.3 0.1 0.01 0 0.3 0.09 0.01 0 0.3 0.1 0.01 0 0.3 0.1 0.01 0 0.3 0.09 0 0 0.3 0.1 0.01 0 0.3 0.09 0.01 0 0.29 0.09 0.01 0 0.3 0.1 0 0 0.29 0.1 0 0 0.3 0.1 0 0 0.29 0.1 0.01 0 0.29 0.09 0 0 0.29 0.1 0.01 0 0.29 0.1 0 0 0.29 0.1 0 0 0.29 0.1 0 0 0.29 0.1 0 0 0.28 0.1 0 0 0.28 0.1 0 0 0.28 0.1 0.01 0 0.28 0.09 0 0 0.28 0.1 0 0 0.28 0.1 0.01 0 0.27 0.09 0 0 0.27 0.1 0 0 0.27 0.1 0 0 0.27 0.1 0 0 0.27 0.1 0 0 0.27 0.1 0 0 0.27 0.09 0 0 0.26 0.1 0 0 0.26 0.1 0 0 0.26 0.1 0 0 0.26 0.1 0.26 0.1 0 0 0.26 0.1 0.26 0.1 0 0 0.26 0.1 0 0 0.25 0.1 0 0 0.25 0.1 0 0 0.25 0.09 0.25 0.1 0.25 0.09 0 0 0.24 0.1 0.25 0.1 0.24 0.09 0.24 0.1 0.24 0.09 0.24 0.1 0.24 0.09 0.23 0.1 16.78 6.82 0 3.9 -153.34 140.57zm-169.98 66.09l-53.06 0 167.19 -154.77 -0.01 0 127.64 -121.01 0 0 0.54 0.1 0 0 0.54 0.1 0 0 0.54 0.11 0 0 0.54 0.1 0 0 0.54 0.11 0 0 0.54 0.1 0 0 0.54 0.11 0 0 0.54 0.11 0 0 0.54 0.11 0 0 0.54 0.11 0 0 0.54 0.11 0 0 0.54 0.11 0 0 0.54 0.11 0.54 0.11 0 0 0.54 0.11 0.54 0.11 0 0 0.54 0.11 0 0 0.54 0.11 0 0 0.54 0.11 0 0 0.54 0.11 0 0 0.54 0.11 0.54 0.11 0 0 0.54 0.12 0 0 0.54 0.11 0 0 0.54 0.12 0.54 0.11 0 0 0.54 0.11 0 0 0.54 0.12 0.54 0.12 0 0 0.54 0.12 0 0 0.53 0.12 0 0 0.54 0.12 0 0 0.53 0.12 0 0 0.54 0.12 0 0 0.53 0.12 0 0 0.54 0.12 0.53 0.12 0 0 0.54 0.12 0 0 0.54 0.12 0 0 0.54 0.12 0.54 0.12 0.54 0.12 0 0 0.53 0.12 0 0 0.53 0.12 0 0 0.53 0.12 0.54 0.12 0.53 0.12 0 0 0.53 0.12 0.54 0.12 0 0 0.53 0.12 0.53 0.12 0 0 0.53 0.13 0 0 0.53 0.13 0 0 0.53 0.12 0 0 0.53 0.13 0 0 0.53 0.13 0.53 0.13 0.53 0.13 0 0 0.53 0.13 0.53 0.13 0 0 0.53 0.13 0.53 0.13 0.53 0.13 0.53 0.13 0.73 0.14 0.11 0.02 0.11 0.02 0.11 0.02 0.11 0.02 0.11 0.03 0.11 0.02 0.11 0.02 0.11 0.02 0 0 0.11 0.02 0 0 0.11 0.02 0.11 0.03 0 0 0.11 0.02 0.11 0.03 0.11 0.03 0.12 0.02 0.11 0.03 0.12 0.03 0.11 0.03 0.12 0.03 0.12 0.03 0.12 0.03 0.12 0.02 0.12 0.03 0.12 0.03 0 0 0.12 0.03 0.12 0.03 0 0 0.12 0.02 0 0 0.12 0.03 0.12 0.03 0 0 0.12 0.03 0.12 0.03 0.12 0.02 0 0 0.12 0.03 0 0 0.12 0.02 0.12 0.03 0 0 0.12 0.03 0 0 0.12 0.02 0 0 0.12 0.03 0.12 0.03 0 0 0.12 0.02 0 0 0.12 0.03 0 0 0.12 0.03 0 0 0.12 0.03 0 0 0.12 0.03 0 0 0.12 0.03 0 0 0.12 0.03 0 0 0.12 0.03 0 0 0.12 0.03 0 0 0.12 0.03 0 0 0.13 0.03 0.13 0.03 0 0 0.12 0.03 0 0 0.13 0.03 0 0 0.13 0.02 0 0 0.12 0.03 0 0 0.13 0.03 0 0 0.13 0.03 0 0 0.13 0.03 0 0 0.13 0.03 0 0 0.13 0.03 0 0 0.13 0.03 0 0 0.13 0.03 0 0 0.13 0.03 0 0 0.13 0.03 0 0 -284.62 266.33zm214.37 34.65c6.33,-33.73 9.93,-68.61 11.26,-104.08l53.95 -49.94c0.95,52.33 -2.25,104.15 -10.83,154.03l-54.38 0z"/>
  </g>
 </g>
</svg>
