<?xml version="1.0" encoding="UTF-8"?>
<!DOCTYPE svg PUBLIC "-//W3C//DTD SVG 1.1//EN" "http://www.w3.org/Graphics/SVG/1.1/DTD/svg11.dtd">
<!-- Creator: CorelDRAW 2021 (64-Bit) -->
<svg xmlns="http://www.w3.org/2000/svg" xml:space="preserve" width="24.8317mm" height="44.5447mm" version="1.1" style="shape-rendering:geometricPrecision; text-rendering:geometricPrecision; image-rendering:optimizeQuality; fill-rule:evenodd; clip-rule:evenodd"
viewBox="0 0 247.91 444.71"
 xmlns:xlink="http://www.w3.org/1999/xlink"
 xmlns:xodm="http://www.corel.com/coreldraw/odm/2003">
 <defs>
  <style type="text/css">
   <![CDATA[
    .fil1 {fill:#B90F0F}
    .fil2 {fill:#C3C3C3}
    .fil0 {fill:#C3C3C3;fill-rule:nonzero}
   ]]>
  </style>
 </defs>
 <g id="Layer_x0020_1">
  <metadata id="CorelCorpID_0Corel-Layer"/>
  <g id="_2028590146864">
   <path class="fil0" d="M2.81 75.72l0.78 0c0.66,0 1.21,-0.05 1.63,-0.15 0.42,-0.09 0.79,-0.28 1.12,-0.56 0.32,-0.28 0.56,-0.68 0.7,-1.19 0.14,-0.52 0.21,-1.19 0.21,-2.01 0,-1.38 -0.27,-2.36 -0.81,-2.94 -0.54,-0.57 -1.51,-0.86 -2.91,-0.86l-0.71 0 0 7.72zm-2.81 2.01l0 -20.14 8.64 0 0 2.03 -5.83 0 0 6.35 0.62 0c1.13,0 2.09,0.09 2.86,0.27 0.77,0.18 1.44,0.49 2,0.92 0.56,0.44 0.97,1.04 1.23,1.8 0.26,0.77 0.39,1.72 0.39,2.86 0,2.06 -0.51,3.57 -1.53,4.5 -1.02,0.93 -2.62,1.4 -4.81,1.4l-3.57 0zm12.04 3.05l0 -2.16c1.13,0.11 1.94,0.08 2.43,-0.1 0.49,-0.18 0.77,-0.53 0.83,-1.03 0.05,-0.51 0.01,-1.18 -0.14,-2l-3.97 -17.9 2.66 0 1.7 8.58 1.02 6.38 0.89 -6.34 1.52 -8.61 2.7 0 -3.61 17.95c-0.05,0.27 -0.13,0.65 -0.21,1.14 -0.18,0.99 -0.33,1.7 -0.46,2.1 -0.12,0.4 -0.38,0.81 -0.78,1.23 -0.39,0.42 -0.94,0.67 -1.65,0.76 -0.7,0.08 -1.68,0.09 -2.93,0.01zm14.3 -14.44l1.27 0c1.23,0 2.08,-0.22 2.54,-0.65 0.46,-0.44 0.69,-1.28 0.69,-2.52 0,-0.51 -0.01,-0.93 -0.04,-1.26 -0.02,-0.33 -0.08,-0.64 -0.17,-0.93 -0.08,-0.29 -0.19,-0.52 -0.33,-0.68 -0.14,-0.16 -0.33,-0.29 -0.58,-0.41 -0.25,-0.11 -0.54,-0.19 -0.87,-0.23 -0.33,-0.04 -0.73,-0.06 -1.22,-0.06l-1.31 0 0 6.73zm-2.81 11.4l0 -20.14 4.99 0c1.75,0 3.02,0.47 3.8,1.41 0.79,0.95 1.18,2.33 1.18,4.15 0,1.64 -0.42,2.91 -1.27,3.83 -0.85,0.92 -2.08,1.37 -3.7,1.37l-2.2 0 0 9.38 -2.81 0zm17.04 0.22c-1,0 -1.87,-0.15 -2.58,-0.45 -0.72,-0.3 -1.29,-0.74 -1.71,-1.32 -0.42,-0.58 -0.73,-1.27 -0.93,-2.04 -0.19,-0.78 -0.29,-1.68 -0.29,-2.72l0 -7.63c0,-2.1 0.43,-3.69 1.28,-4.77 0.85,-1.08 2.26,-1.62 4.22,-1.62 1.95,0 3.36,0.54 4.22,1.63 0.86,1.09 1.29,2.68 1.29,4.76l0 7.64c0,2.1 -0.43,3.71 -1.29,4.84 -0.86,1.13 -2.27,1.69 -4.21,1.69zm-1.36 -2.46c0.36,0.17 0.81,0.25 1.36,0.25 0.55,0 1.01,-0.08 1.37,-0.25 0.36,-0.17 0.63,-0.43 0.82,-0.78 0.18,-0.35 0.31,-0.73 0.38,-1.14 0.07,-0.42 0.1,-0.94 0.1,-1.55l0 -8.82c0,-0.61 -0.04,-1.11 -0.1,-1.52 -0.07,-0.41 -0.2,-0.78 -0.38,-1.12 -0.19,-0.34 -0.46,-0.59 -0.82,-0.74 -0.36,-0.16 -0.82,-0.24 -1.37,-0.24 -0.55,0 -1,0.08 -1.36,0.24 -0.36,0.16 -0.63,0.41 -0.82,0.74 -0.19,0.34 -0.32,0.71 -0.38,1.12 -0.07,0.41 -0.1,0.91 -0.1,1.52l0 8.82c0,0.61 0.03,1.13 0.1,1.55 0.06,0.42 0.19,0.79 0.38,1.14 0.19,0.35 0.46,0.61 0.82,0.78zm12.46 -9.5l1.65 0c1.16,0 1.96,-0.26 2.41,-0.77 0.45,-0.52 0.67,-1.38 0.67,-2.59 0,-0.39 -0.03,-0.74 -0.08,-1.04 -0.06,-0.29 -0.13,-0.55 -0.22,-0.76 -0.09,-0.21 -0.22,-0.39 -0.41,-0.53 -0.18,-0.14 -0.37,-0.25 -0.55,-0.34 -0.19,-0.08 -0.44,-0.15 -0.76,-0.19 -0.32,-0.04 -0.63,-0.07 -0.92,-0.08 -0.3,-0.01 -0.68,-0.01 -1.14,-0.01l-0.65 0 0 6.33zm0 9.72l1.89 0c1.22,0 2.05,-0.29 2.49,-0.86 0.45,-0.57 0.67,-1.53 0.67,-2.89 0,-1.28 -0.27,-2.25 -0.8,-2.88 -0.53,-0.64 -1.39,-0.96 -2.59,-0.96l-1.66 0 0 7.59zm-2.81 2.01l0 -20.14 4.6 0c1.83,0 3.19,0.41 4.07,1.22 0.88,0.82 1.32,2.09 1.32,3.82 0,2.57 -0.96,3.98 -2.89,4.25 1.19,0.29 2.06,0.85 2.6,1.69 0.55,0.83 0.82,1.97 0.82,3.41 0,1.82 -0.43,3.23 -1.28,4.24 -0.85,1.01 -2.15,1.52 -3.9,1.52l-5.36 0zm18.16 0.22c-1,0 -1.86,-0.15 -2.58,-0.45 -0.72,-0.3 -1.29,-0.74 -1.71,-1.32 -0.42,-0.58 -0.73,-1.27 -0.93,-2.04 -0.19,-0.78 -0.29,-1.68 -0.29,-2.72l0 -7.63c0,-2.1 0.43,-3.69 1.28,-4.77 0.86,-1.08 2.27,-1.62 4.22,-1.62 1.95,0 3.36,0.54 4.22,1.63 0.86,1.09 1.28,2.68 1.28,4.76l0 7.64c0,2.1 -0.43,3.71 -1.29,4.84 -0.86,1.13 -2.27,1.69 -4.21,1.69zm-1.36 -2.46c0.36,0.17 0.81,0.25 1.36,0.25 0.55,0 1.01,-0.08 1.37,-0.25 0.36,-0.17 0.64,-0.43 0.82,-0.78 0.18,-0.35 0.31,-0.73 0.38,-1.14 0.07,-0.42 0.1,-0.94 0.1,-1.55l0 -8.82c0,-0.61 -0.04,-1.11 -0.1,-1.52 -0.07,-0.41 -0.2,-0.78 -0.38,-1.12 -0.19,-0.34 -0.46,-0.59 -0.82,-0.74 -0.36,-0.16 -0.81,-0.24 -1.37,-0.24 -0.55,0 -1,0.08 -1.36,0.24 -0.36,0.16 -0.63,0.41 -0.82,0.74 -0.18,0.34 -0.31,0.71 -0.38,1.12 -0.07,0.41 -0.1,0.91 -0.1,1.52l0 8.82c0,0.61 0.03,1.13 0.1,1.55 0.06,0.42 0.19,0.79 0.38,1.14 0.19,0.35 0.46,0.61 0.82,0.78zm9.65 2.24l0 -20.14 7.8 0 0 2.08 -4.99 0 0 6.65 4.05 0 0 2 -4.05 0 0 7.39 5.05 0 0 2.01 -7.86 0zm26.63 0.22c-1,0 -1.86,-0.15 -2.58,-0.45 -0.72,-0.3 -1.28,-0.74 -1.71,-1.32 -0.42,-0.58 -0.73,-1.27 -0.92,-2.04 -0.19,-0.78 -0.29,-1.68 -0.29,-2.72l0 -7.63c0,-2.1 0.42,-3.69 1.28,-4.77 0.86,-1.08 2.27,-1.62 4.22,-1.62 1.95,0 3.36,0.54 4.22,1.63 0.86,1.09 1.28,2.68 1.28,4.76l0 7.64c0,2.1 -0.43,3.71 -1.29,4.84 -0.86,1.13 -2.27,1.69 -4.21,1.69zm-1.36 -2.46c0.36,0.17 0.81,0.25 1.36,0.25 0.55,0 1.01,-0.08 1.37,-0.25 0.36,-0.17 0.64,-0.43 0.82,-0.78 0.18,-0.35 0.31,-0.73 0.38,-1.14 0.06,-0.42 0.1,-0.94 0.1,-1.55l0 -8.82c0,-0.61 -0.04,-1.11 -0.1,-1.52 -0.07,-0.41 -0.2,-0.78 -0.38,-1.12 -0.19,-0.34 -0.46,-0.59 -0.82,-0.74 -0.36,-0.16 -0.81,-0.24 -1.37,-0.24 -0.55,0 -1,0.08 -1.36,0.24 -0.36,0.16 -0.63,0.41 -0.82,0.74 -0.18,0.34 -0.31,0.71 -0.38,1.12 -0.07,0.41 -0.1,0.91 -0.1,1.52l0 8.82c0,0.61 0.03,1.13 0.1,1.55 0.07,0.42 0.2,0.79 0.38,1.14 0.19,0.35 0.46,0.61 0.82,0.78zm12.46 0.22l0.77 0c0.66,0 1.21,-0.05 1.63,-0.15 0.42,-0.09 0.79,-0.28 1.12,-0.56 0.32,-0.28 0.56,-0.68 0.7,-1.19 0.14,-0.52 0.21,-1.19 0.21,-2.01 0,-1.38 -0.27,-2.36 -0.81,-2.94 -0.54,-0.57 -1.51,-0.86 -2.91,-0.86l-0.71 0 0 7.72zm-2.81 2.01l0 -20.14 8.64 0 0 2.03 -5.83 0 0 6.35 0.62 0c1.13,0 2.09,0.09 2.86,0.27 0.78,0.18 1.44,0.49 2,0.92 0.56,0.44 0.97,1.04 1.23,1.8 0.26,0.77 0.39,1.72 0.39,2.86 0,2.06 -0.51,3.57 -1.53,4.5 -1.02,0.93 -2.62,1.4 -4.81,1.4l-3.57 0zm17.42 0.22c-1,0 -1.86,-0.15 -2.58,-0.45 -0.72,-0.3 -1.29,-0.74 -1.71,-1.32 -0.42,-0.58 -0.73,-1.27 -0.93,-2.04 -0.19,-0.78 -0.29,-1.68 -0.29,-2.72l0 -7.63c0,-2.1 0.43,-3.69 1.28,-4.77 0.86,-1.08 2.26,-1.62 4.22,-1.62 1.95,0 3.36,0.54 4.22,1.63 0.86,1.09 1.29,2.68 1.29,4.76l0 7.64c0,2.1 -0.43,3.71 -1.29,4.84 -0.86,1.13 -2.26,1.69 -4.21,1.69zm-1.36 -2.46c0.36,0.17 0.81,0.25 1.36,0.25 0.55,0 1.01,-0.08 1.37,-0.25 0.36,-0.17 0.63,-0.43 0.82,-0.78 0.18,-0.35 0.31,-0.73 0.38,-1.14 0.07,-0.42 0.1,-0.94 0.1,-1.55l0 -8.82c0,-0.61 -0.04,-1.11 -0.1,-1.52 -0.07,-0.41 -0.2,-0.78 -0.38,-1.12 -0.19,-0.34 -0.46,-0.59 -0.82,-0.74 -0.36,-0.16 -0.81,-0.24 -1.37,-0.24 -0.55,0 -1,0.08 -1.36,0.24 -0.36,0.16 -0.64,0.41 -0.82,0.74 -0.19,0.34 -0.32,0.71 -0.38,1.12 -0.07,0.41 -0.1,0.91 -0.1,1.52l0 8.82c0,0.61 0.03,1.13 0.1,1.55 0.07,0.42 0.19,0.79 0.38,1.14 0.19,0.35 0.46,0.61 0.82,0.78zm12.46 -9.16l1.27 0c1.23,0 2.08,-0.22 2.54,-0.65 0.46,-0.44 0.69,-1.28 0.69,-2.52 0,-0.51 -0.01,-0.93 -0.04,-1.26 -0.02,-0.33 -0.08,-0.64 -0.17,-0.93 -0.08,-0.29 -0.19,-0.52 -0.33,-0.68 -0.14,-0.16 -0.33,-0.29 -0.58,-0.41 -0.25,-0.11 -0.53,-0.19 -0.87,-0.23 -0.33,-0.04 -0.73,-0.06 -1.22,-0.06l-1.31 0 0 6.73zm-2.81 11.4l0 -20.14 4.99 0c1.75,0 3.01,0.47 3.8,1.41 0.78,0.95 1.18,2.33 1.18,4.15 0,1.64 -0.42,2.91 -1.27,3.83 -0.85,0.92 -2.08,1.37 -3.7,1.37l-2.2 0 0 9.38 -2.81 0zm11.66 3.05l0 -2.16c1.13,0.11 1.94,0.08 2.43,-0.1 0.49,-0.18 0.77,-0.53 0.83,-1.03 0.05,-0.51 0.01,-1.18 -0.14,-2l-3.97 -17.9 2.66 0 1.7 8.58 1.02 6.38 0.89 -6.34 1.52 -8.61 2.7 0 -3.61 17.95c-0.05,0.27 -0.13,0.65 -0.22,1.14 -0.18,0.99 -0.33,1.7 -0.46,2.1 -0.13,0.4 -0.39,0.81 -0.78,1.23 -0.39,0.42 -0.94,0.67 -1.65,0.76 -0.7,0.08 -1.68,0.09 -2.93,0.01zm12.79 -5.06l6.51 0 0 -16.05 -3.25 0 -0.18 4.54c-0.04,0.98 -0.09,1.88 -0.16,2.72 -0.07,0.84 -0.13,1.57 -0.2,2.2 -0.07,0.63 -0.16,1.22 -0.28,1.76 -0.11,0.54 -0.22,1 -0.3,1.36 -0.09,0.37 -0.22,0.72 -0.37,1.06 -0.16,0.34 -0.28,0.61 -0.38,0.8 -0.09,0.19 -0.24,0.4 -0.44,0.63 -0.2,0.23 -0.35,0.39 -0.45,0.5 -0.1,0.1 -0.26,0.26 -0.48,0.47zm-3.53 5.68l0 -5.68 0.92 0c0.33,-0.29 0.61,-0.56 0.84,-0.84 0.23,-0.28 0.48,-0.71 0.76,-1.3 0.27,-0.59 0.51,-1.29 0.68,-2.1 0.18,-0.81 0.36,-1.89 0.52,-3.23 0.16,-1.34 0.28,-2.91 0.38,-4.7l0.3 -5.95 8.46 0 0 18.13 1.94 0 0 5.68 -2.18 0 -0.23 -3.67 -10 0 -0.22 3.67 -2.17 0zm22.04 -3.45c-1,0 -1.86,-0.15 -2.58,-0.45 -0.72,-0.3 -1.28,-0.74 -1.71,-1.32 -0.42,-0.58 -0.73,-1.27 -0.93,-2.04 -0.19,-0.78 -0.29,-1.68 -0.29,-2.72l0 -7.63c0,-2.1 0.43,-3.69 1.28,-4.77 0.85,-1.08 2.27,-1.62 4.22,-1.62 1.95,0 3.36,0.54 4.22,1.63 0.86,1.09 1.29,2.68 1.29,4.76l0 7.64c0,2.1 -0.43,3.71 -1.29,4.84 -0.86,1.13 -2.26,1.69 -4.21,1.69zm-1.36 -2.46c0.36,0.17 0.81,0.25 1.36,0.25 0.55,0 1.01,-0.08 1.37,-0.25 0.36,-0.17 0.64,-0.43 0.82,-0.78 0.18,-0.35 0.31,-0.73 0.38,-1.14 0.06,-0.42 0.1,-0.94 0.1,-1.55l0 -8.82c0,-0.61 -0.04,-1.11 -0.1,-1.52 -0.07,-0.41 -0.2,-0.78 -0.38,-1.12 -0.18,-0.34 -0.46,-0.59 -0.82,-0.74 -0.36,-0.16 -0.82,-0.24 -1.37,-0.24 -0.55,0 -1,0.08 -1.36,0.24 -0.36,0.16 -0.63,0.41 -0.82,0.74 -0.19,0.34 -0.32,0.71 -0.38,1.12 -0.07,0.41 -0.1,0.91 -0.1,1.52l0 8.82c0,0.61 0.03,1.13 0.1,1.55 0.07,0.42 0.2,0.79 0.38,1.14 0.19,0.35 0.46,0.61 0.82,0.78zm12.46 -9.5l1.65 0c1.16,0 1.96,-0.26 2.41,-0.77 0.45,-0.52 0.67,-1.38 0.67,-2.59 0,-0.39 -0.03,-0.74 -0.08,-1.04 -0.06,-0.29 -0.13,-0.55 -0.22,-0.76 -0.09,-0.21 -0.22,-0.39 -0.41,-0.53 -0.18,-0.14 -0.37,-0.25 -0.55,-0.34 -0.19,-0.08 -0.44,-0.15 -0.76,-0.19 -0.32,-0.04 -0.63,-0.07 -0.92,-0.08 -0.3,-0.01 -0.68,-0.01 -1.14,-0.01l-0.66 0 0 6.33zm0 9.72l1.9 0c1.21,0 2.05,-0.29 2.49,-0.86 0.45,-0.57 0.67,-1.53 0.67,-2.89 0,-1.28 -0.27,-2.25 -0.8,-2.88 -0.53,-0.64 -1.39,-0.96 -2.59,-0.96l-1.66 0 0 7.59zm-2.81 2.01l0 -20.14 4.6 0c1.83,0 3.19,0.41 4.07,1.22 0.88,0.82 1.32,2.09 1.32,3.82 0,2.57 -0.96,3.98 -2.89,4.25 1.19,0.29 2.06,0.85 2.6,1.69 0.55,0.83 0.82,1.97 0.82,3.41 0,1.82 -0.43,3.23 -1.28,4.24 -0.85,1.01 -2.15,1.52 -3.9,1.52l-5.36 0zm15.9 -7.08l3.37 0 -1.69 -9.1 -1.68 9.1zm-3.98 7.08l4.3 -20.14 2.71 0 4.3 20.14 -2.67 0 -0.92 -5.08 -4.1 0 -0.96 5.08 -2.66 0zm13.35 0l0 -20.14 2.81 0 0 8.7 5.17 0 0 -8.7 2.8 0 0 20.14 -2.8 0 0 -9.44 -5.17 0 0 9.44 -2.81 0zm13.95 0l0 -20.14 2.47 0 0 13.95 5.9 -13.95 2.03 0 0 20.14 -2.47 0 0 -14.19 -5.86 14.19 -2.08 0zm13.56 0l0 -20.14 7.8 0 0 2.08 -4.99 0 0 6.65 4.06 0 0 2 -4.06 0 0 7.39 5.05 0 0 2.01 -7.86 0z"/>
   <path class="fil0" d="M8.32 11.17l0 33.27 13.9 0 0 -33.27 6.67 0 2.22 -5.65 0 -5.52 -31.11 0 0 11.17 8.32 0zm55.68 33.27l0 -11.11 -15.87 0 0 -6.1 13.65 0 0 -11.11 -13.65 0 0 -4.95 13.65 0 2.22 -5.65 0 -5.52 -29.71 0 0 44.44 29.71 0zm17.71 -33.27l5.52 0 0 8.32 -5.52 0 0 -8.32zm13.84 19.42c3.3,0 5.59,-2.35 5.59,-5.58l0 -19.49c0,-3.24 -2.29,-5.52 -5.59,-5.52l-27.74 0 0 44.44 13.9 0 0 -13.84 13.84 0zm39.74 13.84l0 -11.11 -15.87 0 0 -6.1 13.65 0 0 -11.11 -13.65 0 0 -4.95 13.65 0 2.22 -5.65 0 -5.52 -29.71 0 0 44.44 29.71 0zm17.65 -11.11l0 -6.1 5.59 0 0 6.1 -5.59 0zm13.9 -17.2l-13.9 0 0 -5.02 16.95 0 2.22 -5.59 0 -5.52 -33.01 0 0 44.44 27.74 0c3.24,0 5.52,-2.35 5.52,-5.59l0 -17.2c0,-3.24 -2.29,-5.52 -5.52,-5.52zm23.87 -4.95l5.52 0 0 8.32 -5.52 0 0 -8.32zm13.84 19.42c3.3,0 5.59,-2.35 5.59,-5.58l0 -19.49c0,-3.24 -2.29,-5.52 -5.59,-5.52l-27.74 0 0 44.44 13.9 0 0 -13.84 13.84 0zm29.46 -19.42l0 22.16 -5.52 0 0 -22.16 5.52 0zm8.32 33.27c3.3,0 5.59,-2.28 5.59,-5.52l0 -33.39c0,-3.24 -2.29,-5.52 -5.59,-5.52l-22.15 0c-3.3,0 -5.59,2.29 -5.59,5.52l0 33.39c0,3.24 2.28,5.52 5.59,5.52l22.15 0z"/>
   <polygon class="fil1" points="94.7,415.05 124.01,444.71 153.31,415.05 163.12,167.47 247.82,151.34 247.82,94.36 124.01,103.38 0.01,94.36 0.01,151.34 84.92,167.47 "/>
   <polygon class="fil2" points="192.83,374.26 199.16,198.41 247.82,189.49 247.82,317.8 "/>
   <polygon class="fil2" points="-0,189.49 48.66,198.41 54.99,374.05 -0,317.8 "/>
  </g>
 </g>
</svg>
