<?xml version="1.0" encoding="UTF-8"?>
<!DOCTYPE svg PUBLIC "-//W3C//DTD SVG 1.1//EN" "http://www.w3.org/Graphics/SVG/1.1/DTD/svg11.dtd">
<!-- Creator: CorelDRAW 2021 (64-Bit) -->
<svg xmlns="http://www.w3.org/2000/svg" xml:space="preserve" width="100.018mm" height="30.2217mm" version="1.1" style="shape-rendering:geometricPrecision; text-rendering:geometricPrecision; image-rendering:optimizeQuality; fill-rule:evenodd; clip-rule:evenodd"
viewBox="0 0 5137.29 1552.3"
 xmlns:xlink="http://www.w3.org/1999/xlink"
 xmlns:xodm="http://www.corel.com/coreldraw/odm/2003">
 <defs>
  <style type="text/css">
   <![CDATA[
    .fil1 {fill:#0C54A0}
    .fil0 {fill:#E31E24;fill-rule:nonzero}
    .fil2 {fill:#0C54A0;fill-rule:nonzero}
   ]]>
  </style>
 </defs>
 <g id="Слой_x0020_1">
  <metadata id="CorelCorpID_0Corel-Layer"/>
  <g id="_2505493144256">
   <path class="fil0" d="M3809.8 392.26l137.14 0c105.03,0 153.05,8.57 153.05,73.31 0,0.92 -0.01,1.83 -0.03,2.74 -0.06,3.42 1.19,6.38 3.71,8.82 2.53,2.43 5.62,3.67 9.21,3.67l140.18 0c3.62,0 6.72,-1.25 9.25,-3.71 2.52,-2.46 3.75,-5.45 3.67,-8.89 -1.87,-75.34 -46.11,-114.2 -82.17,-132.73 -4.52,-2.32 -7.06,-6.65 -6.76,-11.53 0.3,-4.88 3.34,-8.9 8.12,-10.71 43.27,-16.42 69.87,-50.2 69.87,-147.57 0,-135.19 -109.04,-165.66 -231.09,-165.66l-279.11 0c-179.83,0 -229.34,106.81 -233.75,191.79 -0.18,3.49 1.02,6.55 3.55,9.09 2.53,2.53 5.69,3.82 9.36,3.82l130.63 0c6.59,0 12.07,-4.64 12.83,-10.87 6.02,-49.17 53.67,-69.09 114.4,-69.09l204.08 0c72.03,0 103.04,9.52 103.04,69.5 0,59.03 -28,80.92 -103.04,80.92l-176.15 0c-7.12,0 -12.92,5.53 -12.92,12.3l0 92.51c0,6.77 5.8,12.3 12.92,12.3zm1326.58 54.27c0,-149.47 -51.02,-222.78 -256.09,-222.78l-142.06 0c-93.75,0 -132.89,15.42 -159.26,34.76 -4,2.93 -9.06,3.42 -13.59,1.29 -4.53,-2.12 -7.22,-6.23 -7.22,-11.03l0 -104.12c0,-6.77 5.8,-12.3 12.92,-12.3l534.36 0c7.12,0 12.92,-5.52 12.92,-12.3l0 -100.13c0,-6.77 -5.8,-12.3 -12.92,-12.3l-700.43 0c-7.11,0 -12.92,5.53 -12.92,12.3l0 393.37c0,6.77 5.81,12.3 12.92,12.3l141.38 0c6.17,0 11.36,-4 12.64,-9.75 10.53,-47.27 38.53,-67.37 135.17,-67.37l189.07 0c63.02,0 87.04,32.37 87.04,99.97 0,6.67 -0.28,13 -0.83,18.98 -0.33,3.56 0.8,6.75 3.33,9.39 2.54,2.63 5.78,4 9.54,4l140.63 0c6.92,0 12.61,-5.2 12.91,-11.78 0.32,-7.28 0.48,-14.78 0.48,-22.49z"/>
   <path class="fil1" d="M988.45 793.15l0 197.11 -296.2 296.2c-33.03,33.03 -78.66,53.46 -129.07,53.46 -100.81,0 -182.53,-81.71 -182.53,-182.53l0 -341.92 139.06 -139.06 0 480.98c0,24.01 19.46,43.47 43.47,43.47 12,0 22.87,-4.86 30.73,-12.73l394.54 -394.97zm3987.02 419.28c0.78,4.57 2.99,8.73 6.12,12.48 3.21,3.71 7.61,5.58 13.44,5.58 4.81,0 8.82,-1.58 11.94,-4.7 3.13,-3.23 5.11,-6.56 6.15,-9.96l1.07 -3.84 0.4 -3.91 0 -151.72c0,-6.72 5.5,-12.21 12.21,-12.21 32.47,0 64.92,0 97.39,0 6.41,0 11.7,4.99 12.18,11.27l0 124.1 0 0.31c-0.05,4.72 -0.18,9.67 -0.34,14.81 -0.27,7.2 -0.8,14.51 -1.79,22.02 -2.43,19.52 -9.56,37.37 -21.4,53.45 -11.83,16.08 -33.93,24.13 -66.34,24.13l-102.95 0c-31.87,0 -53.78,-8.05 -65.62,-24.13 -11.83,-16.08 -19.2,-33.93 -22.09,-53.45 -0.97,-7.51 -1.55,-14.83 -1.82,-22.02 -0.24,-7.15 -0.37,-13.94 -0.37,-20.22l0 -484.86c0,-6.28 0.13,-13.06 0.37,-20.22 0.27,-7.19 0.85,-14.51 1.82,-22.02 2.89,-19.52 10.26,-37.37 22.09,-53.45 11.84,-16.08 33.75,-24.13 65.62,-24.13l102.95 0c32.41,0 54.51,8.04 66.34,24.13 11.84,16.08 18.97,33.93 21.4,53.45 0.99,7.52 1.52,14.83 1.79,22.02 0.17,5.15 0.29,10.09 0.34,14.81l0 0.31 0 124.1c-0.48,6.28 -5.78,11.27 -12.18,11.27 -32.46,0 -64.92,0 -97.39,0 -6.71,0 -12.21,-5.5 -12.21,-12.21l0 -151.73 -0.4 -3.91 -1.07 -3.84c-1.04,-3.4 -3.03,-6.74 -6.15,-9.97 -3.12,-3.13 -7.13,-4.7 -11.94,-4.7 -5.82,0 -10.23,1.87 -13.44,5.58 -3.13,3.75 -5.35,7.92 -6.12,12.49l0 560.89zm-790.6 -642.7c48.84,0 97.67,0 146.5,0 6.72,0 12.84,5.49 13.61,12.21l80.15 700.09c0.78,6.72 -4.09,12.21 -10.81,12.21l-93.87 0c-6.7,0 -12.88,-5.51 -13.61,-12.21l-19.74 -181.07c-9.16,0 -33.82,0 -57.93,0l-19.75 181.07c-0.73,6.71 -6.9,12.21 -13.61,12.21l-93.87 0c-6.71,0 -11.58,-5.5 -10.81,-12.21l80.15 -700.09c0.78,-6.72 6.89,-12.21 13.61,-12.21zm47.57 451.95l47.88 0 -21.03 -361.44 -5.82 0 -21.02 361.44zm-344.38 23.31l-0.02 237.04c0,6.71 -5.5,12.21 -12.21,12.21l-97.39 0c-6.72,0 -12.21,-5.5 -12.21,-12.21l0 -700.09c0,-6.72 5.49,-12.21 12.21,-12.21l97.39 0 81.83 0c3.34,0 6.64,0 9.81,0 3.12,0 6.38,0.24 9.77,0.82 17.9,1.74 34.18,9.92 48.9,24.59 14.78,14.72 22.14,45.89 22.14,93.59l0 238.08c0,6.3 -0.11,13.64 -0.35,21.96 -0.26,8.37 -1.12,16.81 -2.54,25.43 -3.39,17.83 -11.27,34.12 -23.59,48.76 -12.26,14.68 -33.72,22.03 -64.15,22.03l-69.61 0zm0.01 -79.41l10.84 0c11.17,0 18.52,-3.13 22.16,-9.48 3.62,-6.34 5.45,-14.06 5.45,-23.28l0 -252.29c-0.12,-9.1 -1.5,-15.14 -6.57,-23.24 -3.42,-5.47 -9.86,-8.2 -19.53,-8.2l-12.34 0 0 316.49zm-622.65 -21.46c0,-90.28 -0.01,-180.66 0.01,-270.93 0.01,-11.27 -6.85,-24.13 -19.16,-24.13 -13.26,0 -19.26,12.51 -19.26,24.13 0.01,90.31 0,180.62 0,270.93 0.01,90.31 0,156.45 0,246.76 0.01,11.62 5.99,24.13 19.26,24.13 12.31,0 19.16,-12.85 19.16,-24.13 -0.01,-90.28 -0.01,-156.48 -0.01,-246.76zm121.79 -245.02l0 470.88c0,47.19 -6.6,78.49 -19.91,94.04 -19.63,22.92 -41.47,30.2 -70.69,30.2 -33.83,0 -67.68,0.14 -101.5,0 -24.22,-0.1 -44.54,-0.41 -70,-30.62 -13.25,-15.81 -19.93,-46.97 -19.93,-93.62l0 -470.88c0,-39.82 2.11,-73.73 28.32,-106.1 12.56,-15.5 33.32,-23.3 62.34,-23.3 33.6,0 67.18,0 100.78,0 28.53,0 49.07,7.5 61.61,22.42 27,32.13 28.98,66.96 28.99,106.98zm-625.23 582.93l0 -23.29 -66 0c-25.7,0 -44.32,-6.63 -55.79,-19.85 -24.35,-28.08 -27.74,-59.56 -27.74,-94.88l0 -427.52c0,-6.31 0.29,-13.52 0.75,-21.53 1.59,-26.25 8.97,-49.08 26.32,-69.45 11.43,-13.54 30.24,-20.27 56.45,-20.27l66 0 0 -23.29c0,-6.72 5.5,-12.21 12.21,-12.21 31.13,0 62.26,0 93.39,0 6.72,0 12.21,5.5 12.21,12.21l0.01 23.29 67.38 0c25.28,0 43.56,6.9 54.77,20.71 15.95,19.52 25.14,44.31 26.62,69.44 0.51,7.72 0.72,14.8 0.72,21.11l0 427.52c0,35.25 -3.77,67.45 -28.05,95.33 -11.24,12.94 -29.26,19.4 -54.05,19.4l-67.38 0 0 23.29c0,6.72 -5.5,12.22 -12.22,12.22 -31.13,0 -62.26,0 -93.39,0 -6.72,0 -12.21,-5.5 -12.21,-12.22zm0 -101.78l0 -496.54c-8.09,0 -16.09,0 -21.78,6.89 -3.77,4.62 -6.33,9.77 -7.72,15.52 -1.72,5.48 -2.14,11.55 -2.14,17.28l0 416.31c0,6.16 0.56,13.04 2.14,18.98 1.9,5.76 4.81,10.75 8.79,15.11 5.59,6.05 13.06,6.44 20.7,6.44zm117.83 -495.67l0 495.67c7.75,0 15.52,-0.13 21.13,-6.44 3.69,-4.37 6.28,-9.07 7.66,-14.27 2.24,-6.29 2.81,-12.4 2.81,-19.03l0 -417.11c0,-6.43 -0.67,-12.91 -2.81,-18.99 -1.39,-5.15 -3.98,-9.75 -7.66,-13.81 -5.85,-6.09 -13.39,-6.01 -21.13,-6.01zm-616.15 -114.85l97.39 0c6.72,0 12.21,5.49 12.21,12.21l0 293.11 36.23 0 0 -293.11c0,-6.72 5.49,-12.21 12.21,-12.21l97.39 0c6.72,0 12.21,5.49 12.21,12.21l0 700.09c0,6.72 -5.49,12.21 -12.21,12.21l-97.39 0c-6.72,0 -12.21,-5.5 -12.21,-12.21l0 -327.63 -36.23 0 0 327.63c0,6.72 -5.49,12.21 -12.21,12.21l-97.39 0c-6.72,0 -12.21,-5.5 -12.21,-12.21l0 -700.09c0,-6.72 5.5,-12.21 12.21,-12.21zm1369.17 79.35l0 634.13c-0.6,6.17 -5.83,11.04 -12.15,11.04 -32.46,0 -64.93,0 -97.39,0 -6.72,0 -12.21,-5.5 -12.21,-12.21l0 -632.95 -69.9 0c-6.72,0 -12.21,-5.5 -12.21,-12.21l0 -54.92c0,-6.72 5.5,-12.21 12.21,-12.21l261.52 0c6.72,0 12.21,5.5 12.21,12.21l0 54.92c0,6.71 -5.49,12.21 -12.21,12.21l-69.86 0zm-2562.42 53.84c0,-24 -19.46,-43.46 -43.47,-43.46 -12,0 -22.87,4.86 -30.74,12.73l-394.53 394.97 0 -197.11 296.19 -296.2c33.04,-33.03 78.67,-53.46 129.07,-53.46 100.81,0 182.53,81.71 182.53,182.53l0 495.87 -139.06 139.67 0 -635.54zm-257.3 789.72l-474.17 0c-186.42,0 -338.94,-152.53 -338.94,-338.94l0 -96.44 24.57 -24.57c91.55,473.36 438.95,433.23 800.64,447.86l-12.09 12.09zm3691.66 -922.91l97.39 0c6.72,0 12.21,5.49 12.21,12.21l0 293.11 36.22 0 0 -293.11c0,-6.72 5.49,-12.21 12.21,-12.21l97.4 0c6.72,0 12.21,5.49 12.21,12.21l0 700.09c0,6.72 -5.5,12.21 -12.21,12.21l-97.4 0c-6.71,0 -12.21,-5.5 -12.21,-12.21l0 -327.63 -36.22 0 0 327.63c0,6.72 -5.5,12.21 -12.21,12.21l-97.39 0c-6.72,0 -12.21,-5.5 -12.21,-12.21l0 -700.09c0,-6.72 5.49,-12.21 12.21,-12.21zm-4124.12 186.4l0 -139.89 139.06 -139.67 0 140.5 -139.06 139.06z"/>
   <path class="fil1" d="M771.67 371.33l474.18 0c186.41,0 338.94,152.53 338.94,338.94l0 96.44 -24.57 24.57c-91.55,-473.35 -438.95,-433.23 -800.64,-447.86l12.09 -12.09z"/>
   <path class="fil1" d="M1883.02 569.71l97.39 0c6.72,0 12.21,5.5 12.21,12.21l0 323.06 55.82 -335.27c36.53,0 73.05,0 109.58,0 6.72,0 12.21,5.5 12.21,12.21l0 700.09c0,6.72 -5.5,12.21 -12.21,12.21l-97.39 0c-6.72,0 -12.21,-5.49 -12.21,-12.21l0 -320.26 -55.8 332.47c-36.43,0.1 -73.23,0 -109.6,0 -6.72,0 -12.21,-5.49 -12.21,-12.21l0 -700.09c0,-6.72 5.49,-12.21 12.21,-12.21z"/>
   <path class="fil2" d="M3156.58 1528.08c-14.27,0 -25.47,-4.46 -33.61,-13.38 -8.13,-8.92 -12.2,-21.22 -12.2,-36.92l0 -54.8c0,-15.7 4.07,-28 12.2,-36.92 8.14,-8.92 19.34,-13.38 33.61,-13.38 14.27,0 25.47,4.46 33.61,13.38 8.13,8.92 12.2,21.22 12.2,36.92l0 54.8c0,15.7 -4.07,28 -12.2,36.92 -8.14,8.92 -19.34,13.38 -33.61,13.38zm0 -21.19c7.7,0 13.55,-2.5 17.55,-7.49 4,-4.99 5.99,-12.2 5.99,-21.62l0 -54.8c0,-9.41 -2,-16.62 -5.99,-21.62 -4,-4.99 -9.85,-7.49 -17.55,-7.49 -7.7,0 -13.55,2.5 -17.55,7.49 -4,5 -5.99,12.2 -5.99,21.62l0 54.8c0,9.41 2,16.63 5.99,21.62 4,4.99 9.85,7.49 17.55,7.49zm125.39 20.98c-13.41,0 -24.01,-4.07 -31.79,-12.2 -7.78,-8.14 -11.66,-19.62 -11.66,-34.46l0 -61.65c0,-14.99 3.85,-26.54 11.56,-34.68 7.71,-8.14 18.27,-12.2 31.69,-12.2 13.69,0 24.4,3.96 32.1,11.88 7.71,7.92 11.84,19.3 12.41,34.14l-21.4 0c-0.57,-8.71 -2.78,-15.13 -6.64,-19.27 -3.85,-4.13 -9.41,-6.2 -16.69,-6.2 -6.56,0 -11.7,2.21 -15.41,6.64 -3.71,4.42 -5.56,10.99 -5.56,19.69l0 61.65c0,8.7 1.89,15.23 5.67,19.58 3.78,4.35 9.02,6.53 15.73,6.53 7.28,0 12.88,-2.07 16.8,-6.21 3.92,-4.13 6.25,-10.49 6.95,-19.05l21.41 0c-0.71,14.7 -4.96,26.01 -12.74,33.93 -7.78,7.92 -18.58,11.88 -32.43,11.88zm166.49 -152.4l0 149.83 -21.61 0 0 -65.71 -42.39 0 0 65.71 -21.62 0 0 -149.83 21.62 0 0 63.79 42.39 0 0 -63.79 21.61 0zm86.22 152.62c-14.27,0 -25.47,-4.46 -33.61,-13.38 -8.13,-8.92 -12.2,-21.22 -12.2,-36.92l0 -54.8c0,-15.7 4.07,-28 12.2,-36.92 8.14,-8.92 19.34,-13.38 33.61,-13.38 14.27,0 25.47,4.46 33.61,13.38 8.13,8.92 12.2,21.22 12.2,36.92l0 54.8c0,15.7 -4.07,28 -12.2,36.92 -8.14,8.92 -19.34,13.38 -33.61,13.38zm0 -21.19c7.7,0 13.55,-2.5 17.55,-7.49 4,-4.99 5.99,-12.2 5.99,-21.62l0 -54.8c0,-9.41 -2,-16.62 -5.99,-21.62 -4,-4.99 -9.85,-7.49 -17.55,-7.49 -7.71,0 -13.56,2.5 -17.55,7.49 -4,5 -5.99,12.2 -5.99,21.62l0 54.8c0,9.41 2,16.63 5.99,21.62 3.99,4.99 9.84,7.49 17.55,7.49zm151.5 -58.65c6.42,2.71 11.49,7.06 15.2,13.06 3.71,5.99 5.57,13.06 5.57,21.19 0,13.27 -3.93,23.72 -11.78,31.35 -7.85,7.64 -18.34,11.45 -31.47,11.45l-42.81 0 0 -149.83 40.67 0c12.13,0 21.79,3.68 29,11.02 7.21,7.35 10.81,17.23 10.81,29.65 0,7.13 -1.36,13.52 -4.07,19.16 -2.71,5.63 -6.42,9.95 -11.13,12.95zm-43.66 -52.44l0 43.02 17.12 0c13.12,0 19.69,-7.35 19.69,-22.05 0,-7.13 -1.64,-12.41 -4.92,-15.84 -3.28,-3.43 -8.42,-5.14 -15.41,-5.14l-16.48 0zm18.41 109.16c15.98,0 23.97,-7.49 23.97,-22.47 0,-7.57 -2.21,-13.34 -6.64,-17.34 -4.42,-4 -10.49,-5.99 -18.19,-5.99l-17.55 0 0 45.81 18.41 0zm134.8 -9.84l-39.6 0 -6.85 30.18 -22.69 0 37.67 -149.83 23.33 0 37.67 149.83 -22.47 0 -7.07 -30.18zm-4.49 -20.12l-9.42 -40.24c-2.14,-9.99 -4,-20.69 -5.56,-32.11l-0.64 0c-1.85,13.56 -3.71,24.26 -5.57,32.11l-9.2 40.24 30.39 0zm151.08 -99.53l0 149.83 -21.62 0 0 -65.71 -42.38 0 0 65.71 -21.62 0 0 -149.83 21.62 0 0 63.79 42.38 0 0 -63.79 21.62 0zm164.29 72.78c6.42,2.71 11.49,7.06 15.2,13.06 3.71,5.99 5.57,13.06 5.57,21.19 0,13.27 -3.93,23.72 -11.78,31.35 -7.85,7.64 -18.34,11.45 -31.46,11.45l-42.81 0 0 -149.83 40.67 0c12.13,0 21.79,3.68 29,11.02 7.21,7.35 10.81,17.23 10.81,29.65 0,7.13 -1.36,13.52 -4.07,19.16 -2.71,5.63 -6.42,9.95 -11.13,12.95zm-43.66 -52.44l0 43.02 17.12 0c13.12,0 19.69,-7.35 19.69,-22.05 0,-7.13 -1.64,-12.41 -4.92,-15.84 -3.28,-3.43 -8.42,-5.14 -15.41,-5.14l-16.48 0zm18.41 109.16c15.98,0 23.97,-7.49 23.97,-22.47 0,-7.57 -2.21,-13.34 -6.64,-17.34 -4.42,-4 -10.49,-5.99 -18.19,-5.99l-17.55 0 0 45.81 18.41 0zm680.77 -108.95l-50.08 0 0 129.28 -21.62 0 0 -149.83 71.71 0 0 20.55zm74.88 132.07c-14.27,0 -25.48,-4.46 -33.61,-13.38 -8.13,-8.92 -12.2,-21.22 -12.2,-36.92l0 -54.8c0,-15.7 4.07,-28 12.2,-36.92 8.13,-8.92 19.33,-13.38 33.61,-13.38 14.27,0 25.47,4.46 33.6,13.38 8.14,8.92 12.2,21.22 12.2,36.92l0 54.8c0,15.7 -4.07,28 -12.2,36.92 -8.13,8.92 -19.33,13.38 -33.6,13.38zm0 -21.19c7.7,0 13.55,-2.5 17.55,-7.49 4,-4.99 5.99,-12.2 5.99,-21.62l0 -54.8c0,-9.41 -2,-16.62 -5.99,-21.62 -4,-4.99 -9.85,-7.49 -17.55,-7.49 -7.71,0 -13.56,2.5 -17.56,7.49 -4,5 -5.99,12.2 -5.99,21.62l0 54.8c0,9.41 2,16.63 5.99,21.62 4,4.99 9.85,7.49 17.56,7.49zm186.18 -1.93l0 45.38 -21.19 0 0 -25.04 -71.28 0 0 25.04 -21.19 0 0 -45.38 8.78 0c5.14,-5.28 9.13,-12.98 11.99,-23.11 2.85,-10.13 4.49,-21.48 4.92,-34.03l2.57 -72.35 72.14 0 0 129.5 13.27 0zm-34.68 -109.16l-30.4 0 -2.14 58.01c-0.85,21.69 -4.78,38.74 -11.77,51.16l44.31 0 0 -109.16zm146.15 -20.33l-36.39 118.37c-3.85,12.41 -8.81,21.12 -14.88,26.11 -6.06,5 -14.73,7.49 -26.01,7.49l-5.35 0 0 -19.48 5.99 0c5.71,0 10.06,-1.57 13.06,-4.71 3,-3.14 5.64,-8.56 7.92,-16.27l1.72 -5.57 -37.68 -105.95 22.9 0 24.4 72.99 21.61 -72.99 22.69 0zm-882.38 0l0 149.83 -20.77 0 0 -121.79 -22.47 15.84 0 -23.55 27.82 -20.33 15.41 0zm77.87 -2.35c7.42,0 14.09,1.6 20.02,4.81 5.92,3.22 10.56,7.82 13.91,13.81 3.35,5.99 5.03,12.91 5.03,20.76l0 76.2c0,11.84 -3.57,21.3 -10.7,28.36 -7.13,7.07 -16.48,10.6 -28.04,10.6 -10.85,0 -19.8,-3.49 -26.86,-10.49 -7.06,-6.99 -10.88,-16.26 -11.45,-27.82l20.33 0c0.57,5.71 2.47,10.17 5.68,13.38 3.21,3.21 7.38,4.81 12.52,4.81 5.56,0 9.95,-1.64 13.16,-4.92 3.21,-3.28 4.82,-7.85 4.82,-13.7l0 -23.55c-5.57,5.57 -12.63,8.35 -21.19,8.35 -6.71,0 -12.81,-1.57 -18.3,-4.71 -5.5,-3.14 -9.85,-7.57 -13.06,-13.27 -3.21,-5.71 -4.82,-12.2 -4.82,-19.48l0 -23.76c0,-7.85 1.68,-14.77 5.03,-20.76 3.35,-5.99 7.99,-10.59 13.91,-13.81 5.92,-3.21 12.59,-4.81 20.01,-4.81zm0.64 81.33c5.28,0 9.56,-1.71 12.85,-5.14 3.28,-3.42 4.93,-8.2 4.93,-14.34l0 -22.26c0,-6.14 -1.68,-10.91 -5.03,-14.34 -3.35,-3.43 -7.81,-5.14 -13.38,-5.14 -5.56,0 -10.03,1.71 -13.38,5.14 -3.35,3.43 -5.03,8.2 -5.03,14.34l0 22.48c0,5.99 1.75,10.7 5.24,14.13 3.5,3.43 8.1,5.14 13.81,5.14zm111.48 -81.33c7.42,0 14.09,1.6 20.01,4.81 5.92,3.22 10.56,7.82 13.91,13.81 3.35,5.99 5.03,12.91 5.03,20.76l0 76.2c0,11.84 -3.57,21.3 -10.7,28.36 -7.14,7.07 -16.48,10.6 -28.04,10.6 -10.85,0 -19.8,-3.49 -26.86,-10.49 -7.07,-6.99 -10.88,-16.26 -11.45,-27.82l20.33 0c0.57,5.71 2.46,10.17 5.68,13.38 3.21,3.21 7.38,4.81 12.52,4.81 5.57,0 9.95,-1.64 13.16,-4.92 3.21,-3.28 4.82,-7.85 4.82,-13.7l0 -23.55c-5.57,5.57 -12.63,8.35 -21.19,8.35 -6.7,0 -12.8,-1.57 -18.3,-4.71 -5.5,-3.14 -9.85,-7.57 -13.06,-13.27 -3.21,-5.71 -4.82,-12.2 -4.82,-19.48l0 -23.76c0,-7.85 1.68,-14.77 5.03,-20.76 3.35,-5.99 7.99,-10.59 13.91,-13.81 5.92,-3.21 12.59,-4.81 20.01,-4.81zm0.64 81.33c5.28,0 9.56,-1.71 12.84,-5.14 3.28,-3.42 4.93,-8.2 4.93,-14.34l0 -22.26c0,-6.14 -1.68,-10.91 -5.03,-14.34 -3.35,-3.43 -7.81,-5.14 -13.38,-5.14 -5.56,0 -10.03,1.71 -13.38,5.14 -3.35,3.43 -5.03,8.2 -5.03,14.34l0 22.48c0,5.99 1.75,10.7 5.24,14.13 3.5,3.43 8.1,5.14 13.81,5.14zm113.62 72.99c-12.13,0 -21.76,-3.75 -28.89,-11.24 -7.14,-7.49 -10.7,-17.73 -10.7,-30.72l0 -69.78c0,-12.98 3.56,-23.29 10.7,-30.93 7.13,-7.63 16.77,-11.45 28.89,-11.45 12.28,0 21.98,3.79 29.11,11.35 7.13,7.57 10.7,17.91 10.7,31.03l0 69.78c0,12.98 -3.56,23.22 -10.7,30.72 -7.13,7.49 -16.84,11.24 -29.11,11.24zm0 -19.48c6.28,0 11.09,-1.93 14.45,-5.78 3.35,-3.85 5.03,-9.42 5.03,-16.7l0 -69.78c0,-7.28 -1.68,-12.88 -5.03,-16.8 -3.35,-3.92 -8.17,-5.89 -14.45,-5.89 -6.14,0 -10.88,1.96 -14.23,5.89 -3.35,3.92 -5.03,9.52 -5.03,16.8l0 69.78c0,7.28 1.64,12.85 4.92,16.7 3.28,3.85 8.06,5.78 14.34,5.78z"/>
   <path class="fil2" d="M3156.58 1530.04c-7.37,0 -13.98,-1.17 -19.82,-3.49 -5.88,-2.34 -10.96,-5.86 -15.23,-10.53 -4.26,-4.66 -7.45,-10.21 -9.56,-16.62 -2.1,-6.34 -3.15,-13.55 -3.15,-21.61l0 -54.8c0,-8.05 1.05,-15.27 3.15,-21.61 2.12,-6.41 5.31,-11.96 9.56,-16.62 4.27,-4.67 9.35,-8.19 15.23,-10.53 5.84,-2.32 12.46,-3.49 19.82,-3.49 7.37,0 13.99,1.17 19.82,3.49 5.88,2.34 10.96,5.86 15.23,10.53 4.25,4.66 7.45,10.22 9.56,16.62 2.1,6.35 3.15,13.56 3.15,21.61l0 54.8c0,8.06 -1.05,15.27 -3.15,21.61 -2.12,6.41 -5.31,11.95 -9.56,16.62 -4.27,4.67 -9.35,8.2 -15.23,10.53 -5.83,2.32 -12.45,3.49 -19.82,3.49zm-18.38 -7.11c5.35,2.13 11.49,3.2 18.38,3.2 6.9,0 13.03,-1.07 18.38,-3.2 5.32,-2.11 9.92,-5.3 13.78,-9.54 3.87,-4.25 6.79,-9.33 8.73,-15.21 1.97,-5.95 2.95,-12.75 2.95,-20.39l0 -54.8c0,-7.63 -0.99,-14.44 -2.95,-20.39 -1.95,-5.89 -4.86,-10.97 -8.73,-15.21 -3.86,-4.24 -8.47,-7.42 -13.78,-9.54 -5.35,-2.13 -11.48,-3.2 -18.38,-3.2 -6.89,0 -13.03,1.07 -18.38,3.2 -5.31,2.12 -9.92,5.3 -13.78,9.54 -3.87,4.24 -6.79,9.32 -8.73,15.21 -1.97,5.95 -2.95,12.76 -2.95,20.39l0 54.8c0,7.64 0.99,14.44 2.95,20.39 1.95,5.89 4.86,10.97 8.73,15.21 3.86,4.24 8.46,7.43 13.78,9.54zm18.38 -17.99c7.09,0 12.44,-2.25 16.03,-6.75 1.82,-2.28 3.21,-5.11 4.13,-8.45 0.95,-3.42 1.42,-7.41 1.42,-11.95l0 -54.8c0,-8.96 -1.85,-15.77 -5.56,-20.4 -3.6,-4.49 -8.94,-6.75 -16.03,-6.75 -7.08,0 -12.43,2.25 -16.03,6.75 -3.7,4.63 -5.56,11.44 -5.56,20.4l0 54.8c0,8.97 1.86,15.78 5.56,20.4 3.6,4.49 8.95,6.75 16.03,6.75zm19.07 -4.31c-4.39,5.48 -10.75,8.23 -19.07,8.23 -8.32,0 -14.68,-2.74 -19.07,-8.23 -4.28,-5.35 -6.43,-12.97 -6.43,-22.84l0 -54.8c0,-9.86 2.15,-17.48 6.43,-22.84 4.39,-5.49 10.75,-8.23 19.07,-8.23 8.32,0 14.68,2.75 19.07,8.23 4.28,5.36 6.43,12.97 6.43,22.84l0 54.8c0,4.87 -0.52,9.2 -1.58,12.99 -1.06,3.85 -2.69,7.14 -4.85,9.85zm106.32 29.21c-6.94,0 -13.18,-1.06 -18.7,-3.18 -5.57,-2.15 -10.41,-5.36 -14.49,-9.63 -4.09,-4.28 -7.16,-9.44 -9.19,-15.44 -2.01,-5.95 -3.03,-12.75 -3.03,-20.37l0 -61.65c0,-15.5 4.04,-27.51 12.1,-36.02 4.04,-4.27 8.87,-7.49 14.41,-9.63 5.52,-2.13 11.75,-3.19 18.69,-3.19 14.23,0 25.41,4.17 33.5,12.48 4.04,4.16 7.16,9.22 9.32,15.17 2.13,5.88 3.35,12.65 3.65,20.26l0.08 2.02 -25.27 0 -0.12 -1.83c-0.27,-4.17 -0.94,-7.79 -1.98,-10.83 -1.01,-2.94 -2.39,-5.37 -4.13,-7.23 -1.71,-1.83 -3.82,-3.23 -6.31,-4.15 -2.55,-0.95 -5.55,-1.43 -8.95,-1.43 -3.01,0 -5.69,0.5 -8.01,1.5 -2.28,0.98 -4.26,2.47 -5.91,4.43 -3.4,4.06 -5.11,10.21 -5.11,18.44l0 61.65c0,8.22 1.74,14.33 5.18,18.3 1.7,1.94 3.72,3.41 6.05,4.38 2.37,0.98 5.12,1.48 8.21,1.48 6.72,0 11.85,-1.87 15.39,-5.6 1.77,-1.87 3.2,-4.27 4.26,-7.19 1.09,-2.99 1.81,-6.56 2.15,-10.68l0.15 -1.8 25.27 0 -0.1 2.05c-0.36,7.55 -1.65,14.25 -3.84,20.09 -2.21,5.91 -5.38,10.96 -9.46,15.11 -4.09,4.17 -8.99,7.3 -14.66,9.38 -5.63,2.05 -12.03,3.09 -19.16,3.09zm-17.32 -6.83c5.07,1.94 10.85,2.91 17.32,2.91 6.69,0 12.65,-0.96 17.81,-2.84 5.13,-1.89 9.54,-4.7 13.22,-8.45 3.69,-3.76 6.56,-8.35 8.58,-13.73 1.85,-4.92 3,-10.56 3.47,-16.87l-17.56 0c-0.42,3.7 -1.16,7 -2.21,9.89 -1.25,3.44 -2.96,6.29 -5.11,8.55 -4.3,4.54 -10.38,6.82 -18.21,6.82 -3.6,0 -6.85,-0.6 -9.71,-1.79 -2.91,-1.2 -5.41,-3.02 -7.49,-5.41 -4.1,-4.72 -6.15,-11.69 -6.15,-20.87l0 -61.65c0,-9.18 2.01,-16.17 6.02,-20.95 2.05,-2.45 4.52,-4.3 7.37,-5.52 2.81,-1.21 6,-1.82 9.55,-1.82 3.86,0 7.3,0.57 10.31,1.67 3.07,1.14 5.68,2.86 7.81,5.16 2.11,2.27 3.77,5.15 4.97,8.62 1,2.91 1.69,6.25 2.05,10.02l17.54 0c-0.4,-6.39 -1.51,-12.08 -3.31,-17.05 -1.97,-5.42 -4.8,-10.02 -8.45,-13.78 -7.31,-7.52 -17.56,-11.28 -30.71,-11.28 -6.48,0 -12.25,0.98 -17.28,2.91 -5,1.93 -9.35,4.83 -13,8.68 -7.34,7.75 -11.01,18.86 -11.01,33.33l0 61.65c0,7.21 0.94,13.6 2.81,19.12 1.84,5.47 4.63,10.14 8.31,14 3.69,3.85 8.05,6.75 13.06,8.68zm185.76 -147.53l0 151.79 -25.53 0 0 -65.71 -38.47 0 0 65.71 -25.53 0 0 -153.75 25.53 0 0 63.79 38.47 0 0 -63.79 25.53 0 0 1.96zm-3.91 147.88l0 -145.92 -17.7 0 0 63.79 -46.3 0 0 -63.79 -17.71 0 0 145.92 17.71 0 0 -65.71 46.3 0 0 65.71 17.7 0zm88.18 6.7c-7.37,0 -13.98,-1.17 -19.82,-3.49 -5.88,-2.34 -10.96,-5.86 -15.23,-10.53 -4.26,-4.66 -7.45,-10.21 -9.56,-16.62 -2.1,-6.34 -3.15,-13.55 -3.15,-21.61l0 -54.8c0,-8.05 1.05,-15.27 3.15,-21.61 2.12,-6.41 5.31,-11.96 9.56,-16.62 4.27,-4.67 9.35,-8.19 15.23,-10.53 5.84,-2.32 12.46,-3.49 19.82,-3.49 7.37,0 13.99,1.17 19.82,3.49 5.88,2.34 10.96,5.86 15.23,10.53 4.25,4.66 7.45,10.22 9.56,16.62 2.1,6.35 3.15,13.56 3.15,21.61l0 54.8c0,8.06 -1.05,15.27 -3.15,21.61 -2.12,6.41 -5.31,11.95 -9.56,16.62 -4.27,4.67 -9.35,8.2 -15.23,10.53 -5.83,2.32 -12.45,3.49 -19.82,3.49zm-18.38 -7.11c5.35,2.13 11.49,3.2 18.38,3.2 6.9,0 13.03,-1.07 18.38,-3.2 5.32,-2.11 9.92,-5.3 13.78,-9.54 3.87,-4.25 6.79,-9.33 8.73,-15.21 1.97,-5.95 2.95,-12.75 2.95,-20.39l0 -54.8c0,-7.63 -0.99,-14.44 -2.95,-20.39 -1.95,-5.89 -4.86,-10.97 -8.73,-15.21 -3.86,-4.24 -8.47,-7.42 -13.78,-9.54 -5.35,-2.13 -11.48,-3.2 -18.38,-3.2 -6.89,0 -13.03,1.07 -18.38,3.2 -5.31,2.12 -9.92,5.3 -13.78,9.54 -3.87,4.24 -6.79,9.32 -8.73,15.21 -1.97,5.95 -2.95,12.76 -2.95,20.39l0 54.8c0,7.64 0.99,14.44 2.95,20.39 1.95,5.89 4.86,10.97 8.73,15.21 3.86,4.24 8.46,7.43 13.78,9.54zm18.38 -17.99c7.09,0 12.44,-2.25 16.03,-6.75 1.82,-2.28 3.21,-5.11 4.13,-8.45 0.95,-3.42 1.42,-7.41 1.42,-11.95l0 -54.8c0,-8.96 -1.85,-15.77 -5.56,-20.4 -3.6,-4.49 -8.94,-6.75 -16.03,-6.75 -7.09,0 -12.44,2.25 -16.03,6.75 -3.7,4.63 -5.56,11.44 -5.56,20.4l0 54.8c0,8.97 1.86,15.78 5.56,20.4 3.59,4.49 8.94,6.75 16.03,6.75zm19.07 -4.31c-4.39,5.48 -10.75,8.23 -19.07,8.23 -8.33,0 -14.69,-2.75 -19.07,-8.23 -4.28,-5.35 -6.43,-12.97 -6.43,-22.84l0 -54.8c0,-9.86 2.15,-17.48 6.43,-22.84 4.38,-5.48 10.75,-8.23 19.07,-8.23 8.32,0 14.68,2.75 19.07,8.23 4.28,5.36 6.43,12.97 6.43,22.84l0 54.8c0,4.87 -0.52,9.2 -1.58,12.99 -1.06,3.85 -2.69,7.14 -4.85,9.85zm136.24 -52.71c2.2,1.18 4.23,2.57 6.08,4.16 2.68,2.3 5.01,5.04 6.97,8.22 1.96,3.17 3.44,6.63 4.41,10.32 0.97,3.69 1.46,7.66 1.46,11.89 0,6.86 -1.03,13.03 -3.08,18.48 -2.06,5.49 -5.16,10.25 -9.3,14.27 -4.12,4.01 -8.95,7.03 -14.45,9.03 -5.47,1.98 -11.59,2.98 -18.37,2.98l-44.77 0 0 -153.75 42.63 0c6.29,0 11.98,0.97 17.04,2.89 5.09,1.93 9.55,4.85 13.35,8.73 3.8,3.87 6.66,8.42 8.55,13.63 1.87,5.16 2.83,10.96 2.83,17.39 0,7.42 -1.43,14.09 -4.27,20 -1.43,2.98 -3.14,5.62 -5.09,7.89 -1.22,1.42 -2.55,2.72 -3.99,3.87zm3.54 7.12c-2.38,-2.05 -5.1,-3.72 -8.11,-4.99l-3.43 -1.45 3.14 -2c2.19,-1.39 4.16,-3.1 5.88,-5.1 1.75,-2.03 3.27,-4.39 4.55,-7.04 2.57,-5.35 3.87,-11.46 3.87,-18.32 0,-5.99 -0.87,-11.35 -2.58,-16.06 -1.7,-4.66 -4.27,-8.75 -7.67,-12.22 -3.4,-3.46 -7.39,-6.08 -11.95,-7.8 -4.61,-1.75 -9.83,-2.63 -15.66,-2.63l-38.72 0 0 145.92 40.85 0c6.34,0 12.03,-0.92 17.05,-2.74 4.97,-1.81 9.34,-4.54 13.06,-8.16 3.71,-3.61 6.5,-7.9 8.36,-12.85 1.88,-5 2.82,-10.7 2.82,-17.1 0,-3.9 -0.44,-7.54 -1.33,-10.89 -0.88,-3.35 -2.2,-6.46 -3.94,-9.28 -1.74,-2.81 -3.81,-5.25 -6.19,-7.29zm-49.06 -57.27l0 39.11 15.17 0c5.98,0 10.43,-1.62 13.31,-4.85 2.94,-3.3 4.42,-8.38 4.42,-15.23 0,-3.38 -0.39,-6.3 -1.14,-8.73 -0.73,-2.35 -1.82,-4.28 -3.24,-5.76 -1.42,-1.48 -3.27,-2.61 -5.52,-3.35 -2.36,-0.78 -5.19,-1.18 -8.49,-1.18l-14.53 0zm-3.91 41.07l0 -44.98 18.44 0c3.69,0 6.94,0.47 9.72,1.39 2.87,0.96 5.24,2.41 7.1,4.35 1.84,1.93 3.24,4.37 4.15,7.3 0.87,2.84 1.32,6.14 1.32,9.89 0,7.84 -1.81,13.79 -5.42,17.83 -3.68,4.11 -9.1,6.17 -16.23,6.17l-19.08 0 0 -1.96zm20.37 64.18c7.47,0 13.03,-1.7 16.64,-5.09 3.57,-3.35 5.37,-8.51 5.37,-15.43 0,-3.54 -0.51,-6.65 -1.53,-9.32 -0.99,-2.59 -2.48,-4.79 -4.45,-6.58 -1.99,-1.8 -4.39,-3.17 -7.17,-4.08 -2.84,-0.93 -6.09,-1.4 -9.72,-1.4l-15.59 0 0 41.89 16.45 0zm19.31 -2.24c-4.37,4.09 -10.82,6.15 -19.31,6.15l-20.37 0 0 -49.72 19.51 0c4.05,0 7.71,0.53 10.94,1.6 3.28,1.07 6.14,2.72 8.56,4.91 2.43,2.2 4.27,4.91 5.49,8.08 1.2,3.11 1.8,6.68 1.8,10.7 0,8.05 -2.21,14.15 -6.62,18.28zm113.94 -3.69l-36.49 0 -6.84 30.18 -26.76 0c12.79,-51.27 25.71,-102.52 38.65,-153.75l26.38 0c12.77,51.27 25.76,102.51 38.65,153.75l-26.52 0 -7.07 -30.18zm-38.05 -3.91l41.15 0 7.07 30.18 18.41 0 -36.68 -145.92 -20.29 0 -36.68 145.92 18.63 0 6.85 -30.18 1.56 0zm32.64 -20.12l-8.86 -37.84c-1.08,-5.07 -2.1,-10.3 -3.03,-15.69l-0.93 -5.62 -1.19 7.24c-0.94,5.43 -1.88,10.12 -2.81,14.06l-8.65 37.84 25.47 0zm-5.05 -38.72l9.99 42.64 -35.31 0 9.74 -42.63c0.92,-3.92 1.85,-8.55 2.77,-13.84 0.92,-5.32 1.85,-11.36 2.77,-18.1l0.24 -1.7 4.05 0 0.23 1.7c0.78,5.66 1.63,11.16 2.55,16.47 0.92,5.34 1.92,10.49 2.98,15.46zm160.55 -58.85l0 151.79 -25.53 0 0 -65.71 -38.47 0 0 65.71 -25.53 0 0 -153.75 25.53 0 0 63.79 38.47 0 0 -63.79 25.53 0 0 1.96zm-3.91 147.88l0 -145.92 -17.71 0 0 63.79 -46.29 0 0 -63.79 -17.71 0 0 145.92 17.71 0 0 -65.71 46.29 0 0 65.71 17.71 0zm170.06 -75.44c2.2,1.18 4.23,2.57 6.08,4.16 2.68,2.3 5.01,5.04 6.97,8.22 1.96,3.17 3.44,6.63 4.41,10.32 0.97,3.69 1.46,7.66 1.46,11.89 0,6.86 -1.03,13.03 -3.08,18.48 -2.06,5.49 -5.16,10.25 -9.3,14.27 -4.12,4.01 -8.94,7.03 -14.45,9.02 -5.47,1.99 -11.59,2.99 -18.37,2.99l-44.77 0 0 -153.75 42.63 0c6.29,0 11.98,0.97 17.04,2.89 5.09,1.93 9.55,4.85 13.35,8.73 3.8,3.87 6.66,8.42 8.55,13.63 1.87,5.16 2.83,10.96 2.83,17.39 0,7.42 -1.43,14.09 -4.27,20 -1.43,2.98 -3.14,5.62 -5.09,7.89 -1.22,1.42 -2.55,2.72 -3.99,3.87zm3.54 7.12c-2.38,-2.05 -5.1,-3.72 -8.11,-4.99l-3.43 -1.45 3.14 -2c2.19,-1.39 4.16,-3.1 5.88,-5.1 1.75,-2.03 3.27,-4.39 4.55,-7.04 2.57,-5.35 3.87,-11.46 3.87,-18.32 0,-5.99 -0.87,-11.35 -2.58,-16.06 -1.7,-4.66 -4.27,-8.75 -7.67,-12.22 -3.4,-3.46 -7.39,-6.08 -11.95,-7.8 -4.61,-1.75 -9.83,-2.63 -15.66,-2.63l-38.71 0 0 145.92 40.85 0c6.35,0 12.03,-0.92 17.05,-2.74 4.98,-1.81 9.33,-4.54 13.05,-8.15 3.71,-3.61 6.5,-7.9 8.36,-12.85 1.88,-5 2.82,-10.7 2.82,-17.1 0,-3.9 -0.44,-7.54 -1.33,-10.89 -0.88,-3.35 -2.2,-6.46 -3.94,-9.28 -1.74,-2.81 -3.81,-5.25 -6.19,-7.29zm-49.06 -57.27l0 39.11 15.17 0c5.98,0 10.43,-1.62 13.31,-4.85 2.94,-3.3 4.42,-8.38 4.42,-15.23 0,-3.38 -0.39,-6.3 -1.14,-8.73 -0.73,-2.35 -1.82,-4.28 -3.24,-5.76 -1.42,-1.48 -3.27,-2.61 -5.52,-3.35 -2.36,-0.78 -5.19,-1.18 -8.49,-1.18l-14.53 0zm-3.91 41.07l0 -44.98 18.44 0c3.69,0 6.94,0.47 9.72,1.39 2.87,0.96 5.24,2.41 7.1,4.35 1.84,1.93 3.24,4.37 4.15,7.3 0.87,2.84 1.32,6.14 1.32,9.89 0,7.84 -1.81,13.79 -5.42,17.83 -3.68,4.11 -9.1,6.17 -16.23,6.17l-19.08 0 0 -1.96zm20.37 64.18c7.47,0 13.03,-1.7 16.64,-5.09 3.57,-3.35 5.37,-8.51 5.37,-15.43 0,-3.54 -0.51,-6.65 -1.53,-9.32 -0.99,-2.59 -2.48,-4.79 -4.45,-6.58 -1.99,-1.8 -4.39,-3.17 -7.17,-4.08 -2.84,-0.93 -6.09,-1.4 -9.72,-1.4l-15.59 0 0 41.89 16.45 0zm19.31 -2.24c-4.37,4.09 -10.82,6.15 -19.31,6.15l-20.37 0 0 -49.72 19.51 0c4.05,0 7.71,0.53 10.94,1.6 3.28,1.07 6.14,2.72 8.56,4.91 2.43,2.2 4.27,4.91 5.49,8.08 1.2,3.11 1.8,6.68 1.8,10.7 0,8.05 -2.21,14.15 -6.62,18.28zm661.46 -102.79l-48.13 0 0 129.28 -25.54 0 0 -153.75 75.62 0 0 24.46 -1.96 0zm-50.08 -3.91l48.13 0 0 -16.64 -67.79 0 0 145.92 17.71 0 0 -129.28 1.96 0zm124.96 135.98c-7.38,0 -13.99,-1.17 -19.83,-3.49 -5.88,-2.34 -10.97,-5.86 -15.22,-10.53 -4.26,-4.66 -7.45,-10.21 -9.56,-16.62 -2.1,-6.34 -3.15,-13.55 -3.15,-21.61l0 -54.8c0,-8.05 1.05,-15.27 3.15,-21.61 2.12,-6.41 5.31,-11.96 9.56,-16.62 4.26,-4.67 9.34,-8.19 15.22,-10.53 5.84,-2.32 12.45,-3.49 19.83,-3.49 7.37,0 13.98,1.17 19.82,3.49 5.88,2.35 10.96,5.86 15.22,10.53 8.48,9.29 12.72,22.04 12.72,38.24l0 54.8c0,16.2 -4.24,28.95 -12.72,38.24 -4.26,4.67 -9.34,8.2 -15.22,10.53 -5.83,2.32 -12.45,3.49 -19.82,3.49zm-18.39 -7.11c5.35,2.13 11.49,3.2 18.39,3.2 6.9,0 13.03,-1.07 18.38,-3.2 5.32,-2.11 9.92,-5.31 13.78,-9.54 7.79,-8.54 11.69,-20.41 11.69,-35.61l0 -54.8c0,-15.19 -3.9,-27.07 -11.69,-35.61 -3.86,-4.23 -8.46,-7.42 -13.78,-9.54 -5.36,-2.13 -11.49,-3.2 -18.38,-3.2 -6.9,0 -13.04,1.07 -18.39,3.2 -5.31,2.12 -9.92,5.31 -13.78,9.54 -3.87,4.24 -6.79,9.32 -8.73,15.21 -1.97,5.95 -2.95,12.76 -2.95,20.39l0 54.8c0,7.64 0.99,14.44 2.95,20.39 1.95,5.89 4.86,10.97 8.73,15.21 3.86,4.23 8.46,7.43 13.78,9.54zm18.39 -17.99c7.09,0 12.44,-2.25 16.03,-6.75 1.82,-2.28 3.21,-5.11 4.13,-8.45 0.95,-3.42 1.42,-7.41 1.42,-11.95l0 -54.8c0,-8.96 -1.85,-15.77 -5.56,-20.4 -3.6,-4.49 -8.94,-6.75 -16.03,-6.75 -7.09,0 -12.44,2.25 -16.04,6.75 -3.7,4.63 -5.56,11.44 -5.56,20.4l0 54.8c0,8.97 1.86,15.78 5.56,20.4 1.79,2.23 4,3.91 6.63,5.03 2.67,1.14 5.81,1.72 9.4,1.72zm19.07 -4.31c-4.39,5.48 -10.75,8.23 -19.07,8.23 -4.11,0 -7.77,-0.68 -10.94,-2.03 -3.22,-1.37 -5.94,-3.44 -8.14,-6.19 -4.28,-5.35 -6.43,-12.97 -6.43,-22.84l0 -54.8c0,-9.86 2.15,-17.48 6.43,-22.84 4.39,-5.49 10.75,-8.23 19.08,-8.23 8.32,0 14.68,2.75 19.07,8.23 4.28,5.36 6.43,12.97 6.43,22.84l0 54.8c0,4.87 -0.52,9.2 -1.58,12.99 -1.06,3.85 -2.69,7.14 -4.85,9.85zm169.06 4.35l0 47.34 -25.11 0 0 -25.04 -67.36 0 0 25.04 -25.11 0 0 -49.29 9.9 0c2.2,-2.38 4.19,-5.28 5.94,-8.67 1.94,-3.73 3.61,-8.08 5,-13.02 1.4,-4.97 2.51,-10.27 3.31,-15.87 0.81,-5.62 1.33,-11.53 1.54,-17.7l2.64 -74.25 75.97 0 0 129.5 13.27 0 0 1.96zm-3.91 43.42l0 -41.47 -13.27 0 0 -129.5 -68.29 0 -2.5 70.46c-0.21,6.36 -0.74,12.41 -1.57,18.13 -0.82,5.74 -1.97,11.21 -3.43,16.37 -1.46,5.18 -3.23,9.78 -5.29,13.74 -2.08,4.02 -4.48,7.43 -7.19,10.2l-0.58 0.6 -7.64 0 0 41.47 17.28 0 0 -25.04 75.19 0 0 25.04 17.28 0zm-34.68 -150.63l-26.56 0 -2.07 56.11c-0.43,10.98 -1.64,20.79 -3.63,29.43 -1.71,7.41 -3.99,13.99 -6.84,19.71l39.1 0 0 -105.25zm-28.44 -3.91l32.35 0 0 113.08 -49.61 0 1.64 -2.91c3.41,-6.05 6.07,-13.25 7.99,-21.58 1.93,-8.41 3.12,-17.99 3.53,-28.7l2.21 -59.88 1.88 0zm178.41 -17.8l-36.39 118.37c-1.97,6.33 -4.23,11.76 -6.78,16.23 -2.59,4.55 -5.51,8.17 -8.73,10.81 -3.24,2.67 -7.17,4.67 -11.75,5.99 -4.51,1.29 -9.68,1.95 -15.49,1.95l-7.31 0 0 -23.39 7.95 0c2.63,0 4.94,-0.35 6.89,-1.05 1.87,-0.68 3.47,-1.7 4.76,-3.05 1.35,-1.41 2.65,-3.4 3.88,-5.93 1.27,-2.61 2.47,-5.8 3.57,-9.54l1.53 -4.97 -38.38 -107.96 27.08 0 22.88 68.46 20.27 -68.46 26.79 0 -0.78 2.53zm-40.12 117.22l35.61 -115.84 -18.59 0 -22.95 77.53 -25.92 -77.53 -18.73 0 36.96 103.94 -1.9 6.17c-1.17,3.96 -2.44,7.35 -3.81,10.15 -1.4,2.88 -2.93,5.19 -4.57,6.91 -1.71,1.78 -3.8,3.13 -6.27,4.02 -2.4,0.87 -5.15,1.3 -8.2,1.3l-4.04 0 0 15.56 3.4 0c5.45,0 10.27,-0.61 14.42,-1.8 4.07,-1.17 7.53,-2.93 10.34,-5.24 2.84,-2.34 5.45,-5.59 7.81,-9.73 2.4,-4.22 4.56,-9.38 6.44,-15.45zm-842.17 -117.79l0 151.79 -24.68 0 0 -119.98 -22.47 15.84 0 -28.3 29.15 -21.31 18 0 0 1.96zm-3.91 147.88l0 -145.92 -12.82 0 -26.5 19.37 0 18.78 22.47 -15.84 0 123.6 16.85 0zm79.82 -152.19c3.84,0 7.52,0.43 11.02,1.26 3.52,0.84 6.84,2.11 9.93,3.79 3.11,1.68 5.91,3.76 8.36,6.2 2.44,2.42 4.56,5.22 6.32,8.37 1.75,3.13 3.08,6.54 3.97,10.18 0.87,3.62 1.32,7.47 1.32,11.53l0 76.2c0,6.14 -0.94,11.71 -2.8,16.66 -1.88,4.98 -4.72,9.35 -8.48,13.08 -3.77,3.73 -8.13,6.54 -13.05,8.39 -4.89,1.85 -10.36,2.78 -16.37,2.78 -5.66,0 -10.85,-0.92 -15.56,-2.76 -4.73,-1.84 -8.96,-4.62 -12.68,-8.31 -3.71,-3.68 -6.58,-7.96 -8.59,-12.84 -1.99,-4.85 -3.14,-10.28 -3.44,-16.27l-0.1 -2.05 24.15 0 0.17 1.77c0.26,2.65 0.83,5.01 1.7,7.05 0.85,2 2,3.72 3.42,5.14 1.41,1.41 3.05,2.48 4.85,3.17 1.84,0.7 3.94,1.06 6.29,1.06 2.56,0 4.82,-0.37 6.79,-1.1 1.91,-0.71 3.58,-1.8 4.98,-3.23 1.4,-1.43 2.46,-3.16 3.16,-5.16 0.73,-2.08 1.09,-4.47 1.09,-7.17l0 -19.27c-2.1,1.57 -4.38,2.84 -6.81,3.8 -3.76,1.48 -7.92,2.23 -12.43,2.23 -3.5,0 -6.87,-0.42 -10.09,-1.24 -3.23,-0.83 -6.29,-2.08 -9.18,-3.73 -2.9,-1.65 -5.51,-3.66 -7.8,-6 -2.3,-2.34 -4.3,-5.02 -5.99,-8.01 -1.68,-2.99 -2.96,-6.22 -3.8,-9.64 -0.84,-3.41 -1.27,-7.03 -1.27,-10.8l0 -23.76c0,-4.06 0.45,-7.91 1.32,-11.53 0.88,-3.65 2.21,-7.05 3.97,-10.19 1.76,-3.14 3.87,-5.94 6.32,-8.37 2.46,-2.44 5.25,-4.52 8.36,-6.2 3.1,-1.67 6.42,-2.94 9.92,-3.79 3.5,-0.84 7.19,-1.26 11.02,-1.26zm10.12 5.05c-3.16,-0.76 -6.54,-1.14 -10.12,-1.14 -3.57,0 -6.95,0.39 -10.12,1.14 -3.14,0.76 -6.14,1.91 -8.96,3.43 -2.81,1.53 -5.31,3.38 -7.48,5.53 -2.18,2.17 -4.08,4.68 -5.66,7.51 -1.59,2.85 -2.79,5.92 -3.59,9.19 -0.79,3.28 -1.2,6.83 -1.2,10.62l0 23.76c0,3.49 0.39,6.79 1.15,9.86 0.76,3.07 1.9,5.96 3.42,8.66 1.52,2.71 3.31,5.11 5.36,7.19 2.04,2.08 4.37,3.87 6.95,5.34 2.6,1.48 5.35,2.6 8.21,3.34 2.87,0.74 5.92,1.11 9.12,1.11 4.04,0 7.72,-0.66 11.01,-1.95 3.27,-1.28 6.21,-3.24 8.8,-5.82l3.34 -3.34 0 28.27c0,3.14 -0.44,5.97 -1.32,8.46 -0.9,2.54 -2.25,4.75 -4.06,6.6 -1.8,1.84 -3.95,3.24 -6.42,4.16 -2.42,0.9 -5.14,1.36 -8.15,1.36 -2.79,0 -5.36,-0.45 -7.68,-1.34 -2.35,-0.9 -4.44,-2.27 -6.23,-4.05 -1.78,-1.78 -3.21,-3.91 -4.25,-6.37 -0.82,-1.94 -1.41,-4.08 -1.77,-6.43l-16.52 0c0.41,4.75 1.41,9.06 3,12.93 1.8,4.39 4.39,8.24 7.74,11.56 3.33,3.3 7.12,5.78 11.35,7.43 4.23,1.65 8.95,2.48 14.14,2.48 5.55,0 10.55,-0.84 14.99,-2.52 4.41,-1.66 8.31,-4.18 11.67,-7.5 3.36,-3.33 5.89,-7.24 7.58,-11.69 1.7,-4.5 2.55,-9.6 2.55,-15.29l0 -76.2c0,-3.79 -0.41,-7.33 -1.2,-10.62 -0.8,-3.28 -2,-6.35 -3.59,-9.19 -1.58,-2.83 -3.48,-5.34 -5.66,-7.51 -2.17,-2.15 -4.67,-4 -7.48,-5.53 -2.84,-1.54 -5.83,-2.69 -8.96,-3.44zm-9.48 76.28c2.39,0 4.56,-0.39 6.45,-1.14 1.87,-0.75 3.55,-1.89 4.99,-3.39 1.43,-1.49 2.52,-3.31 3.25,-5.44 0.74,-2.17 1.12,-4.7 1.12,-7.55l0 -22.26c0,-2.85 -0.39,-5.37 -1.14,-7.54 -0.75,-2.12 -1.87,-3.95 -3.33,-5.44 -1.47,-1.5 -3.2,-2.64 -5.16,-3.39 -1.98,-0.77 -4.27,-1.16 -6.83,-1.16 -2.56,0 -4.84,0.39 -6.83,1.15 -1.95,0.75 -3.68,1.89 -5.16,3.4 -1.47,1.49 -2.58,3.32 -3.32,5.43 -0.76,2.17 -1.15,4.69 -1.15,7.55l0 22.48c0,2.76 0.4,5.22 1.19,7.35 0.77,2.08 1.93,3.88 3.47,5.39 1.55,1.52 3.35,2.66 5.39,3.42 2.06,0.77 4.42,1.16 7.05,1.16zm7.9 2.49c-2.38,0.95 -5.02,1.43 -7.9,1.43 -3.08,0 -5.89,-0.47 -8.41,-1.41 -2.56,-0.95 -4.82,-2.39 -6.76,-4.29 -1.95,-1.91 -3.42,-4.19 -4.4,-6.82 -0.96,-2.57 -1.44,-5.48 -1.44,-8.7l0 -22.48c0,-3.28 0.46,-6.23 1.37,-8.83 0.93,-2.66 2.34,-4.96 4.23,-6.88 1.86,-1.9 4.06,-3.34 6.55,-4.3 2.47,-0.95 5.21,-1.42 8.21,-1.42 3,0 5.74,0.48 8.21,1.42 2.49,0.94 4.68,2.38 6.56,4.3 1.88,1.92 3.3,4.23 4.23,6.87 0.91,2.61 1.37,5.56 1.37,8.84l0 22.26c0,3.28 -0.45,6.24 -1.34,8.82 -0.91,2.65 -2.29,4.95 -4.13,6.87 -1.83,1.91 -3.97,3.35 -6.35,4.31zm103.58 -83.82c3.84,0 7.52,0.43 11.02,1.26 3.53,0.84 6.84,2.11 9.93,3.79 6.25,3.4 11.16,8.26 14.68,14.57 1.75,3.14 3.08,6.54 3.97,10.19 0.87,3.62 1.32,7.47 1.32,11.53l0 76.2c0,6.14 -0.94,11.71 -2.8,16.66 -1.88,4.98 -4.72,9.35 -8.48,13.08 -3.77,3.73 -8.13,6.54 -13.05,8.39 -4.89,1.85 -10.35,2.78 -16.36,2.78 -5.66,0 -10.85,-0.92 -15.56,-2.76 -4.73,-1.84 -8.96,-4.62 -12.68,-8.31 -3.71,-3.67 -6.58,-7.96 -8.59,-12.84 -2,-4.85 -3.15,-10.28 -3.44,-16.27l-0.1 -2.05 24.15 0 0.17 1.77c0.26,2.66 0.83,5.02 1.7,7.06 0.84,1.98 1.99,3.7 3.42,5.13 2.83,2.83 6.54,4.24 11.14,4.24 2.56,0 4.83,-0.37 6.79,-1.1 1.91,-0.71 3.57,-1.8 4.98,-3.23 1.4,-1.43 2.46,-3.16 3.16,-5.17 0.73,-2.08 1.09,-4.47 1.09,-7.17l0 -19.27c-2.1,1.57 -4.38,2.84 -6.81,3.8 -3.76,1.48 -7.92,2.23 -12.43,2.23 -3.5,0 -6.87,-0.42 -10.08,-1.24 -3.23,-0.83 -6.3,-2.08 -9.19,-3.73 -2.9,-1.65 -5.51,-3.66 -7.8,-6 -2.3,-2.34 -4.3,-5.02 -5.99,-8.01 -1.68,-2.99 -2.96,-6.22 -3.8,-9.64 -0.84,-3.41 -1.27,-7.03 -1.27,-10.8l0 -23.76c0,-4.06 0.45,-7.91 1.32,-11.53 0.88,-3.65 2.21,-7.05 3.97,-10.19 3.53,-6.32 8.44,-11.19 14.68,-14.57 3.1,-1.67 6.42,-2.94 9.92,-3.79 3.5,-0.84 7.19,-1.26 11.02,-1.26zm10.11 5.05c-3.16,-0.76 -6.54,-1.14 -10.11,-1.14 -3.57,0 -6.95,0.39 -10.12,1.14 -3.14,0.76 -6.14,1.91 -8.96,3.43 -5.59,3.04 -9.99,7.4 -13.14,13.04 -1.59,2.85 -2.79,5.92 -3.59,9.19 -0.79,3.28 -1.2,6.83 -1.2,10.62l0 23.76c0,3.49 0.39,6.79 1.15,9.86 0.76,3.07 1.9,5.96 3.42,8.66 1.52,2.71 3.31,5.11 5.36,7.19 2.04,2.08 4.37,3.87 6.95,5.34 2.6,1.48 5.35,2.6 8.22,3.34 2.87,0.74 5.92,1.11 9.12,1.11 4.04,0 7.72,-0.66 11.01,-1.95 3.27,-1.28 6.21,-3.24 8.8,-5.82l3.34 -3.34 0 28.27c0,3.14 -0.44,5.97 -1.32,8.46 -0.9,2.54 -2.25,4.75 -4.06,6.6 -1.81,1.84 -3.95,3.24 -6.42,4.16 -2.42,0.9 -5.14,1.36 -8.15,1.36 -5.67,0 -10.31,-1.8 -13.9,-5.39 -1.78,-1.78 -3.21,-3.91 -4.25,-6.38 -0.82,-1.93 -1.41,-4.08 -1.77,-6.43l-16.52 0c0.41,4.75 1.41,9.06 3,12.93 1.8,4.39 4.39,8.24 7.74,11.56 3.33,3.3 7.12,5.78 11.35,7.43 4.23,1.65 8.95,2.48 14.14,2.48 5.55,0 10.54,-0.84 14.99,-2.52 4.41,-1.66 8.31,-4.17 11.67,-7.5 3.36,-3.33 5.89,-7.24 7.58,-11.69 1.7,-4.5 2.55,-9.6 2.55,-15.29l0 -76.2c0,-3.79 -0.41,-7.33 -1.2,-10.62 -0.8,-3.28 -2,-6.35 -3.59,-9.19 -3.17,-5.66 -7.56,-10.02 -13.14,-13.05 -2.84,-1.52 -5.82,-2.67 -8.97,-3.43zm-9.47 76.28c2.39,0 4.55,-0.39 6.45,-1.14 1.87,-0.75 3.54,-1.89 4.99,-3.39 1.43,-1.49 2.52,-3.31 3.25,-5.44 0.74,-2.17 1.12,-4.7 1.12,-7.55l0 -22.26c0,-2.85 -0.39,-5.37 -1.14,-7.54 -0.75,-2.12 -1.87,-3.95 -3.33,-5.44 -1.48,-1.51 -3.21,-2.65 -5.16,-3.4 -1.98,-0.76 -4.27,-1.15 -6.83,-1.15 -2.56,0 -4.84,0.39 -6.83,1.15 -1.95,0.75 -3.68,1.89 -5.16,3.4 -1.47,1.49 -2.58,3.32 -3.32,5.43 -0.76,2.17 -1.15,4.69 -1.15,7.55l0 22.48c0,2.77 0.4,5.22 1.19,7.35 0.77,2.08 1.94,3.88 3.47,5.38 1.55,1.52 3.35,2.66 5.39,3.42 2.06,0.77 4.42,1.16 7.05,1.16zm7.89 2.49c-2.38,0.95 -5.01,1.43 -7.89,1.43 -3.08,0 -5.89,-0.47 -8.41,-1.41 -2.56,-0.95 -4.82,-2.39 -6.76,-4.29 -1.95,-1.91 -3.43,-4.19 -4.4,-6.81 -0.95,-2.57 -1.43,-5.48 -1.43,-8.71l0 -22.48c0,-3.28 0.46,-6.23 1.37,-8.83 0.93,-2.66 2.34,-4.96 4.23,-6.88 1.86,-1.9 4.06,-3.34 6.55,-4.3 2.47,-0.95 5.21,-1.42 8.21,-1.42 3,0 5.75,0.48 8.21,1.42 2.5,0.96 4.69,2.4 6.55,4.3 1.88,1.92 3.3,4.23 4.23,6.87 0.91,2.61 1.37,5.56 1.37,8.84l0 22.26c0,3.28 -0.45,6.24 -1.34,8.82 -0.91,2.65 -2.29,4.95 -4.13,6.87 -1.83,1.91 -3.97,3.35 -6.35,4.31zm105.72 74.42c-6.3,0 -11.98,-0.99 -17.02,-2.95 -5.09,-1.98 -9.52,-4.95 -13.28,-8.9 -3.76,-3.95 -6.59,-8.62 -8.46,-14 -1.86,-5.33 -2.79,-11.36 -2.79,-18.06l0 -69.78c0,-6.69 0.93,-12.74 2.79,-18.11 1.87,-5.41 4.69,-10.13 8.45,-14.15 3.76,-4.03 8.2,-7.07 13.28,-9.08 5.05,-2 10.74,-3 17.04,-3 6.37,0 12.1,1 17.19,2.97 5.13,2 9.58,5 13.35,8.99 3.75,3.98 6.58,8.7 8.45,14.13 1.85,5.38 2.78,11.46 2.78,18.24l0 69.78c0,6.7 -0.93,12.73 -2.79,18.06 -1.87,5.37 -4.69,10.05 -8.45,14 -3.76,3.95 -8.21,6.92 -13.34,8.9 -5.09,1.97 -10.82,2.95 -17.19,2.95zm-15.61 -6.58c4.57,1.77 9.78,2.67 15.61,2.67 5.91,0 11.17,-0.89 15.78,-2.67 4.58,-1.77 8.56,-4.43 11.92,-7.96 3.36,-3.54 5.91,-7.75 7.59,-12.59 1.71,-4.9 2.56,-10.5 2.56,-16.78l0 -69.78c0,-6.34 -0.86,-12 -2.57,-16.97 -1.69,-4.91 -4.23,-9.16 -7.6,-12.73 -3.36,-3.56 -7.34,-6.24 -11.92,-8.03 -4.61,-1.79 -9.87,-2.7 -15.77,-2.7 -5.82,0 -11.03,0.91 -15.6,2.72 -4.55,1.8 -8.51,4.51 -11.87,8.11 -3.38,3.61 -5.92,7.87 -7.61,12.76 -1.71,4.93 -2.56,10.55 -2.56,16.83l0 69.78c0,6.28 0.85,11.88 2.56,16.78 1.68,4.85 4.23,9.06 7.6,12.59 3.36,3.53 7.33,6.19 11.87,7.96zm15.61 -16.81c5.69,0 10.02,-1.71 12.97,-5.11 1.49,-1.7 2.62,-3.83 3.37,-6.34 0.78,-2.59 1.18,-5.63 1.18,-9.07l0 -69.78c0,-6.8 -1.53,-11.98 -4.56,-15.53 -1.47,-1.72 -3.26,-3.02 -5.38,-3.87 -2.17,-0.88 -4.7,-1.33 -7.59,-1.33 -5.54,0 -9.79,1.74 -12.75,5.2 -1.49,1.74 -2.62,3.89 -3.38,6.44 -0.79,2.61 -1.18,5.65 -1.18,9.1l0 69.78c0,3.45 0.39,6.49 1.15,9.09 0.74,2.51 1.84,4.63 3.3,6.34 1.42,1.68 3.2,2.95 5.29,3.79 2.15,0.86 4.68,1.3 7.57,1.3zm15.92 -2.54c-3.73,4.3 -9.05,6.46 -15.92,6.46 -3.38,0 -6.39,-0.53 -9.02,-1.59 -2.68,-1.08 -4.96,-2.72 -6.81,-4.88 -1.82,-2.14 -3.18,-4.74 -4.08,-7.78 -0.87,-2.96 -1.31,-6.37 -1.31,-10.19l0 -69.78c0,-3.83 0.45,-7.24 1.34,-10.22 0.91,-3.06 2.3,-5.68 4.16,-7.85 3.74,-4.38 8.98,-6.57 15.72,-6.57 3.39,0 6.42,0.54 9.06,1.61 2.7,1.09 4.99,2.76 6.88,4.96 3.67,4.29 5.51,10.32 5.51,18.07l0 69.78c0,3.83 -0.45,7.24 -1.34,10.19 -0.91,3.04 -2.31,5.65 -4.18,7.79z"/>
  </g>
 </g>
</svg>
