<?xml version="1.0" encoding="UTF-8"?>
<!DOCTYPE svg PUBLIC "-//W3C//DTD SVG 1.1//EN" "http://www.w3.org/Graphics/SVG/1.1/DTD/svg11.dtd">
<!-- Creator: CorelDRAW 2021 (64-Bit) -->
<svg xmlns="http://www.w3.org/2000/svg" xml:space="preserve" width="120mm" height="46.7218mm" version="1.1" style="shape-rendering:geometricPrecision; text-rendering:geometricPrecision; image-rendering:optimizeQuality; fill-rule:evenodd; clip-rule:evenodd"
viewBox="0 0 11985.76 4666.63"
 xmlns:xlink="http://www.w3.org/1999/xlink"
 xmlns:xodm="http://www.corel.com/coreldraw/odm/2003">
 <defs>
  <style type="text/css">
   <![CDATA[
    .fil0 {fill:#2B2A29;fill-rule:nonzero}
   ]]>
  </style>
 </defs>
 <g id="Слой_x0020_1">
  <metadata id="CorelCorpID_0Corel-Layer"/>
  <path class="fil0" d="M160.84 3320.07l-160.84 0 0 1331.59 160.84 0 0 -1331.59zm10969.06 -1395.65l-372.09 -1924.42 518.44 0 84.36 1132.02 22.35 0 84.33 -1132.02 518.44 0 -372.09 1924.42 0 716.94 -483.76 0 0 -716.94zm-986.04 -565.99l-95.51 830.14 -311.3 0 -95.54 -830.14 -18.61 0 -58.31 1282.93 -499.84 0 130.25 -2641.36 576.77 0 111.61 1132.02 18.59 0 111.65 -1132.02 576.78 0 130.24 2641.36 -499.88 0 -58.32 -1282.93 -18.59 0zm-1609.95 -867.89l0 603.75 260.43 0 0 490.51 -260.43 0 0 566.03 372.06 0 0 490.53 -855.81 0 0 -2641.36 855.81 0 0 490.55 -372.06 0zm-1129.92 1603.68l0 -1547.08c0,-37.72 -18.64,-56.62 -55.82,-56.62l-100.5 0 0 1660.34 100.5 0c37.19,0 55.82,-18.91 55.82,-56.63zm-618.93 547.13l0 -2641.36 520.93 0c79.35,0 151.91,13.19 217.68,39.64 65.67,26.41 122.78,64.12 171.18,113.17 48.33,49.08 85.55,106.98 111.63,173.6 26,66.7 39.02,140.27 39.02,220.74l0 1547.08c0,80.51 -13.02,154.13 -39.02,220.77 -26.08,66.64 -63.29,124.5 -111.63,173.56 -48.39,49.03 -105.5,86.78 -171.18,113.19 -65.77,26.45 -138.34,39.61 -217.68,39.61l-520.93 0zm-749.2 -1848.93l-18.58 0 -83.63 867.89 185.84 0 -83.63 -867.89zm-123.21 1848.93l-490.74 0 260.48 -2641.36 688.38 0 260.48 2641.36 -490.76 0 -25.35 -490.5 -177.17 0 -25.33 490.5zm-2337.59 -1848.93l-18.61 0 -83.65 867.89 185.86 0 -83.6 -867.89zm-123.24 1848.93l-490.73 0 260.45 -2641.36 688.41 0 260.47 2641.36 -490.78 0 -25.3 -490.5 -177.2 0 -25.33 490.5zm1449.15 -540.04l0 -515.24 425.39 0 0 529.52c0,77.94 -13.02,149.21 -39.04,213.71 -26.04,64.49 -62.07,120.52 -107.93,167.98 -45.93,47.46 -99.26,83.92 -160,109.53 -60.81,25.58 -125.89,38.33 -195.35,38.33 -79.42,0 -151.98,-12.66 -217.7,-38.08 -65.7,-25.42 -122.76,-61.73 -171.12,-108.98 -48.39,-47.13 -85.59,-102.81 -111.65,-166.95 -26.04,-64.14 -39.07,-134.97 -39.07,-212.42l0 -1592.26c0,-77.48 13.03,-148.23 39.07,-212.36 26.06,-64.16 63.25,-119.81 111.65,-167.06 48.35,-47.14 105.41,-83.49 171.12,-108.89 65.72,-25.4 138.29,-38.15 217.7,-38.15 69.46,0 134.54,12.82 195.35,38.38 60.74,25.63 114.07,62.16 160,109.69 45.87,47.52 81.89,103.56 107.93,168.14 26.02,64.58 39.04,135.86 39.04,213.8l0 451.97 -425.39 0 0 -438.15c0,-35.48 -39.71,-53.31 -76.93,-53.31 -37.2,0 -76.92,17.83 -76.92,53.31l0 1557.49c0,35.57 39.72,53.29 76.92,53.29 37.22,0 76.93,-17.72 76.93,-53.29zm-3037.95 0l0 -515.24 425.39 0 0 529.52c0,77.94 -13.05,149.21 -39.07,213.71 -26.04,64.49 -62.05,120.52 -107.9,167.98 -45.93,47.46 -99.26,83.92 -160.02,109.53 -60.79,25.58 -125.9,38.33 -195.33,38.33 -79.42,0 -151.98,-12.66 -217.68,-38.08 -65.75,-25.42 -122.78,-61.73 -171.16,-108.98 -48.4,-47.13 -85.57,-102.81 -111.66,-166.95 -26.04,-64.14 -39.04,-134.97 -39.04,-212.42l0 -1592.26c0,-77.48 13,-148.23 39.04,-212.36 26.09,-64.16 63.25,-119.81 111.66,-167.06 48.37,-47.14 105.4,-83.49 171.16,-108.89 65.7,-25.4 138.27,-38.15 217.68,-38.15 69.43,0 134.54,12.82 195.33,38.38 60.76,25.63 114.09,62.16 160.02,109.69 45.86,47.52 81.86,103.56 107.9,168.14 26.02,64.58 39.07,135.86 39.07,213.8l0 451.97 -425.39 0 0 -438.15c0,-35.48 -39.73,-53.31 -76.93,-53.31 -37.22,0 -76.95,17.83 -76.95,53.31l0 1557.49c0,35.57 39.73,53.29 76.95,53.29 37.2,0 76.93,-17.72 76.93,-53.29zm-1400.37 -535.35l0 584.89 119.11 0c37.22,0 34.72,-18.89 34.72,-56.6l0 -471.69c0,-37.75 -18.58,-56.6 -55.82,-56.6l-98 0zm0 -490.55l79.42 0c37.2,0 55.83,-18.84 55.83,-56.58l0 -471.69c0,-37.72 -18.64,-56.6 -55.83,-56.6l-79.42 0 0 584.87zm58.32 -1075.42c74.43,0 143.24,13.21 206.47,39.64 63.25,26.41 118.47,64.14 165.63,113.19 47.09,49.08 83.74,106.96 109.75,173.58 26.09,66.66 39.07,140.27 39.07,220.74l0 433.96c0,62.88 -11.78,112.6 -35.32,149.01 -23.62,36.51 -49.02,64.78 -76.31,84.88 -32.26,22.65 -69.48,39.04 -111.61,49.08l0 18.89c49.58,10.08 92.99,30.15 130.22,60.35 34.7,27.71 65.1,66.04 91.16,115.1 26.07,49.04 39.09,116.36 39.09,201.89l0 433.94c0,80.51 -13.02,154.13 -39.09,220.72 -26.06,66.68 -63.22,124.54 -111.65,173.58 -48.35,49.05 -105.43,86.78 -171.16,113.21 -65.75,26.4 -138.32,39.59 -217.68,39.59l-539.52 0 0 -2641.36 520.93 0zm8130.2 4053.19c-26.18,-52.36 -76.68,-93.51 -149.62,-123.42l-149.61 -61.72c-52.37,-22.44 -86.03,-46.76 -102.87,-74.82 -16.83,-28.05 -24.3,-74.8 -24.3,-140.26 0,-71.07 14.95,-123.42 46.74,-158.96 24.31,-28.05 59.85,-41.14 102.87,-41.14 48.62,0 84.16,14.95 108.47,44.89 28.05,33.65 41.14,87.89 41.14,160.83l160.85 0c0,-125.31 -29.93,-215.06 -87.91,-273.05 -54.24,-50.51 -127.18,-76.68 -220.7,-76.68 -86.03,0 -157.09,26.17 -211.33,76.68 -67.33,61.71 -100.99,151.48 -100.99,273.05 0,99.11 13.09,172.07 39.28,218.82 26.17,46.75 72.93,86.03 142.13,114.08l151.49 61.71c54.24,22.44 89.77,48.63 106.6,80.42 16.83,31.79 24.31,87.9 24.31,164.57 0,87.91 -14.95,145.88 -43.03,177.67 -26.17,28.06 -63.58,43.02 -114.07,43.02 -48.63,0 -86.03,-13.08 -110.34,-41.14 -29.92,-31.79 -44.89,-89.77 -44.89,-173.92l-160.84 0c0,72.93 5.61,129.04 18.7,172.05 13.09,43.02 33.66,78.56 63.59,108.47 54.24,54.25 130.91,80.43 233.77,80.43 100.99,0 179.55,-26.19 235.65,-80.43 54.24,-54.24 82.3,-151.48 82.3,-289.87 0,-108.48 -13.09,-188.9 -37.42,-241.27zm583.51 327.3c0,52.36 -11.22,89.76 -31.79,114.07 -20.57,24.31 -46.74,35.53 -82.28,35.53 -37.41,0 -65.46,-13.08 -86.03,-41.14 -16.84,-22.44 -26.19,-56.1 -29.93,-102.86 -5.6,-46.75 -7.47,-119.7 -7.47,-218.82 0,-100.99 1.87,-173.92 7.47,-220.68 3.75,-46.75 13.09,-80.42 29.93,-100.99 20.57,-28.06 48.62,-41.14 86.03,-41.14 35.54,0 63.58,11.21 84.16,35.53 20.57,24.31 29.91,61.71 29.91,112.22l151.49 0c-5.6,-101 -31.79,-173.93 -78.54,-218.82 -44.89,-43.02 -108.47,-65.46 -188.91,-65.46 -91.64,0 -158.97,29.92 -203.86,89.76 -28.05,35.54 -46.74,86.04 -56.1,149.63 -9.35,65.45 -14.95,151.48 -14.95,259.95 0,211.34 24.31,347.87 71.06,409.58 44.89,59.85 112.22,89.77 203.86,89.77 82.29,0 145.89,-22.44 190.77,-67.33 46.74,-48.62 72.93,-121.57 76.67,-218.81l-151.49 0zm850.96 -441.38c0,-91.65 -18.71,-157.09 -57.98,-200.12 -41.14,-46.74 -95.38,-71.07 -164.57,-71.07 -37.42,0 -72.94,9.35 -104.74,29.92 -20.58,13.09 -39.27,29.93 -54.24,54.24l0 -432.02 -151.49 0 0 1331.59 151.49 0 0 -712.54c0,-43.02 11.22,-76.68 31.79,-101 20.57,-22.44 48.62,-33.65 82.29,-33.65 33.65,0 61.71,11.21 84.15,33.65 20.58,24.32 31.79,57.98 31.79,101l0 712.54 151.5 0 0 -712.54zm656.44 -181.42c-44.89,-59.84 -114.09,-89.76 -205.73,-89.76 -91.63,0 -158.96,29.92 -203.85,89.76 -28.06,35.54 -46.76,86.04 -56.11,149.63 -9.35,65.45 -14.96,151.48 -14.96,259.95 0,108.47 5.61,194.51 14.96,258.09 9.35,65.46 28.06,115.95 56.11,151.49 44.89,59.85 112.22,89.77 203.85,89.77 91.63,0 160.84,-29.92 205.73,-89.77 28.06,-35.54 46.75,-86.03 56.1,-149.62 9.35,-63.58 13.09,-149.61 13.09,-259.96 0,-110.34 -3.75,-196.37 -13.09,-259.95 -9.35,-63.59 -28.05,-114.09 -56.1,-149.63zm-119.7 731.26c-20.57,28.06 -48.63,41.14 -86.03,41.14 -35.54,0 -63.58,-13.08 -84.16,-41.14 -16.83,-22.44 -26.18,-57.97 -31.79,-104.73 -5.61,-46.75 -7.48,-119.7 -7.48,-216.95 0,-97.24 1.87,-170.18 7.48,-216.94 5.61,-46.75 14.96,-82.28 31.79,-104.73 20.58,-28.06 48.62,-41.14 84.16,-41.14 37.4,0 65.46,13.08 86.03,41.14 16.84,22.44 26.19,56.09 31.79,102.86 3.75,46.75 5.62,119.69 5.62,218.81 0,99.12 -1.88,172.07 -5.62,218.82 -5.6,46.75 -14.95,80.41 -31.79,102.86zm822.9 -731.26c-44.89,-59.84 -114.08,-89.76 -205.74,-89.76 -91.63,0 -158.96,29.92 -203.85,89.76 -28.05,35.54 -46.76,86.04 -56.1,149.63 -9.35,65.45 -14.96,151.48 -14.96,259.95 0,108.47 5.61,194.51 14.96,258.09 9.34,65.46 28.06,115.95 56.1,151.49 44.89,59.85 112.22,89.77 203.85,89.77 91.65,0 160.85,-29.92 205.74,-89.77 28.05,-35.54 46.75,-86.03 56.1,-149.62 9.35,-63.58 13.09,-149.61 13.09,-259.96 0,-110.34 -3.75,-196.37 -13.09,-259.95 -9.35,-63.59 -28.06,-114.09 -56.1,-149.63zm-119.7 731.26c-20.57,28.06 -48.62,41.14 -86.04,41.14 -35.53,0 -63.58,-13.08 -84.15,-41.14 -16.83,-22.44 -26.18,-57.97 -31.79,-104.73 -5.61,-46.75 -7.48,-119.7 -7.48,-216.95 0,-97.24 1.87,-170.18 7.48,-216.94 5.61,-46.75 14.96,-82.28 31.79,-104.73 20.57,-28.06 48.62,-41.14 84.15,-41.14 37.42,0 65.47,13.08 86.04,41.14 16.83,22.44 26.19,56.09 31.79,102.86 3.75,46.75 5.61,119.69 5.61,218.81 0,99.12 -1.87,172.07 -5.61,218.82 -5.6,46.75 -14.96,80.41 -31.79,102.86zm660.19 26.19c-95.39,0 -144,-48.63 -144,-145.88l0 -1049.19 -151.49 0 0 1054.8c0,97.25 28.05,170.2 86.03,216.95 46.75,39.27 117.82,59.84 209.46,59.84l0 -136.52zm-11063.74 -576.03c0,-91.65 -18.7,-157.09 -57.97,-200.12 -41.14,-46.74 -95.38,-71.07 -164.58,-71.07 -37.41,0 -72.94,9.35 -104.74,29.92 -26.17,16.84 -46.75,35.54 -59.85,59.85l0 -74.8 -145.87 0 0 968.76 151.48 0 0 -712.54c0,-43.02 11.23,-74.81 31.79,-99.12 20.58,-22.44 48.63,-33.67 82.29,-33.67 33.66,0 61.72,11.23 84.16,33.67 20.58,24.31 31.79,56.1 31.79,99.12l0 712.54 151.49 0 0 -712.54zm547.98 576.03c-102.86,0 -155.24,-48.63 -155.24,-145.88l0 -568.54 149.61 0 0 -117.82 -149.61 0 0 -265.57 -151.48 0 0 265.57 -110.35 0 0 117.82 110.35 0 0 574.15c0,99.13 28.06,170.2 84.15,216.95 46.76,39.27 121.57,59.84 222.57,59.84l0 -136.52zm647.09 -613.44c-11.22,-69.19 -33.66,-123.42 -69.2,-158.96 -46.75,-50.49 -110.34,-74.81 -190.75,-74.81 -80.42,0 -144.01,24.32 -190.77,74.81 -33.66,35.54 -56.1,87.91 -67.33,153.36 -11.22,67.33 -16.82,157.09 -16.82,271.18 0,112.22 5.6,201.99 18.7,269.32 11.22,67.32 33.66,119.69 67.33,155.23 46.74,50.5 110.34,74.81 192.63,74.81 80.41,0 144.01,-24.31 190.76,-71.07 50.49,-54.25 76.68,-125.31 78.54,-215.07l-151.47 0c0,50.49 -11.24,87.9 -31.8,112.21 -20.58,24.31 -50.5,37.41 -86.03,37.41 -39.27,0 -67.33,-13.09 -86.04,-41.15 -26.17,-33.66 -39.26,-129.04 -39.26,-286.14l398.35 0c0,-130.91 -5.6,-231.9 -16.83,-301.11zm-381.52 187.03c0,-132.78 13.09,-215.07 37.4,-245 20.58,-26.18 48.63,-39.26 84.17,-39.26 37.4,0 65.44,13.08 86.03,39.26 24.3,29.92 37.4,112.22 37.4,245l-244.99 0zm946.33 -420.8c-59.84,0 -112.22,16.83 -158.96,48.62 -31.79,20.59 -54.24,44.89 -67.33,69.21l0 -102.86 -145.88 0 0 968.76 151.48 0 0 -660.18c0,-54.24 16.84,-99.13 48.63,-130.92 31.79,-31.79 74.81,-46.74 127.17,-46.74l44.89 0 0 -145.89zm669.54 271.19c0,-91.65 -18.71,-157.09 -57.98,-200.12 -41.14,-46.74 -95.38,-71.07 -164.57,-71.07 -37.41,0 -72.94,9.35 -104.74,29.92 -26.18,16.84 -46.75,35.54 -59.85,59.85l0 -74.8 -145.88 0 0 968.76 151.49 0 0 -712.54c0,-43.02 11.23,-74.81 31.79,-99.12 20.58,-22.44 48.62,-33.67 82.3,-33.67 33.65,0 61.71,11.23 84.15,33.67 20.58,24.31 31.79,56.1 31.79,99.12l0 712.54 151.49 0 0 -712.54zm701.33 9.35c0,-87.91 -26.18,-158.97 -76.68,-213.21 -44.88,-44.89 -108.46,-67.33 -188.89,-67.33 -76.68,0 -140.26,24.32 -187.03,71.07 -50.49,50.5 -74.8,117.82 -74.8,205.73l151.48 0c0,-50.49 11.23,-87.91 35.54,-112.21 20.58,-20.58 46.76,-31.79 74.81,-31.79 76.68,0 114.07,46.74 114.07,138.4l0 153.36 -99.12 0c-87.89,0 -155.22,22.44 -205.73,65.45 -57.96,50.5 -86.03,123.44 -86.03,218.82 0,97.25 20.58,170.19 61.72,216.94 43.03,48.63 99.12,72.94 166.45,72.94 44.89,0 82.29,-11.23 114.08,-35.54 22.44,-18.7 41.14,-41.14 56.11,-65.46l0 86.03 144 0 0 -703.19zm-185.14 542.37c-22.44,28.05 -52.38,43.01 -87.92,43.01 -78.54,0 -117.82,-54.24 -117.82,-162.7 0,-61.73 14.96,-104.75 44.89,-132.8 24.31,-24.3 61.73,-35.53 108.47,-35.53l86.03 0 0 179.55c0,44.88 -11.21,80.41 -33.65,108.47zm733.13 24.31c-102.87,0 -155.24,-48.63 -155.24,-145.88l0 -568.54 149.61 0 0 -117.82 -149.61 0 0 -265.57 -151.48 0 0 265.57 -110.36 0 0 117.82 110.36 0 0 574.15c0,99.13 28.05,170.2 84.15,216.95 46.76,39.27 121.57,59.84 222.57,59.84l0 -136.52zm295.48 -832.24l-151.48 0 0 968.76 151.48 0 0 -968.76zm13.09 -347.88l-177.66 0 0 175.8 177.66 0 0 -175.8zm650.85 422.68c-44.89,-59.85 -114.09,-89.77 -205.73,-89.77 -91.64,0 -158.97,29.92 -203.86,89.77 -28.05,35.53 -46.76,86.03 -56.11,149.62 -9.35,65.45 -14.95,151.48 -14.95,259.95 0,108.47 5.6,194.51 14.95,258.09 9.35,65.46 28.07,115.95 56.11,151.49 44.89,59.85 112.22,89.77 203.86,89.77 91.63,0 160.84,-29.92 205.73,-89.77 28.05,-35.54 46.74,-86.03 56.09,-149.62 9.35,-63.58 13.09,-149.61 13.09,-259.96 0,-110.34 -3.75,-196.37 -13.09,-259.95 -9.35,-63.59 -28.05,-114.09 -56.09,-149.62zm-119.7 731.25c-20.58,28.06 -48.63,41.15 -86.03,41.15 -35.54,0 -63.59,-13.09 -84.17,-41.15 -16.82,-22.44 -26.17,-57.97 -31.79,-104.73 -5.6,-46.75 -7.47,-119.7 -7.47,-216.95 0,-97.24 1.87,-170.18 7.47,-216.94 5.62,-46.75 14.97,-82.28 31.79,-104.73 20.58,-28.06 48.63,-41.14 84.17,-41.14 37.4,0 65.45,13.08 86.03,41.14 16.83,22.44 26.18,56.09 31.79,102.86 3.74,46.75 5.61,119.7 5.61,218.81 0,99.12 -1.88,172.07 -5.61,218.82 -5.61,46.75 -14.96,80.41 -31.79,102.86zm905.18 -549.84c0,-91.65 -18.71,-157.09 -57.98,-200.12 -41.14,-46.74 -95.38,-71.07 -164.57,-71.07 -37.41,0 -72.94,9.35 -104.74,29.92 -26.18,16.84 -46.75,35.54 -59.85,59.85l0 -74.8 -145.87 0 0 968.76 151.48 0 0 -712.54c0,-43.02 11.23,-74.81 31.79,-99.12 20.58,-22.44 48.62,-33.67 82.29,-33.67 33.66,0 61.72,11.23 84.16,33.67 20.58,24.31 31.79,56.1 31.79,99.12l0 712.54 151.49 0 0 -712.54zm701.33 9.35c0,-87.91 -26.18,-158.97 -76.68,-213.21 -44.88,-44.89 -108.47,-67.33 -188.89,-67.33 -76.68,0 -140.26,24.32 -187.03,71.07 -50.49,50.5 -74.8,117.82 -74.8,205.73l151.48 0c0,-50.49 11.23,-87.91 35.54,-112.21 20.58,-20.58 46.75,-31.79 74.81,-31.79 76.68,0 114.08,46.74 114.08,138.4l0 153.36 -99.12 0c-87.91,0 -155.23,22.44 -205.74,65.45 -57.96,50.5 -86.03,123.44 -86.03,218.82 0,97.25 20.58,170.19 61.73,216.94 43.02,48.63 99.11,72.94 166.44,72.94 44.9,0 82.29,-11.23 114.08,-35.54 22.44,-18.7 41.14,-41.14 56.11,-65.46l0 86.03 144 0 0 -703.19zm-185.15 542.37c-22.44,28.05 -52.36,43.01 -87.9,43.01 -78.55,0 -117.83,-54.24 -117.83,-162.7 0,-61.73 14.96,-104.75 44.89,-132.8 24.31,-24.3 61.72,-35.53 108.48,-35.53l86.03 0 0 179.55c0,44.88 -11.23,80.41 -33.67,108.47zm678.9 24.31c-95.4,0 -144.02,-48.63 -144.02,-145.88l0 -1049.19 -151.48 0 0 1054.8c0,97.25 28.05,170.2 86.03,216.95 46.75,39.27 117.82,59.84 209.47,59.84l0 -136.52z"/>
 </g>
</svg>
