<?xml version="1.0" encoding="UTF-8"?>
<!DOCTYPE svg PUBLIC "-//W3C//DTD SVG 1.1//EN" "http://www.w3.org/Graphics/SVG/1.1/DTD/svg11.dtd">
<!-- Creator: CorelDRAW 2021 (64-Bit) -->
<svg xmlns="http://www.w3.org/2000/svg" xml:space="preserve" width="49.9575mm" height="38.5837mm" version="1.1" style="shape-rendering:geometricPrecision; text-rendering:geometricPrecision; image-rendering:optimizeQuality; fill-rule:evenodd; clip-rule:evenodd"
viewBox="0 0 4983.51 3848.92"
 xmlns:xlink="http://www.w3.org/1999/xlink"
 xmlns:xodm="http://www.corel.com/coreldraw/odm/2003">
 <defs>
  <style type="text/css">
   <![CDATA[
    .fil0 {fill:#FEFEFC;fill-rule:nonzero}
   ]]>
  </style>
 </defs>
 <g id="Слой_x0020_1">
  <metadata id="CorelCorpID_0Corel-Layer"/>
  <path class="fil0" d="M1730.77 26.38c103.02,-29.95 211.3,-25.12 317.49,-25.96 134.47,1.7 272.31,-10.55 402.56,31.87 483.19,126.88 891.86,536.6 982.22,1032.26 -221.43,-2.95 -443.09,4.63 -664.52,-3.8 -90.15,-204.97 -274.01,-366.04 -490.38,-424.73 -330.78,-97.73 -714.76,71.97 -862.33,384.21 -143.54,277.37 -68.38,641.5 167.62,844.38 179.43,161.47 440.77,230.73 675.29,168.89 234.1,-55.31 439.72,-230.53 519.08,-459.34 221.46,-6.34 443.51,-2.35 665.17,-2.12 -50.26,290.27 -208.99,557.51 -427.68,753.18 -293.62,265.77 -705.07,395.17 -1097.9,346.19 -289.84,-32.29 -568.47,-158.73 -782.95,-356.74 -225.45,-204.35 -379.34,-487.4 -423.03,-789.28 -49.19,-328.04 31.01,-673.83 221.86,-945.71 187.04,-273.15 477.07,-471.59 797.51,-553.29zm-1730.77 49.4c214.89,0.23 429.98,-1.47 644.92,0.86 0.39,51.49 0.62,103.02 1.47,154.74 -209.64,264.5 -431.06,519.49 -639.21,785.04l-7.17 -18.77 0 -921.87zm3464.28 -0.42c214.05,1.5 428.3,-2.09 642.57,1.9 0,629.93 -0.42,1260.04 0.2,1889.96 291.53,0.2 583.27,-1.27 874.8,0.83l0 7.17c-164.44,199.71 -323.21,404.46 -489.55,602.67 -342.61,-2.31 -685.42,-0.62 -1028.03,-0.82 -2.11,-833.83 -1.9,-1667.87 0,-2501.71zm-3464.28 1236.61c219.13,-255.87 422.83,-524.58 644.92,-777.69 0.82,680.58 1.05,1361.16 0,2041.51 -214.93,2.09 -430.02,0.86 -644.92,0.86l0 -1264.67zm0 2017c44.53,-119.91 206.46,-146.29 306.72,-84.21 59.53,39.67 58.06,116.73 59.12,180.25 -39.27,0.23 -78.33,0.23 -117.58,0.45 -6.75,-40.55 0.42,-105.33 -57.63,-107.66 -73.48,-15.21 -97.54,98.16 -38.86,127.09 69.68,36.29 158.54,45.16 207.95,112.92 65.86,104.69 14.98,264.07 -112.1,291.11l-115.67 0c-61,-16.92 -110.41,-61.03 -131.95,-121.18l0 -101.33c39.89,3.37 80.22,3.37 120.1,2.52 1.5,48.13 2.34,119.91 68.41,118.23 82.97,11.82 103.65,-116.1 31.87,-142.5 -82.1,-39.47 -197.37,-56.98 -220.38,-162.12l0 -113.57zm684.17 -111.66c111.87,-6.32 224.17,-2.11 336.26,-3.59 0.86,34.4 1.48,68.81 2.32,103.43 -69.23,1.7 -138.26,1.7 -207.29,1.27 -0.23,50.46 -0.23,100.91 0,151.36 61.43,-2.74 122.85,-2.11 184.3,2.32 -0.45,32.51 -0.65,65.23 -0.88,97.95 -61.19,2.09 -122.2,2.32 -183.42,1.9 -0.23,58.49 -0.23,116.74 -0.23,175.22 71.57,-0.22 143.13,-0.22 214.7,0.83 0.2,33.57 0.42,67.14 0.42,100.93l-346 0c0.43,-210.69 0.65,-421.15 -0.19,-631.61zm652.5 0.83c89.27,-5.27 179,-8.23 268.28,-0.4 89.94,8.86 156.42,100.25 146.49,188.71 5.94,74.92 -49.6,131.93 -105.74,172.03 48.76,89.51 93.72,181.36 143.76,270.45l-145.45 0c-47.05,-80.86 -78.73,-169.94 -128.14,-249.52 -11.39,-2.12 -33.99,-6.36 -45.36,-8.46 -0.65,85.92 -0.23,172.06 -0.23,257.98l-132.56 0c-0.43,-210.26 1.47,-420.52 -1.05,-630.78zm133.84 99.66c-0.45,58.46 -0.45,116.93 -0.23,175.62 63.32,9.5 154.1,-6.11 153.25,-87.58 3.79,-83.82 -89.28,-97.54 -153.02,-88.03zm568.25 -104.29c43.06,0.42 86.11,1.47 129.18,2.97 32.72,162.32 73.04,323.18 104.92,485.93 43.06,-161.05 72.61,-325.5 111.68,-487.82 42.22,-0.23 84.43,0 126.63,0.82 -49.8,211.3 -99.63,422.83 -152.18,633.52l-174.59 0c-37.56,-213.85 -100.25,-422.84 -145.64,-635.42zm756.99 635.42c3.79,-212.16 -3.82,-424.54 3.79,-636.47 43.69,1.05 87.61,1.9 131.3,2.74 1.48,211.11 0.43,422.39 0.65,633.72l-135.74 0zm461.02 -488.28c26.81,-148.42 240.43,-196.32 340.08,-91.82 48.76,52.12 45.4,127.71 49.61,193.99 -40.95,1.9 -82.13,3.59 -123.08,4.85 -4.01,-40.53 -3.79,-82.76 -19.2,-120.96 -34.42,-52.34 -123.3,-28.05 -124.53,35.26 -7.61,99.41 -6.34,199.91 -1.08,299.34 1.27,56.99 75.58,85.91 117.38,48.75 35.04,-39.25 19.4,-97.53 25.55,-145.01 40.94,0 81.89,0 123.07,0.42 12.25,106.6 -19,244.03 -143.78,263.46l-115.04 0c-72.4,-23.87 -128.33,-88.46 -130.88,-166.15 -3.37,-107.24 -6.33,-215.11 1.9,-322.13zm694.71 -144.17c110.84,-5.07 222.08,-1.51 333.11,-2.55 0.42,34.84 0.85,69.66 1.05,104.49 -68.38,0 -136.56,0 -204.98,-0.19 -0.42,50.45 -0.19,100.87 0.43,151.55 61.42,-1.67 123.08,-1.67 184.72,0 0.2,33.57 0.63,67.35 0.63,100.9 -61.85,1.27 -123.7,1.27 -185.54,1.05 -0.65,58.48 -0.85,116.96 -0.42,175.44 71.96,-0.42 144.17,-0.42 216.36,1.05 0.2,33.57 0.43,67.14 0.63,100.71l-345.98 0c0,-210.88 0,-421.56 0,-632.45zm662.62 79.57c54.05,-88.88 179.24,-99.44 268.09,-63.76 74.52,32.29 83.18,121.37 82.33,192.32 -40.53,0.21 -81.05,0.4 -121.37,0.63 -5.27,-39.67 3.16,-101.75 -52.15,-106.39 -84.21,-21.75 -102.37,116.09 -26.58,134.47 120.94,44.71 219.09,60.85 219.09,207.51 0,98.85 -35.85,153.86 -135.7,188.1l-115.7 0c-39.67,-13.75 -82.12,-30.21 -106.19,-66.94 -32.72,-43.69 -23.83,-101.76 -28.48,-152.83 40.1,0 80.2,0 120.3,0.43 6.56,41.8 -5.26,107.24 52.57,115.47 70.51,21.75 118.86,-64.59 75.99,-118.64 -66.49,-59.32 -175.2,-53.82 -227.34,-132.56 -30.6,-59.95 -34.42,-136.79 -4.87,-197.79z"/>
 </g>
</svg>
