<?xml version="1.0" encoding="UTF-8"?>
<!DOCTYPE svg PUBLIC "-//W3C//DTD SVG 1.1//EN" "http://www.w3.org/Graphics/SVG/1.1/DTD/svg11.dtd">
<!-- Creator: CorelDRAW 2021 (64-Bit) -->
<svg xmlns="http://www.w3.org/2000/svg" xml:space="preserve" width="300.027mm" height="120.816mm" version="1.1" style="shape-rendering:geometricPrecision; text-rendering:geometricPrecision; image-rendering:optimizeQuality; fill-rule:evenodd; clip-rule:evenodd"
viewBox="0 0 29998.66 12080.03"
 xmlns:xlink="http://www.w3.org/1999/xlink"
 xmlns:xodm="http://www.corel.com/coreldraw/odm/2003">
 <defs>
  <style type="text/css">
   <![CDATA[
    .fil0 {fill:#009CA3;fill-rule:nonzero}
   ]]>
  </style>
 </defs>
 <g id="Слой_x0020_1">
  <metadata id="CorelCorpID_0Corel-Layer"/>
  <path id="LOGO2" class="fil0" d="M1398.62 2820.48c198.88,-1.29 373.22,-27.77 521.74,-80.07 147.87,-52.95 277.65,-125.27 387.43,-216.96 110.42,-91.7 207.92,-196.3 291.86,-315.11l-565.64 -402.93c-53.59,66.5 -109.78,123.97 -167.89,173.05 -58.76,49.07 -123.97,87.82 -196.29,114.93 -71.68,27.13 -154.33,40.68 -247.96,41.33 -95.57,-0.65 -182.74,-19.38 -261.52,-56.18 -78.78,-36.81 -146.58,-87.82 -204.69,-153.68 -57.47,-65.86 -102.03,-142.06 -133.02,-229.87 -31.64,-87.82 -47.13,-182.75 -47.78,-284.76 0.65,-101.38 16.15,-195.65 47.78,-283.47 31,-87.17 75.55,-164.01 133.02,-229.88 58.11,-65.86 125.91,-117.51 204.69,-154.97 78.78,-36.81 165.95,-55.53 261.52,-56.17 128.49,0.64 241.5,29.06 337.7,83.94 96.22,55.53 182.74,131.72 258.94,229.88l550.15 -426.17c-79.42,-112.36 -172.41,-211.15 -278.94,-297.03 -106.55,-85.88 -230.53,-153.04 -371.94,-202.11 -141.41,-48.42 -304.13,-73.61 -488.15,-74.25 -164.66,0.64 -319.63,23.89 -464.27,71.02 -144.64,46.49 -275.72,112.36 -393.89,197.59 -118.16,85.23 -219.55,186.62 -304.78,303.49 -85.24,117.51 -151.1,246.66 -196.94,388.07 -45.84,141.41 -69.09,291.22 -69.74,450.07 0.65,164.01 24.54,317.69 71.03,460.39 47.13,143.35 113,273.14 198.23,389.37 85.24,116.23 185.97,215.67 302.2,299.61 116.22,83.3 244.73,147.87 384.2,192.42 139.47,45.2 287.34,67.8 442.96,68.45zm2886.35 0c167.89,-0.65 326.09,-24.54 473.96,-71.68 147.87,-47.78 282.18,-114.28 402.93,-200.17 121.39,-86.52 225.35,-188.54 313.17,-305.42 87.82,-117.52 154.98,-246.67 202.76,-387.43 47.13,-140.77 71.02,-289.28 71.67,-445.54 -0.65,-158.2 -23.9,-307.37 -71.03,-448.78 -47.13,-141.41 -113.64,-270.55 -200.81,-387.43 -86.53,-116.87 -190.48,-218.25 -310.59,-304.13 -120.1,-85.88 -253.77,-151.74 -401.64,-198.88 -147.22,-46.48 -304.78,-70.38 -472.67,-71.02 -167.89,0.64 -326.09,24.54 -473.31,71.67 -147.87,47.78 -282.82,114.29 -403.58,200.17 -121.39,86.53 -225.35,187.9 -313.17,305.42 -87.82,117.52 -154.97,246.67 -202.11,387.43 -47.78,140.77 -71.67,289.28 -72.32,445.55 0.65,158.2 24.54,307.36 71.03,448.77 47.13,141.41 113.64,270.55 200.82,387.43 86.52,116.87 190.48,218.25 310.59,304.13 120.09,85.88 254.41,151.75 401.63,198.88 147.23,46.49 304.78,70.38 472.67,71.03zm7.75 -678c-103.32,-0.65 -196.94,-20.67 -281.53,-59.41 -84.59,-38.74 -157.55,-92.34 -218.9,-160.14 -61.98,-67.8 -109.13,-145.28 -142.7,-233.1 -32.93,-87.82 -49.71,-180.81 -50.36,-279.59 0.65,-100.74 16.79,-195.01 49.07,-282.82 32.94,-87.82 79.42,-165.96 140.12,-233.11 60.05,-67.15 132.37,-120.1 216.31,-158.2 83.95,-38.09 177.58,-57.47 280.24,-58.11 103.97,0.64 198.88,20.66 284.11,59.4 85.24,38.74 158.21,92.34 220.19,160.14 61.34,67.8 109.13,145.29 142.7,233.1 32.94,87.82 50.37,180.81 50.37,279.6 0,100.73 -16.79,195 -49.07,282.82 -32.94,87.82 -79.43,165.95 -140.12,233.1 -60.7,67.16 -133.02,120.1 -217.61,158.2 -84.59,38.1 -178.86,57.47 -282.82,58.12zm3211.79 678c167.89,-0.65 326.09,-24.54 473.96,-71.68 147.87,-47.78 282.18,-114.28 402.93,-200.17 121.39,-86.52 225.35,-188.54 313.17,-305.42 87.82,-117.52 154.98,-246.67 202.76,-387.43 47.13,-140.77 71.02,-289.28 71.67,-445.54 -0.65,-158.2 -23.9,-307.37 -71.03,-448.78 -47.13,-141.41 -113.64,-270.55 -200.81,-387.43 -86.53,-116.87 -190.48,-218.25 -310.59,-304.13 -120.1,-85.88 -253.77,-151.74 -401.64,-198.88 -147.22,-46.48 -304.78,-70.38 -472.67,-71.02 -167.89,0.64 -326.09,24.54 -473.31,71.67 -147.87,47.78 -282.82,114.29 -403.58,200.17 -121.39,86.53 -225.35,187.9 -313.17,305.42 -87.82,117.52 -154.97,246.67 -202.11,387.43 -47.78,140.77 -71.67,289.28 -72.32,445.55 0.65,158.2 24.54,307.36 71.03,448.77 47.13,141.41 113.64,270.55 200.82,387.43 86.52,116.87 190.48,218.25 310.59,304.13 120.09,85.88 254.41,151.75 401.63,198.88 147.23,46.49 304.78,70.38 472.67,71.03zm7.75 -678c-103.32,-0.65 -196.94,-20.67 -281.53,-59.41 -84.59,-38.74 -157.55,-92.34 -218.9,-160.14 -61.98,-67.8 -109.13,-145.28 -142.7,-233.1 -32.93,-87.82 -49.71,-180.81 -50.36,-279.59 0.65,-100.74 16.79,-195.01 49.07,-282.82 32.94,-87.82 79.42,-165.96 140.12,-233.11 60.05,-67.15 132.37,-120.1 216.31,-158.2 83.95,-38.09 177.58,-57.47 280.24,-58.11 103.97,0.64 198.88,20.66 284.11,59.4 85.24,38.74 158.21,92.34 220.19,160.14 61.34,67.8 109.13,145.29 142.7,233.1 32.94,87.82 50.37,180.81 50.37,279.6 0,100.73 -16.79,195 -49.07,282.82 -32.94,87.82 -79.43,165.95 -140.12,233.1 -60.7,67.16 -133.02,120.1 -217.61,158.2 -84.59,38.1 -178.86,57.47 -282.82,58.12zm1848.04 623.76l1313.38 0c160.14,0 304.78,-20.02 433.92,-59.4 128.49,-40.03 238.91,-97.51 330.61,-173.7 91.69,-76.2 162.07,-168.54 211.15,-278.3 49.07,-109.78 73.61,-235.05 74.25,-375.81 -0.64,-145.93 -27.77,-273.78 -82,-382.91 -53.6,-109.13 -129.14,-200.17 -226.65,-272.49 -98.15,-72.32 -213.09,-126.56 -344.81,-162.08 -132.37,-36.16 -277.65,-54.23 -435.21,-54.23l-523.03 0 0 -313.82 1429.62 0 0 -639.26 -2181.23 0 0 2712.01zm751.61 -631.51l0 -561.78 507.53 0c111.07,1.29 197.59,25.83 258.94,74.9 61.98,49.07 92.98,115.58 93.63,200.17 -0.65,92.99 -32.29,164.66 -93.63,213.08 -61.99,49.08 -149.81,73.62 -262.8,73.62l-503.66 0zm5342.66 1173.9l635.39 0 85.23 -1201.03 -306.07 0 0 -2053.38 -751.61 0 0 2053.38 -770.99 0 0 -2053.38 -751.61 0 0 2053.38 -770.99 0 0 -2053.38 -751.61 0 0 2712.01 3382.26 0 0 542.4zm976.32 -542.4l2200.6 0 0 -639.25 -1456.74 0 0 -430.05 1301.77 0 0 -592.76 -1301.77 0 0 -410.68 1437.37 0 0 -639.26 -2181.23 0 0 2712.01zm3889.79 54.24c198.88,-1.29 373.22,-27.77 521.74,-80.07 147.87,-52.95 277.65,-125.27 387.43,-216.96 110.42,-91.7 207.92,-196.3 291.86,-315.11l-565.64 -402.93c-53.59,66.5 -109.78,123.97 -167.89,173.05 -58.76,49.07 -123.97,87.82 -196.29,114.93 -71.68,27.13 -154.33,40.68 -247.96,41.33 -95.57,-0.65 -182.74,-19.38 -261.52,-56.18 -78.78,-36.81 -146.58,-87.82 -204.69,-153.68 -57.47,-65.86 -102.03,-142.06 -133.02,-229.87 -31.64,-87.82 -47.13,-182.75 -47.78,-284.76 0.65,-101.38 16.15,-195.65 47.78,-283.47 31,-87.17 75.55,-164.01 133.02,-229.88 58.11,-65.86 125.91,-117.51 204.69,-154.97 78.78,-36.81 165.95,-55.53 261.52,-56.17 128.49,0.64 241.5,29.06 337.7,83.94 96.22,55.53 182.74,131.72 258.94,229.88l550.15 -426.17c-79.42,-112.36 -172.41,-211.15 -278.94,-297.03 -106.55,-85.88 -230.53,-153.04 -371.94,-202.11 -141.41,-48.42 -304.13,-73.61 -488.15,-74.25 -164.66,0.64 -319.63,23.89 -464.27,71.02 -144.64,46.49 -275.72,112.36 -393.89,197.59 -118.16,85.23 -219.55,186.62 -304.78,303.49 -85.24,117.51 -151.1,246.66 -196.94,388.07 -45.84,141.41 -69.09,291.22 -69.74,450.07 0.65,164.01 24.54,317.69 71.03,460.39 47.13,143.35 113,273.14 198.23,389.37 85.24,116.23 185.97,215.67 302.2,299.61 116.22,83.3 244.73,147.87 384.2,192.42 139.47,45.2 287.34,67.8 442.96,68.45zm2185.1 -54.24l751.61 0 0 -2053.38 813.6 0 0 -658.63 -2378.81 0 0 658.63 813.6 0 0 2053.38zm1894.53 0l1398.61 0c216.32,-0.65 401,-31 554.03,-90.4 152.39,-60.05 269.26,-145.29 350.62,-257 80.72,-111.07 121.39,-244.73 122.04,-400.35 -0.65,-124.62 -22.6,-229.87 -66.51,-317.05 -43.9,-86.52 -105.9,-158.2 -185.97,-215.02 -80.07,-56.82 -175.64,-102.67 -286.05,-138.18 80.72,-34.87 152.39,-78.78 215.02,-133.66 63.28,-54.24 112.36,-120.1 148.52,-197.59 36.16,-78.13 54.23,-169.18 54.88,-273.13 -0.65,-96.86 -16.14,-181.45 -46.49,-255.06 -30.35,-72.97 -72.96,-136.89 -127.85,-190.48 -78.77,-79.43 -179.51,-140.12 -301.55,-181.45 -122.03,-41.33 -268.61,-62.64 -438.43,-62.64l-1390.87 0 0 2712.01zm732.24 -604.39l0 -499.78 573.39 0c125.26,0.64 218.25,23.25 278.3,66.51 60.7,43.9 90.4,102.67 89.76,177.57 -0.65,83.3 -32.29,147.22 -94.28,190.48 -61.99,43.26 -151.1,65.22 -266.03,65.22l-581.14 0zm0 -1026.69l0 -476.54 488.15 0c112.36,0.65 197.59,20.67 255.07,60.7 56.82,40.67 85.88,97.5 85.88,171.76 -0.65,83.3 -31,144.64 -92.34,184.68 -61.34,40.03 -149.16,59.4 -264.1,59.4l-472.66 0zm3401.63 1685.33c167.89,-0.65 326.09,-24.54 473.96,-71.68 147.87,-47.78 282.18,-114.28 402.93,-200.17 121.39,-86.52 225.35,-188.54 313.17,-305.42 87.82,-117.52 154.98,-246.67 202.76,-387.43 47.13,-140.77 71.02,-289.28 71.67,-445.54 -0.65,-158.2 -23.9,-307.37 -71.03,-448.78 -47.13,-141.41 -113.64,-270.55 -200.81,-387.43 -86.53,-116.87 -190.48,-218.25 -310.59,-304.13 -120.1,-85.88 -253.77,-151.74 -401.64,-198.88 -147.22,-46.48 -304.78,-70.38 -472.67,-71.02 -167.89,0.64 -326.09,24.54 -473.31,71.67 -147.87,47.78 -282.82,114.29 -403.58,200.17 -121.39,86.53 -225.35,187.9 -313.17,305.42 -87.82,117.52 -154.97,246.67 -202.11,387.43 -47.78,140.77 -71.67,289.28 -72.32,445.55 0.65,158.2 24.54,307.36 71.03,448.77 47.13,141.41 113.64,270.55 200.82,387.43 86.52,116.87 190.48,218.25 310.59,304.13 120.09,85.88 254.41,151.75 401.63,198.88 147.23,46.49 304.78,70.38 472.67,71.03zm7.75 -678c-103.32,-0.65 -196.94,-20.67 -281.53,-59.41 -84.59,-38.74 -157.55,-92.34 -218.9,-160.14 -61.98,-67.8 -109.13,-145.28 -142.7,-233.1 -32.93,-87.82 -49.71,-180.81 -50.36,-279.59 0.65,-100.74 16.79,-195.01 49.07,-282.82 32.94,-87.82 79.42,-165.96 140.12,-233.11 60.05,-67.15 132.37,-120.1 216.31,-158.2 83.95,-38.09 177.58,-57.47 280.24,-58.11 103.97,0.64 198.88,20.66 284.11,59.4 85.24,38.74 158.21,92.34 220.19,160.14 61.34,67.8 109.13,145.29 142.7,233.1 32.94,87.82 50.37,180.81 50.37,279.6 0,100.73 -16.79,195 -49.07,282.82 -32.94,87.82 -79.43,165.95 -140.12,233.1 -60.7,67.16 -133.02,120.1 -217.61,158.2 -84.59,38.1 -178.86,57.47 -282.82,58.12zm-25194.52 5009.45l790.35 0 193.71 -484.29 1046.06 0 197.58 484.29 805.86 0 -1154.55 -2731.38 -724.49 0 -1154.54 2731.38zm1204.9 -1069.31l306.07 -770.98 302.2 770.98 -608.27 0zm2092.12 1069.31l751.61 0 0 -701.25 275.07 -306.07 681.88 1007.32 902.71 0 -1061.56 -1545.84 1026.69 -1166.16 -891.09 0 -933.71 1100.3 0 -1100.3 -751.61 0 0 2712.01zm3490.73 0l751.61 0 0 -2053.38 813.6 0 0 -658.63 -2378.81 0 0 658.63 813.6 0 0 2053.38zm1894.53 0l701.25 0 1049.93 -1526.48 0 1526.48 743.87 0 0 -2712.01 -701.25 0 -1049.94 1526.48 0 -1526.48 -743.86 0 0 2712.01zm2975.45 0l1398.61 0c216.32,-0.65 401,-31 554.03,-90.4 152.39,-60.05 269.26,-145.29 350.62,-257 80.72,-111.07 121.39,-244.73 122.04,-400.35 -0.65,-124.62 -22.6,-229.87 -66.51,-317.05 -43.9,-86.52 -105.9,-158.2 -185.97,-215.02 -80.07,-56.82 -175.64,-102.67 -286.05,-138.18 80.72,-34.87 152.39,-78.78 215.02,-133.66 63.28,-54.24 112.36,-120.1 148.52,-197.59 36.16,-78.13 54.23,-169.18 54.88,-273.13 -0.65,-96.86 -16.14,-181.45 -46.49,-255.06 -30.35,-72.97 -72.96,-136.89 -127.85,-190.48 -78.77,-79.43 -179.51,-140.12 -301.55,-181.45 -122.03,-41.33 -268.61,-62.64 -438.43,-62.64l-1390.87 0 0 2712.01zm732.24 -604.39l0 -499.78 573.39 0c125.26,0.64 218.25,23.25 278.3,66.51 60.7,43.9 90.4,102.67 89.76,177.57 -0.65,83.3 -32.29,147.22 -94.28,190.48 -61.99,43.26 -151.1,65.22 -266.03,65.22l-581.14 0zm0 -1026.69l0 -476.54 488.15 0c112.36,0.65 197.59,20.67 255.07,60.7 56.82,40.67 85.88,97.5 85.88,171.76 -0.65,83.3 -31,144.64 -92.34,184.68 -61.34,40.03 -149.16,59.4 -264.1,59.4l-472.66 0zm2037.88 1631.08l751.61 0 0 -1030.56 964.7 0 0 1030.56 751.61 0 0 -2712.01 -751.61 0 0 1015.06 -964.7 0 0 -1015.06 -751.61 0 0 2712.01zm4312.09 54.24c167.89,-0.65 326.09,-24.54 473.96,-71.68 147.87,-47.78 282.18,-114.28 402.93,-200.17 121.39,-86.52 225.35,-188.54 313.17,-305.42 87.82,-117.52 154.98,-246.67 202.76,-387.43 47.13,-140.77 71.02,-289.28 71.67,-445.54 -0.65,-158.2 -23.9,-307.37 -71.03,-448.78 -47.13,-141.41 -113.64,-270.55 -200.81,-387.43 -86.53,-116.87 -190.48,-218.25 -310.59,-304.13 -120.1,-85.88 -253.77,-151.74 -401.64,-198.88 -147.22,-46.48 -304.78,-70.38 -472.67,-71.02 -167.89,0.64 -326.09,24.54 -473.31,71.67 -147.87,47.78 -282.82,114.29 -403.58,200.17 -121.39,86.53 -225.35,187.9 -313.17,305.42 -87.82,117.52 -154.97,246.67 -202.11,387.43 -47.78,140.77 -71.67,289.28 -72.32,445.55 0.65,158.2 24.54,307.36 71.03,448.77 47.13,141.41 113.64,270.55 200.82,387.43 86.52,116.87 190.48,218.25 310.59,304.13 120.09,85.88 254.41,151.75 401.63,198.88 147.23,46.49 304.78,70.38 472.67,71.03zm7.75 -678c-103.32,-0.65 -196.94,-20.67 -281.53,-59.41 -84.59,-38.74 -157.55,-92.34 -218.9,-160.14 -61.98,-67.8 -109.13,-145.28 -142.7,-233.1 -32.93,-87.82 -49.71,-180.81 -50.36,-279.59 0.65,-100.74 16.79,-195.01 49.07,-282.82 32.94,-87.82 79.42,-165.96 140.12,-233.11 60.05,-67.15 132.37,-120.1 216.31,-158.2 83.95,-38.09 177.58,-57.47 280.24,-58.11 103.97,0.64 198.88,20.66 284.11,59.4 85.24,38.74 158.21,92.34 220.19,160.14 61.34,67.8 109.13,145.29 142.7,233.1 32.94,87.82 50.37,180.81 50.37,279.6 0,100.73 -16.79,195 -49.07,282.82 -32.94,87.82 -79.43,165.95 -140.12,233.1 -60.7,67.16 -133.02,120.1 -217.61,158.2 -84.59,38.1 -178.86,57.47 -282.82,58.12zm1848.04 623.76l701.25 0 1049.93 -1526.48 0 1526.48 743.87 0 0 -2712.01 -701.25 0 -1049.94 1526.48 0 -1526.48 -743.86 0 0 2712.01zm1270.77 -2886.35c125.91,-0.65 236.33,-23.9 331.9,-70.39 95.57,-46.48 173.7,-113.64 233.75,-201.46 60.05,-88.46 100.09,-195.64 120.1,-320.92l-410.68 -73.61c-24.54,70.38 -58.11,126.56 -101.38,168.53 -43.26,41.32 -100.74,62.64 -173.7,63.93 -71.03,-1.29 -127.85,-22.61 -170.48,-63.93 -42.61,-41.96 -76.19,-98.15 -100.73,-168.53l-410.68 73.61c20.02,125.27 60.05,232.46 120.1,320.92 60.05,87.82 137.53,154.98 232.46,201.46 94.92,46.49 204.69,69.74 329.32,70.39zm-22722.73 7272.04l736.11 0 0 -1549.71 689.63 1053.8 15.5 0 693.5 -1061.55 0 1557.46 747.74 0 0 -2712.01 -794.23 0 -647 1049.94 -647.01 -1049.94 -794.22 0 0 2712.01zm4726.64 54.24c167.89,-0.65 326.09,-24.54 473.96,-71.68 147.87,-47.78 282.18,-114.28 402.93,-200.17 121.39,-86.52 225.35,-188.54 313.17,-305.42 87.82,-117.52 154.98,-246.67 202.76,-387.43 47.13,-140.77 71.02,-289.28 71.67,-445.54 -0.65,-158.2 -23.9,-307.37 -71.03,-448.78 -47.13,-141.41 -113.64,-270.55 -200.81,-387.43 -86.53,-116.87 -190.48,-218.25 -310.59,-304.13 -120.1,-85.88 -253.77,-151.74 -401.64,-198.88 -147.22,-46.48 -304.78,-70.38 -472.67,-71.02 -167.89,0.64 -326.09,24.54 -473.31,71.67 -147.87,47.78 -282.82,114.29 -403.58,200.17 -121.39,86.53 -225.35,187.9 -313.17,305.42 -87.82,117.52 -154.97,246.67 -202.11,387.43 -47.78,140.77 -71.67,289.28 -72.32,445.55 0.65,158.2 24.54,307.36 71.03,448.77 47.13,141.41 113.64,270.55 200.82,387.43 86.52,116.87 190.48,218.25 310.59,304.13 120.09,85.88 254.41,151.75 401.63,198.88 147.23,46.49 304.78,70.38 472.67,71.03zm7.75 -678c-103.32,-0.65 -196.94,-20.67 -281.53,-59.41 -84.59,-38.74 -157.55,-92.34 -218.9,-160.14 -61.98,-67.8 -109.13,-145.28 -142.7,-233.1 -32.93,-87.82 -49.71,-180.81 -50.36,-279.59 0.65,-100.74 16.79,-195.01 49.07,-282.82 32.94,-87.82 79.42,-165.96 140.12,-233.11 60.05,-67.15 132.37,-120.1 216.31,-158.2 83.95,-38.09 177.58,-57.47 280.24,-58.11 103.97,0.64 198.88,20.66 284.11,59.4 85.24,38.74 158.21,92.34 220.19,160.14 61.34,67.8 109.13,145.29 142.7,233.1 32.94,87.82 50.37,180.81 50.37,279.6 0,100.73 -16.79,195 -49.07,282.82 -32.94,87.82 -79.43,165.95 -140.12,233.1 -60.7,67.16 -133.02,120.1 -217.61,158.2 -84.59,38.1 -178.86,57.47 -282.82,58.12zm2003.01 662.5c87.82,0.64 171.12,-10.33 249.25,-32.29 77.49,-22.61 149.81,-60.7 215.67,-115.58 66.51,-54.24 125.91,-129.79 178.22,-225.36 52.3,-96.21 96.86,-217.6 134.31,-363.53 36.81,-146.58 64.57,-322.86 83.94,-529.49 20.02,-205.98 29.71,-446.19 29.71,-721.26l0 -104.61 631.51 0 0 2053.38 751.61 0 0 -2712.01 -2084.36 0 0 375.81c0,233.75 -3.88,438.44 -11.63,614.08 -7.75,175.63 -18.73,326.09 -32.93,451.35 -14.86,125.27 -31.65,229.88 -51.66,313.18 -19.37,83.94 -41.32,150.45 -65.86,200.81 -23.89,49.72 -49.72,87.17 -76.84,111.71 -27.77,25.19 -56.18,41.33 -85.24,49.08 -29.7,8.39 -60.05,11.62 -90.4,10.97 -12.27,0 -30.35,-0.64 -52.94,-2.58 -22.61,-1.29 -45.85,-3.23 -68.45,-5.17 -22.6,-2.58 -40.67,-5.16 -52.94,-7.75l-50.37 577.27c20.02,7.1 52.95,14.85 98.8,24.54 45.2,9.69 98.15,18.08 159.49,25.83 60.7,7.11 124.62,10.98 191.13,11.63zm4118.37 15.5c167.89,-0.65 326.09,-24.54 473.96,-71.68 147.87,-47.78 282.18,-114.28 402.93,-200.17 121.39,-86.52 225.35,-188.54 313.17,-305.42 87.82,-117.52 154.98,-246.67 202.76,-387.43 47.13,-140.77 71.02,-289.28 71.67,-445.54 -0.65,-158.2 -23.9,-307.37 -71.03,-448.78 -47.13,-141.41 -113.64,-270.55 -200.81,-387.43 -86.53,-116.87 -190.48,-218.25 -310.59,-304.13 -120.1,-85.88 -253.77,-151.74 -401.64,-198.88 -147.22,-46.48 -304.78,-70.38 -472.67,-71.02 -167.89,0.64 -326.09,24.54 -473.31,71.67 -147.87,47.78 -282.82,114.29 -403.58,200.17 -121.39,86.53 -225.35,187.9 -313.17,305.42 -87.82,117.52 -154.97,246.67 -202.11,387.43 -47.78,140.77 -71.67,289.28 -72.32,445.55 0.65,158.2 24.54,307.36 71.03,448.77 47.13,141.41 113.64,270.55 200.82,387.43 86.52,116.87 190.48,218.25 310.59,304.13 120.09,85.88 254.41,151.75 401.63,198.88 147.23,46.49 304.78,70.38 472.67,71.03zm7.75 -678c-103.32,-0.65 -196.94,-20.67 -281.53,-59.41 -84.59,-38.74 -157.55,-92.34 -218.9,-160.14 -61.98,-67.8 -109.13,-145.28 -142.7,-233.1 -32.93,-87.82 -49.71,-180.81 -50.36,-279.59 0.65,-100.74 16.79,-195.01 49.07,-282.82 32.94,-87.82 79.42,-165.96 140.12,-233.11 60.05,-67.15 132.37,-120.1 216.31,-158.2 83.95,-38.09 177.58,-57.47 280.24,-58.11 103.97,0.64 198.88,20.66 284.11,59.4 85.24,38.74 158.21,92.34 220.19,160.14 61.34,67.8 109.13,145.29 142.7,233.1 32.94,87.82 50.37,180.81 50.37,279.6 0,100.73 -16.79,195 -49.07,282.82 -32.94,87.82 -79.43,165.95 -140.12,233.1 -60.7,67.16 -133.02,120.1 -217.61,158.2 -84.59,38.1 -178.86,57.47 -282.82,58.12zm1646.58 1166.15l674.13 0 50.36 -542.4 1441.24 0 0 542.4 635.39 0 85.23 -1201.03 -306.07 0 0 -2053.38 -2064.99 0 0 69.74c0,202.75 -3.88,386.14 -10.98,550.15 -7.75,164.02 -18.73,312.53 -33.58,446.84 -14.86,133.66 -32.94,256.35 -54.89,369.35 -21.95,112.36 -47.77,219.54 -76.84,319.63 -29.7,100.73 -62.63,200.17 -98.79,297.67l-240.21 0 0 1201.03zm1026.68 -1201.03c31,-92.34 59.41,-187.9 85.88,-286.05 25.84,-98.15 48.43,-202.1 67.16,-311.88 18.73,-109.78 33.58,-227.94 43.9,-355.14 10.98,-126.56 16.15,-264.74 16.15,-414.55l0 -27.12 588.89 0 0 1394.74 -801.98 0zm2157.98 658.63l2200.6 0 0 -639.25 -1456.74 0 0 -430.05 1301.77 0 0 -592.76 -1301.77 0 0 -410.68 1437.37 0 0 -639.26 -2181.23 0 0 2712.01zm2320.7 0l891.09 0 619.89 -1022.81 259.58 302.2 0 720.61 751.61 0 0 -720.61 259.58 -302.2 619.89 1022.81 891.09 0 -999.57 -1569.09 964.7 -1142.92 -879.46 0 -856.23 1100.3 0 -1100.3 -751.61 0 0 1100.3 -856.22 -1100.3 -879.47 0 964.7 1142.92 -999.57 1569.09zm4509.68 0l701.25 0 1049.93 -1526.48 0 1526.48 743.87 0 0 -2712.01 -701.25 0 -1049.94 1526.48 0 -1526.48 -743.86 0 0 2712.01z"/>
 </g>
</svg>
