<?xml version="1.0" encoding="UTF-8"?>
<!DOCTYPE svg PUBLIC "-//W3C//DTD SVG 1.1//EN" "http://www.w3.org/Graphics/SVG/1.1/DTD/svg11.dtd">
<!-- Creator: CorelDRAW 2021 (64-Bit) -->
<svg xmlns="http://www.w3.org/2000/svg" xml:space="preserve" width="88.8083mm" height="32.5184mm" version="1.1" style="shape-rendering:geometricPrecision; text-rendering:geometricPrecision; image-rendering:optimizeQuality; fill-rule:evenodd; clip-rule:evenodd"
viewBox="0 0 2570.82 941.34"
 xmlns:xlink="http://www.w3.org/1999/xlink"
 xmlns:xodm="http://www.corel.com/coreldraw/odm/2003">
 <defs>
  <style type="text/css">
   <![CDATA[
    .fil3 {fill:#C5C6C6}
    .fil1 {fill:#B90F0F}
    .fil2 {fill:#C3C3C3}
    .fil0 {fill:#C5C6C6;fill-rule:nonzero}
   ]]>
  </style>
 </defs>
 <g id="Layer_x0020_1">
  <metadata id="CorelCorpID_0Corel-Layer"/>
  <g id="_2028592963728">
   <path class="fil0" d="M765.24 138.17l5.85 0c5,0 9.1,-0.36 12.29,-1.12 3.16,-0.72 5.97,-2.12 8.41,-4.25 2.43,-2.09 4.22,-5.09 5.28,-9 1.07,-3.91 1.6,-8.94 1.6,-15.13 0,-10.44 -2.03,-17.83 -6.13,-22.18 -4.1,-4.31 -11.42,-6.51 -21.92,-6.51l-5.38 0 0 58.2zm-21.17 15.21l0 -151.9 65.14 0 0 15.29 -43.97 0 0 47.92 4.66 0c8.54,0 15.73,0.68 21.58,2.03 5.84,1.31 10.85,3.66 15.07,6.95 4.22,3.31 7.29,7.84 9.25,13.6 1.95,5.79 2.95,12.98 2.95,21.57 0,15.58 -3.85,26.9 -11.51,33.96 -7.66,7.04 -19.74,10.57 -36.25,10.57l-26.93 0zm90.79 22.99l0 -16.31c8.5,0.85 14.61,0.6 18.33,-0.78 3.72,-1.37 5.81,-3.97 6.25,-7.79 0.41,-3.82 0.07,-8.85 -1.03,-15.08l-29.96 -134.95 20.08 0 12.83 64.68 7.69 48.1 6.7 -47.81 11.45 -64.96 20.36 0 -27.25 135.33c-0.4,2.07 -0.97,4.94 -1.62,8.6 -1.35,7.51 -2.51,12.8 -3.44,15.8 -0.94,3.04 -2.91,6.13 -5.88,9.32 -2.95,3.15 -7.1,5.05 -12.42,5.72 -5.31,0.63 -12.66,0.69 -22.08,0.13zm107.86 -108.95l9.6 0c9.29,0 15.67,-1.65 19.17,-4.94 3.47,-3.31 5.23,-9.63 5.23,-18.99 0,-3.84 -0.09,-7.01 -0.28,-9.47 -0.19,-2.47 -0.6,-4.81 -1.26,-7.01 -0.62,-2.19 -1.46,-3.9 -2.5,-5.09 -1.06,-1.2 -2.5,-2.19 -4.35,-3.07 -1.88,-0.84 -4.03,-1.43 -6.53,-1.71 -2.48,-0.32 -5.54,-0.47 -9.2,-0.47l-9.89 0 0 50.75zm-21.17 85.95l0 -151.9 37.66 0c13.2,0 22.74,3.53 28.68,10.67 5.91,7.09 8.88,17.53 8.88,31.28 0,12.34 -3.19,21.95 -9.57,28.86 -6.38,6.91 -15.67,10.35 -27.9,10.35l-16.58 0 0 70.75 -21.17 0zm128.54 1.66c-7.57,0 -14.08,-1.13 -19.45,-3.41 -5.41,-2.26 -9.69,-5.57 -12.88,-9.98 -3.19,-4.41 -5.51,-9.54 -6.98,-15.39 -1.44,-5.88 -2.19,-12.7 -2.19,-20.52l0 -57.54c0,-15.83 3.22,-27.81 9.67,-35.98 6.44,-8.16 17.08,-12.23 31.83,-12.23 14.74,0 25.34,4.1 31.81,12.33 6.47,8.2 9.69,20.18 9.69,35.88l0 57.61c0,15.82 -3.25,27.99 -9.76,36.47 -6.51,8.5 -17.08,12.76 -31.75,12.76zm-10.29 -18.52c2.72,1.29 6.13,1.91 10.29,1.91 4.17,0 7.61,-0.63 10.32,-1.91 2.72,-1.28 4.79,-3.25 6.19,-5.88 1.38,-2.63 2.34,-5.51 2.89,-8.64 0.5,-3.15 0.78,-7.06 0.78,-11.7l0 -66.53c0,-4.56 -0.28,-8.38 -0.78,-11.45 -0.54,-3.06 -1.51,-5.87 -2.89,-8.44 -1.4,-2.56 -3.47,-4.44 -6.19,-5.64 -2.71,-1.18 -6.15,-1.77 -10.32,-1.77 -4.16,0 -7.57,0.59 -10.29,1.77 -2.72,1.19 -4.78,3.07 -6.19,5.64 -1.41,2.56 -2.38,5.38 -2.88,8.44 -0.53,3.07 -0.78,6.89 -0.78,11.45l0 66.53c0,4.63 0.25,8.54 0.78,11.7 0.5,3.13 1.47,6 2.88,8.64 1.41,2.62 3.47,4.6 6.19,5.88zm93.96 -71.65l12.44 0c8.73,0 14.79,-1.95 18.21,-5.82 3.38,-3.88 5.07,-10.41 5.07,-19.58 0,-2.98 -0.21,-5.6 -0.63,-7.82 -0.44,-2.22 -1,-4.12 -1.66,-5.72 -0.68,-1.6 -1.69,-2.92 -3.07,-4 -1.37,-1.07 -2.78,-1.92 -4.16,-2.56 -1.39,-0.63 -3.31,-1.12 -5.75,-1.48 -2.4,-0.31 -4.73,-0.53 -6.94,-0.61 -2.26,-0.11 -5.1,-0.13 -8.58,-0.13l-4.94 0 0 47.73zm0 73.3l14.29 0c9.16,0 15.42,-2.15 18.76,-6.46 3.38,-4.32 5.05,-11.58 5.05,-21.77 0,-9.69 -2.01,-16.95 -6.02,-21.74 -3.97,-4.81 -10.5,-7.22 -19.55,-7.22l-12.53 0 0 57.2zm-21.18 15.21l0 -151.9 34.71 0c13.82,0 24.05,3.06 30.72,9.23 6.66,6.19 9.97,15.76 9.97,28.77 0,19.36 -7.25,30.06 -21.8,32.09 8.98,2.2 15.51,6.41 19.65,12.7 4.12,6.25 6.19,14.83 6.19,25.67 0,13.7 -3.22,24.36 -9.64,31.99 -6.4,7.63 -16.2,11.45 -29.39,11.45l-40.41 0zm136.99 1.66c-7.57,0 -14.08,-1.13 -19.46,-3.41 -5.41,-2.26 -9.7,-5.57 -12.89,-9.98 -3.19,-4.41 -5.49,-9.54 -6.97,-15.39 -1.44,-5.88 -2.19,-12.7 -2.19,-20.52l0 -57.54c0,-15.83 3.22,-27.81 9.67,-35.98 6.44,-8.16 17.07,-12.23 31.84,-12.23 14.72,0 25.33,4.1 31.81,12.33 6.47,8.2 9.69,20.18 9.69,35.88l0 57.61c0,15.82 -3.25,27.99 -9.75,36.47 -6.51,8.5 -17.09,12.76 -31.75,12.76zm-10.29 -18.52c2.72,1.29 6.13,1.91 10.29,1.91 4.16,0 7.6,-0.63 10.31,-1.91 2.73,-1.28 4.79,-3.25 6.19,-5.88 1.38,-2.63 2.35,-5.51 2.88,-8.64 0.5,-3.15 0.78,-7.06 0.78,-11.7l0 -66.53c0,-4.56 -0.28,-8.38 -0.78,-11.45 -0.53,-3.06 -1.5,-5.87 -2.88,-8.44 -1.41,-2.56 -3.46,-4.44 -6.19,-5.64 -2.72,-1.18 -6.15,-1.77 -10.31,-1.77 -4.16,0 -7.57,0.59 -10.29,1.77 -2.72,1.19 -4.79,3.07 -6.19,5.64 -1.42,2.56 -2.39,5.38 -2.88,8.44 -0.53,3.07 -0.78,6.89 -0.78,11.45l0 66.53c0,4.63 0.25,8.54 0.78,11.7 0.5,3.13 1.46,6 2.88,8.64 1.41,2.62 3.47,4.6 6.19,5.88zm72.78 16.86l0 -151.9 58.83 0 0 15.67 -37.65 0 0 50.2 30.59 0 0 15.1 -30.59 0 0 55.73 38.09 0 0 15.21 -59.26 0zm157.94 1.66c-7.57,0 -14.08,-1.13 -19.46,-3.41 -5.41,-2.26 -9.69,-5.57 -12.88,-9.98 -3.2,-4.41 -5.51,-9.54 -6.99,-15.39 -1.44,-5.88 -2.19,-12.7 -2.19,-20.52l0 -57.54c0,-15.83 3.22,-27.81 9.67,-35.98 6.45,-8.16 17.07,-12.23 31.84,-12.23 14.72,0 25.33,4.1 31.81,12.33 6.47,8.2 9.7,20.18 9.7,35.88l0 57.61c0,15.82 -3.26,27.99 -9.77,36.47 -6.5,8.5 -17.07,12.76 -31.73,12.76zm-10.29 -18.52c2.72,1.29 6.13,1.91 10.29,1.91 4.16,0 7.6,-0.63 10.33,-1.91 2.7,-1.28 4.77,-3.25 6.18,-5.88 1.38,-2.63 2.35,-5.51 2.88,-8.64 0.5,-3.15 0.78,-7.06 0.78,-11.7l0 -66.53c0,-4.56 -0.28,-8.38 -0.78,-11.45 -0.53,-3.06 -1.5,-5.87 -2.88,-8.44 -1.41,-2.56 -3.48,-4.44 -6.18,-5.64 -2.73,-1.18 -6.17,-1.77 -10.33,-1.77 -4.16,0 -7.57,0.59 -10.29,1.77 -2.73,1.19 -4.79,3.07 -6.21,5.64 -1.4,2.56 -2.37,5.38 -2.87,8.44 -0.53,3.07 -0.78,6.89 -0.78,11.45l0 66.53c0,4.63 0.25,8.54 0.78,11.7 0.5,3.13 1.48,6 2.87,8.64 1.42,2.62 3.48,4.6 6.21,5.88zm93.95 1.65l5.85 0c5,0 9.1,-0.36 12.29,-1.12 3.16,-0.72 5.98,-2.12 8.41,-4.25 2.45,-2.09 4.23,-5.09 5.29,-9 1.06,-3.91 1.58,-8.94 1.58,-15.13 0,-10.44 -2.03,-17.83 -6.12,-22.18 -4.1,-4.31 -11.41,-6.51 -21.93,-6.51l-5.38 0 0 58.2zm-21.18 15.21l0 -151.9 65.14 0 0 15.29 -43.96 0 0 47.92 4.67 0c8.53,0 15.72,0.68 21.57,2.03 5.85,1.31 10.84,3.66 15.07,6.95 4.22,3.31 7.29,7.84 9.25,13.6 1.94,5.79 2.94,12.98 2.94,21.57 0,15.58 -3.84,26.9 -11.51,33.96 -7.67,7.04 -19.73,10.57 -36.25,10.57l-26.94 0zm131.4 1.66c-7.57,0 -14.08,-1.13 -19.46,-3.41 -5.41,-2.26 -9.7,-5.57 -12.89,-9.98 -3.19,-4.41 -5.51,-9.54 -6.97,-15.39 -1.44,-5.88 -2.2,-12.7 -2.2,-20.52l0 -57.54c0,-15.83 3.23,-27.81 9.68,-35.98 6.44,-8.16 17.07,-12.23 31.84,-12.23 14.72,0 25.33,4.1 31.79,12.33 6.49,8.2 9.7,20.18 9.7,35.88l0 57.61c0,15.82 -3.25,27.99 -9.76,36.47 -6.5,8.5 -17.07,12.76 -31.74,12.76zm-10.3 -18.52c2.73,1.29 6.14,1.91 10.3,1.91 4.15,0 7.59,-0.63 10.32,-1.91 2.72,-1.28 4.79,-3.25 6.19,-5.88 1.38,-2.63 2.35,-5.51 2.88,-8.64 0.5,-3.15 0.78,-7.06 0.78,-11.7l0 -66.53c0,-4.56 -0.28,-8.38 -0.78,-11.45 -0.53,-3.06 -1.5,-5.87 -2.88,-8.44 -1.4,-2.56 -3.47,-4.44 -6.19,-5.64 -2.73,-1.18 -6.17,-1.77 -10.32,-1.77 -4.16,0 -7.57,0.59 -10.3,1.77 -2.72,1.19 -4.77,3.07 -6.18,5.64 -1.42,2.56 -2.39,5.38 -2.88,8.44 -0.53,3.07 -0.78,6.89 -0.78,11.45l0 66.53c0,4.63 0.25,8.54 0.78,11.7 0.5,3.13 1.47,6 2.88,8.64 1.41,2.62 3.46,4.6 6.18,5.88zm93.96 -69.1l9.59 0c9.3,0 15.68,-1.65 19.18,-4.94 3.48,-3.31 5.23,-9.63 5.23,-18.99 0,-3.84 -0.1,-7.01 -0.29,-9.47 -0.19,-2.47 -0.59,-4.81 -1.25,-7.01 -0.63,-2.19 -1.46,-3.9 -2.49,-5.09 -1.08,-1.2 -2.51,-2.19 -4.35,-3.07 -1.88,-0.84 -4.04,-1.43 -6.55,-1.71 -2.47,-0.32 -5.53,-0.47 -9.19,-0.47l-9.88 0 0 50.75zm-21.17 85.95l0 -151.9 37.65 0c13.19,0 22.73,3.53 28.67,10.67 5.91,7.09 8.88,17.53 8.88,31.28 0,12.34 -3.19,21.95 -9.57,28.86 -6.38,6.91 -15.67,10.35 -27.91,10.35l-16.56 0 0 70.75 -21.17 0zm87.94 22.99l0 -16.31c8.51,0.85 14.6,0.6 18.32,-0.78 3.73,-1.37 5.83,-3.97 6.26,-7.79 0.41,-3.82 0.06,-8.85 -1.03,-15.08l-29.98 -134.95 20.08 0 12.84 64.68 7.68 48.1 6.7 -47.81 11.45 -64.96 20.36 0 -27.25 135.33c-0.4,2.07 -0.97,4.94 -1.62,8.6 -1.35,7.51 -2.5,12.8 -3.44,15.8 -0.95,3.04 -2.91,6.13 -5.89,9.32 -2.94,3.15 -7.1,5.05 -12.42,5.72 -5.31,0.63 -12.67,0.69 -22.08,0.13zm96.49 -38.2l49.1 0 0 -121.03 -24.57 0 -1.37 34.25c-0.31,7.41 -0.69,14.23 -1.18,20.51 -0.51,6.32 -1,11.83 -1.51,16.61 -0.52,4.75 -1.22,9.19 -2.12,13.29 -0.88,4.07 -1.66,7.5 -2.31,10.26 -0.69,2.75 -1.63,5.41 -2.81,8.01 -1.19,2.59 -2.13,4.63 -2.88,6.04 -0.72,1.43 -1.84,3.03 -3.34,4.77 -1.5,1.73 -2.63,2.98 -3.38,3.76 -0.78,0.75 -1.97,1.93 -3.63,3.53zm-26.66 42.89l0 -42.89 6.95 0c2.5,-2.15 4.63,-4.25 6.32,-6.3 1.71,-2.1 3.63,-5.35 5.7,-9.82 2.05,-4.48 3.81,-9.76 5.15,-15.87 1.38,-6.1 2.69,-14.22 3.91,-24.36 1.23,-10.13 2.16,-21.95 2.85,-35.47l2.28 -44.88 63.78 0 0 136.7 14.68 0 0 42.89 -16.43 0 -1.72 -27.68 -75.4 0 -1.67 27.68 -16.39 0zm166.2 -26.02c-7.56,0 -14.07,-1.13 -19.45,-3.41 -5.41,-2.26 -9.7,-5.57 -12.89,-9.98 -3.19,-4.41 -5.51,-9.54 -6.97,-15.39 -1.44,-5.88 -2.19,-12.7 -2.19,-20.52l0 -57.54c0,-15.83 3.21,-27.81 9.67,-35.98 6.44,-8.16 17.07,-12.23 31.83,-12.23 14.73,0 25.34,4.1 31.8,12.33 6.49,8.2 9.7,20.18 9.7,35.88l0 57.61c0,15.82 -3.25,27.99 -9.76,36.47 -6.5,8.5 -17.07,12.76 -31.74,12.76zm-10.29 -18.52c2.73,1.29 6.13,1.91 10.29,1.91 4.16,0 7.6,-0.63 10.33,-1.91 2.72,-1.28 4.79,-3.25 6.19,-5.88 1.38,-2.63 2.35,-5.51 2.87,-8.64 0.51,-3.15 0.79,-7.06 0.79,-11.7l0 -66.53c0,-4.56 -0.28,-8.38 -0.79,-11.45 -0.52,-3.06 -1.49,-5.87 -2.87,-8.44 -1.41,-2.56 -3.48,-4.44 -6.19,-5.64 -2.73,-1.18 -6.17,-1.77 -10.33,-1.77 -4.16,0 -7.56,0.59 -10.29,1.77 -2.72,1.19 -4.77,3.07 -6.18,5.64 -1.42,2.56 -2.39,5.38 -2.88,8.44 -0.53,3.07 -0.78,6.89 -0.78,11.45l0 66.53c0,4.63 0.25,8.54 0.78,11.7 0.5,3.13 1.47,6 2.88,8.64 1.41,2.62 3.46,4.6 6.18,5.88zm93.96 -71.65l12.44 0c8.73,0 14.79,-1.95 18.21,-5.82 3.38,-3.88 5.06,-10.41 5.06,-19.58 0,-2.98 -0.21,-5.6 -0.61,-7.82 -0.44,-2.22 -1,-4.12 -1.66,-5.72 -0.69,-1.6 -1.69,-2.92 -3.06,-4 -1.37,-1.07 -2.79,-1.92 -4.16,-2.56 -1.41,-0.63 -3.32,-1.12 -5.75,-1.48 -2.41,-0.31 -4.72,-0.53 -6.94,-0.61 -2.25,-0.11 -5.1,-0.13 -8.57,-0.13l-4.94 0 0 47.73zm0 73.3l14.29 0c9.17,0 15.42,-2.15 18.76,-6.46 3.38,-4.32 5.05,-11.58 5.05,-21.77 0,-9.69 -2.01,-16.95 -6,-21.74 -3.98,-4.81 -10.52,-7.22 -19.56,-7.22l-12.53 0 0 57.2zm-21.17 15.21l0 -151.9 34.71 0c13.83,0 24.04,3.06 30.72,9.23 6.65,6.19 9.97,15.76 9.97,28.77 0,19.36 -7.27,30.06 -21.8,32.09 8.97,2.2 15.51,6.41 19.64,12.7 4.13,6.25 6.19,14.83 6.19,25.67 0,13.7 -3.22,24.36 -9.63,31.99 -6.42,7.63 -16.2,11.45 -29.41,11.45l-40.39 0zm119.93 -53.41l25.4 0 -12.73 -68.62 -12.68 68.62zm-30.06 53.41l32.44 -151.9 20.45 0 32.42 151.9 -20.17 0 -6.94 -38.32 -30.91 0 -7.22 38.32 -20.09 0zm100.72 0l0 -151.9 21.16 0 0 65.58 39.04 0 0 -65.58 21.15 0 0 151.9 -21.15 0 0 -71.18 -39.04 0 0 71.18 -21.16 0zm105.17 0l0 -151.9 18.6 0 0 105.17 44.5 -105.17 15.34 0 0 151.9 -18.61 0 0 -107.03 -44.16 107.03 -15.67 0zm102.26 0l0 -151.9 58.83 0 0 15.67 -37.65 0 0 50.2 30.59 0 0 15.1 -30.59 0 0 55.73 38.1 0 0 15.21 -59.27 0z"/>
   <path class="fil0" d="M805.35 338.99l0 245.13 102.45 0 0 -245.13 49.11 0 16.37 -41.64 0 -40.7 -229.22 0 0 82.34 61.28 0zm410.26 245.13l0 -81.87 -116.95 0 0 -44.91 100.57 0 0 -81.87 -100.57 0 0 -36.49 100.57 0 16.38 -41.64 0 -40.7 -218.93 0 0 327.47 218.93 0zm130.52 -245.13l40.7 0 0 61.28 -40.7 0 0 -61.28zm101.98 143.15c24.33,0 41.16,-17.31 41.16,-41.16l0 -143.62c0,-23.85 -16.83,-40.7 -41.16,-40.7l-204.44 0 0 327.47 102.46 0 0 -101.98 101.98 0zm292.84 101.98l0 -81.87 -116.94 0 0 -44.91 100.58 0 0 -81.87 -100.58 0 0 -36.49 100.58 0 16.36 -41.64 0 -40.7 -218.94 0 0 327.47 218.94 0zm130.06 -81.87l0 -44.91 41.16 0 0 44.91 -41.16 0zm102.44 -126.77l-102.44 0 0 -36.95 124.9 0 16.36 -41.18 0 -40.7 -243.25 0 0 327.47 204.43 0c23.86,0 40.7,-17.31 40.7,-41.18l0 -126.77c0,-23.86 -16.84,-40.69 -40.7,-40.69zm175.9 -36.49l40.69 0 0 61.28 -40.69 0 0 -61.28zm101.97 143.15c24.33,0 41.17,-17.31 41.17,-41.16l0 -143.62c0,-23.85 -16.85,-40.7 -41.17,-40.7l-204.43 0 0 327.47 102.46 0 0 -101.98 101.97 0zm217.06 -143.15l0 163.26 -40.69 0 0 -163.26 40.69 0zm61.28 245.13c24.33,0 41.17,-16.85 41.17,-40.7l0 -246.06c0,-23.85 -16.85,-40.7 -41.17,-40.7l-163.27 0c-24.31,0 -41.16,16.85 -41.16,40.7l0 246.06c0,23.85 16.85,40.7 41.16,40.7l163.27 0z"/>
   <polygon class="fil1" points="254.04,861.75 332.68,941.34 411.28,861.75 437.59,197.59 664.82,154.32 664.82,1.47 332.68,25.65 0.02,1.47 0.02,154.32 227.82,197.59 "/>
   <polygon class="fil2" points="517.3,752.33 534.28,280.58 664.82,256.65 664.82,600.87 "/>
   <polygon class="fil3" points="-0,256.65 130.53,280.58 147.52,751.78 -0,600.87 "/>
  </g>
 </g>
</svg>
