<?xml version="1.0" encoding="UTF-8"?>
<!DOCTYPE svg PUBLIC "-//W3C//DTD SVG 1.1//EN" "http://www.w3.org/Graphics/SVG/1.1/DTD/svg11.dtd">
<!-- Creator: CorelDRAW 2021 (64-Bit) -->
<svg xmlns="http://www.w3.org/2000/svg" xml:space="preserve" width="152mm" height="41.2438mm" version="1.1" style="shape-rendering:geometricPrecision; text-rendering:geometricPrecision; image-rendering:optimizeQuality; fill-rule:evenodd; clip-rule:evenodd"
viewBox="0 0 15194.14 4122.79"
 xmlns:xlink="http://www.w3.org/1999/xlink"
 xmlns:xodm="http://www.corel.com/coreldraw/odm/2003">
 <defs>
  <style type="text/css">
   <![CDATA[
    .fil2 {fill:#878989}
    .fil1 {fill:#E73A40;fill-rule:nonzero}
    .fil0 {fill:#03A96A;fill-rule:nonzero}
   ]]>
  </style>
 </defs>
 <g id="Слой_x0020_1">
  <metadata id="CorelCorpID_0Corel-Layer"/>
  <g id="_2506271669648">
   <path id="green" class="fil0" d="M1047.68 0c709.65,826.23 357.21,1285.07 -43.45,1727.1 -430.13,432 -862.18,863.2 -596.88,1535.91 -709.86,-826.13 -357.2,-1285.18 43.23,-1727.21 430.63,-431.96 862.46,-863.27 597.1,-1535.8zm8390.16 2649.4l0 694.65 -973.27 -694.65 -472.32 0 0 1389.54 416.59 0 0 -764.54 999.47 764.54 446.02 0 0 -1389.54 -416.49 0zm1355.51 1088.05l0 -240.9 793.5 0 0 -304.36 -793.5 0 0 -238.53 1019.37 0 0 -304.22 -1628.11 0 0 1389.47 1640.49 0 0 -301.46 -1031.74 0zm1305.66 -1088.05l0 1389.54 608.63 0 0 -508.7 668.79 0 0 -304.16 -668.79 0 0 -272.38 1326.56 0 0 1085.25 608.62 0 0 -1085.25 551.33 0 0 -304.29 -3095.14 0z"/>
   <path id="red" class="fil1" d="M4835.24 3512.45l281.54 -537.85 269.57 537.85 -551.11 0zm-460.77 -863.06l-1686.51 0 0 304.29 538.97 0 0 1085.25 608.66 0 0 -1085.25 538.87 0 0 -304.29zm3410.95 0l-1651.07 0 0 304.29 538.87 0 0 1085.25 608.74 0 0 -1085.25 503.46 0 0 -304.29zm-6096.7 -1789.57c265.01,672.29 -167,1103.87 -597.27,1536.02 -400.53,441.64 -753.31,900.7 -43.77,1726.94 -265.08,-672.15 166.96,-1103.92 596.96,-1535.64 400.83,-442.63 753.58,-901.01 44.08,-1727.32zm3887.33 1789.56l-652.36 0 -759.66 1389.61 395.57 0 124.93 -238.52 852.9 0 124.53 238.52 673.91 0 -759.83 -1389.61z"/>
   <path id="gray" class="fil2" d="M10546.36 1614.8c0,-158.04 -95.89,-281.15 -283.32,-281.15 -271.81,0 -313.39,248.32 -313.39,446.25 0,208.3 24.27,472.99 316.82,472.99 210.45,0 267.17,-135.39 279.89,-339.6l-111.03 0c-10.48,145.76 -34.74,251.46 -178.07,251.46 -181.63,0 -193.17,-208.29 -193.17,-386.9 0,-115.89 2.3,-355.92 193.17,-355.92 138.68,0 178.07,87.18 178.07,192.88l111.03 0zm4640.56 0c0,-158.04 -94.84,-281.15 -282.08,-281.15 -271.82,0 -313.47,248.32 -313.47,446.25 0,208.3 23.1,472.99 315.66,472.99 211.69,0 267.12,-135.39 279.89,-339.6l-109.86 0c-11.54,145.76 -34.57,251.46 -178.11,251.46 -182.66,0 -193.03,-208.29 -193.03,-386.9 0,-115.89 1.13,-355.92 193.03,-355.92 137.65,0 178.11,87.18 178.11,192.88l109.86 0zm-1231.53 -31.78c10.37,-97.51 80.98,-160.15 173.45,-160.15 101.78,0 163.05,54.45 163.05,150.77 0,97.51 -55.56,151.9 -163.05,151.9l-72.9 0 0 88.28 93.7 0c113.33,0 180.4,85.14 180.4,168.27 0,86.09 -38.16,182.65 -187.35,182.65 -149.08,0 -191.97,-76.03 -200.08,-207.26l-109.86 0c13.89,176.34 88,295.4 307.68,295.4 250.97,0 304.12,-163.05 304.12,-258.44 0,-129.3 -78.65,-212.39 -191.97,-231.89 82.17,-28.71 153.73,-92.33 153.73,-209.33 0,-125.16 -111.02,-218.48 -265.89,-218.48 -170.02,0 -274.11,95.46 -296.08,248.28l111.03 0zm-920.53 649.4l121.45 0 72.8 -253.48 313.39 0 78.76 253.48 121.4 0 -278.73 -881.33 -145.77 0 -283.3 881.33zm483.38 -341.65l-262.39 0 130.52 -468.86 3.63 0 128.24 468.86zm-1356.45 -76.94l93.7 0c152.61,0 242.79,28.74 242.79,170.27 0,124.11 -78.58,160.08 -211.58,160.08l-124.91 0 0 -330.35zm0 -462.73l-111.04 0 0 881.33 263.71 0c179.23,0 298.33,-73.92 298.33,-248.32 0,-205.16 -141.07,-258.55 -320.31,-258.55l-130.7 0 0 -374.46zm-490.34 88.27l256.76 0 0 -88.28 -624.36 0 0 88.28 257.81 0 0 793.11 109.79 0 0 -793.11zm-951.65 -88.28l0 881.33 499.54 0 0 -88.25 -389.65 0 0 -330.36 363.03 0 0 -88.28 -363.03 0 0 -286.21 388.52 0 0 -88.24 -498.41 0z"/>
  </g>
 </g>
</svg>
