<?xml version="1.0" encoding="UTF-8"?>
<!DOCTYPE svg PUBLIC "-//W3C//DTD SVG 1.1//EN" "http://www.w3.org/Graphics/SVG/1.1/DTD/svg11.dtd">
<!-- Creator: CorelDRAW 2021 (64-Bit) -->
<svg xmlns="http://www.w3.org/2000/svg" xml:space="preserve" width="36.5552mm" height="40.13mm" version="1.1" style="shape-rendering:geometricPrecision; text-rendering:geometricPrecision; image-rendering:optimizeQuality; fill-rule:evenodd; clip-rule:evenodd"
viewBox="0 0 2820.39 3096.2"
 xmlns:xlink="http://www.w3.org/1999/xlink"
 xmlns:xodm="http://www.corel.com/coreldraw/odm/2003">
 <defs>
  <style type="text/css">
   <![CDATA[
    .fil0 {fill:none}
   ]]>
  </style>
   <clipPath id="id0">
    <path d="M2354.75 296.54c11.87,10.97 23.65,24.7 28.55,40.25 5.45,17.26 3.21,41.27 0.74,58.95 -2.69,18.61 -7.82,41.71 -19.74,56.89 -22.18,42.1 -54.6,92.26 -96.94,116.26 -22.66,12.72 -55.68,28.52 -82.42,24.67 -28.5,-4 -41.58,-32.64 -48.11,-57.44 -11.4,-43.24 14.5,-92.37 37.71,-127.24 30.63,-45.85 71.35,-80.26 125.4,-93.5 4.16,-2.65 6.28,-5.41 4.37,-10.61 -4.46,-12.04 -19.27,-28.92 -27.78,-38.37l-0.32 -0.36 -0.29 -0.39c-10.38,-14.03 -32.18,-43.85 -32.83,-61.83 -0.52,-13.59 4.32,-26.43 11.71,-37.64 9.75,-14.85 24.97,-28.48 38.69,-39.61l0.44 -0.35 0.47 -0.31c26.83,-17.17 54.22,-34.69 81.97,-49.9l44.06 -26.49c27.84,-15.98 58.67,-29.5 88.23,-41.94l0.45 -0.19 0.47 -0.15c14.3,-4.43 34.37,-9.58 49.33,-6.14 15.35,3.64 23.27,16.32 10.32,28.36 -8.53,8.18 -22.23,14.72 -33.06,19.52 -15.35,6.43 -30.51,13.49 -45.49,20.64l-29.99 14.6c-14.73,7.21 -29.33,14.74 -43.48,22.93 -13.41,7.95 -26.96,15.65 -40.49,23.46 -17.48,9.95 -34.52,21.9 -50.81,33.68 -7.38,5.34 -25.64,19.53 -23.72,30.45 1.94,10.45 5.58,20.2 11.26,29.13 5.72,8.8 11.33,17.62 16.8,26.53 8.93,14.23 16.96,30.95 24.52,46.12zm437.28 437.71c-319.78,26.56 -591.06,89.28 -821.67,176.07l-46.22 53.24 18.3 -69.69c29.96,-142.78 78.93,-333.87 163.81,-455.01l2.68 -3.82 -1.2 -4.51c-7.2,-27.12 -26.22,-31.92 -44.84,-10.72l-0.39 0.46 -0.34 0.49c-24.6,35.89 -128.58,188.33 -170.94,215.5 4.09,-46.49 28.94,-84.44 44.89,-125.55 -10.71,-52.23 -47.23,-20.65 -70.56,2.35 -9.84,9.68 -62.83,56.53 -42.95,72.98 7.09,6.06 17.16,5.64 26.79,3.06l-15.79 59.81 -0.06 0.96c-0.83,12.4 2.08,24.17 9.98,33.83 6.27,9.48 16.23,12.65 27.57,12.16 -32.36,30.88 -59.96,62.29 -91.84,89.68 -14.88,12.78 -56.55,47.67 -45.47,71.17l11.29 17.14c21.95,33.69 32.13,55.4 54.82,88.65l60.77 74.24 -18.01 20.75 -60.16 70.67 -0.66 -0.56 -158.44 182.58 111.27 -295.24c-697.48,356.64 -934.72,949.93 -1015.36,1290.75 191.98,-304.92 882.82,-919.69 1332.18,-947.81 0,0 -802.82,465.74 -1351.01,1190 -118.32,156.24 -205.74,295.35 -257.77,394.91 -44.33,84.9 -62.56,141.7 -45.41,153.4l12.32 -13.9 0 0c1044.78,-457.72 1346.55,-474.14 1444.57,-386.69 87.74,78.26 -365.66,339.22 163.13,336.66 347.69,-15.18 577.04,-154.96 794.17,-282.53 3.02,-5.39 5.99,-10.72 8.95,-16.07 -486.4,184.88 -651.98,199.14 -918.48,179.18l46.91 -66.5c91.22,-145.57 -16.71,-298.85 -160.12,-325.37 -148.86,-27.57 -491.26,95.71 -806.26,239.13 -162.99,74.21 -337.89,158.51 -493.71,245.81 83.24,-127.24 201.94,-246.62 301.08,-361.77 22.05,-25.64 43.51,-50.43 65.32,-75.7 587.31,-35.66 1181.66,-432.1 1554.32,-900.8l-315.51 -8.86 439.65 -162.98c169.68,-258.37 267.86,-527.26 258.45,-761.56zm-2693 1341.12c-3.05,-89.61 39.19,-196.14 67.68,-261.02l30.83 -73.37 27.03 -53.57 17.04 -31.93 15.92 -25.98 16.94 -26.19c13.23,-18.63 27.71,-36.93 42.36,-54.88 34.5,-37.17 78.19,-70.96 129.57,-79.01 62.86,-9.88 106.31,-3.29 147.85,48.18 72.87,90.29 69.01,255.84 61.62,355.46 -0.69,42.94 -3.38,109.13 -21.63,148.6l-0.21 0.46 -0.25 0.43c-13.68,23.18 -33.69,20.32 -51.22,5.96 0.37,7.62 -0.37,15.53 -0.6,20.04 -1.4,27.47 -4.37,55.27 -7.34,82.6 -6.08,56.27 -16.98,120.58 -40.99,172.25l-0.42 0.91 -0.59 0.81c-19.36,26.26 -45.04,37.72 -73.71,18.37l-5.15 -3.04 -7.64 20.3 -7.17 -0.22c-30.01,-0.93 -71.38,-170.02 -68.95,-241.96 0.96,-42.33 22.72,-76.74 49.68,-90.36 12.83,-6.49 28.32,-5.86 44.64,0.08 61.41,23.08 9.55,185.88 9.23,234.6 -0.62,7.99 -2.13,37.39 6.61,40.14 6.15,1.93 11.11,2.08 14.99,-3.5 5.85,-8.63 10.96,-17.71 15.42,-27.14 4.07,-8.59 7.52,-28.25 9.44,-37.74 5.93,-29.36 10.91,-59.05 15.77,-88.6 4.67,-28.1 9.42,-56.75 15.7,-84.52 1.74,-7.67 5.81,-32.06 16.87,-33.75 -43.29,-81.67 -83.86,-190.45 -43.05,-278.66 15.85,-34.25 50.01,-30.92 79.52,-19.29l1.67 -3.6c-4.27,-85.48 -22.1,-148.98 -69.92,-174.85 -23.35,-12.62 -53.87,-16.29 -93.46,-9.14 -66.44,11.92 -120.48,95.9 -150.41,149.86 -48.11,86.98 -90.79,177.56 -123.97,271.32 -6.45,28.35 -41.15,182.34 -5.08,199.03l4.04 1.87 1.32 4.25c6.59,21.16 1.24,35.14 -13.39,35.73l84.6 163c12.21,20.28 97.06,161.13 122.46,183.26 3.88,-20.82 -17.21,-93.46 -19.54,-106.65 -5.36,-30.26 -10.9,-62.26 -13.02,-92.93 -0.8,-11.64 -3.5,-39.07 11.47,-43.41 27.43,-7.98 66.72,184.2 71.91,226.66 1.73,14.11 4.61,34.3 3.47,48.41 -1.2,14.84 -6.77,30.29 -22.64,34.33 -16.23,4.25 -40.37,-8.17 -54.02,-15.64 -13.1,-6.49 -35.22,-36.58 -57.07,-70.31 6.57,14.92 13.2,29.81 19.84,44.67 21.51,48.38 57.52,132.73 65.34,196.2 2.81,22.76 4.91,74.99 -38.93,46.19 -44.6,-29.3 -107.53,-135.39 -116.63,-149.66 -49.67,-77.95 -88.34,-160.89 -135.55,-239.8 47.21,121.3 89.04,251.35 160.76,359.75 31.39,47.43 63.98,97.11 90.7,147.34 7.45,13.99 25.57,51.56 13.02,66.99 -19.3,24.27 -55.47,5.02 -74.95,-6.84 -19.99,-12.17 -57.98,-36.53 -59.66,-62.83 -1.1,-16.74 4.19,-32.36 21.68,-37.17 2.82,-0.79 5.53,-1.23 8.07,-1.32 -98.35,-163.33 -220.23,-423.04 -236.86,-588.5 -0.47,-18.9 10.92,-29.88 29.82,-25.95l3.76 0.79 2.28 3.09c87.49,118.87 162.49,255.06 229.71,386.26 6.37,8.63 22.91,31.7 38.23,51.56 -25.85,-76.9 -55.74,-153.14 -86.17,-228 -51.96,-127.81 -107.61,-254.35 -164.47,-380.05l-0.75 -1.66 -0.12 -1.81c-1.53,-22.84 6.37,-49.89 34.71,-34.36l2.68 1.47 9.34 18zm497.54 -110.58c7.54,-10.27 12.93,-56.84 13.9,-66.18 3.19,-30.14 12.85,-131.34 -23.42,-148.12l-6.23 -2.88c-16.67,0.77 -23.02,11.72 -25.42,28.01l-0.21 1.44 -0.61 1.32c-15.28,33.04 10.57,111.8 21.67,143.69 2.33,6.65 13.09,35.96 20.31,42.73zm-158.74 253.82c5.73,-25.68 11.42,-70.09 14.13,-96.6 2.9,-28.4 5.22,-64.04 -6,-72.9 -34.48,-5.43 -42.12,53.3 -33.59,97.65 4.47,23.24 11.88,67.77 25.46,71.85zm1435.42 -1237.95c19.1,-33.51 49.64,-207.14 61.47,-277.32l-145.63 140.17c0.74,12.72 24.57,45.68 29.9,52.57 22.81,29.28 36.33,52.02 54.26,84.58zm-1045.52 550.68l-16.06 136.99 -0.25 0.83c-4.74,15.9 -12.38,31.92 -25.15,42.94 -16.26,14.02 -35.01,5.69 -49.17,-6.83l-1.57 -1.38 -0.88 -1.89c-16.29,-34.87 -64.67,-137.94 -55.88,-176.85 6.94,-29.98 26.08,-38.68 40.68,-7.52l0.42 0.89 0.24 0.96c4.06,16.43 28.74,115.33 43.03,137.77 8.17,-19.03 13.01,-86.69 13.84,-99.34 4.72,-73.42 4.9,-147.17 -0.39,-220.57l-0.12 -1.6 0.39 -1.56c6.92,-27.61 26.66,-31.72 47.68,-14.13l3.14 2.62 0.41 4.07c1.43,14.38 8.8,88.49 16.6,129.35 0.59,3.13 9.03,44.14 21.36,32.34 13.12,-29.85 18.97,-66.32 22.09,-98.46 1.29,-12.88 3.46,-62.36 22.68,-63.32 4.62,-0.23 8.59,2.1 11.45,5.56l0.38 0.46 0.32 0.5 1.23 2.01c-23.03,-84.03 -22.44,-171.33 34.98,-243.37 19.13,-27.98 48.28,-28.22 77.45,-16.01l3.04 1.27 1.7 2.83c3.64,6.09 6.67,12.38 9.13,18.83 5.62,-13.2 15.4,-22 32.38,-14.93l7.47 3.11 -1.46 7.96c-3.53,19.24 -16.86,95.35 -3.36,112 0.82,1 3.36,4.1 4.76,4.41 11.05,-4.28 41.95,-72.86 48.37,-85.29 15.59,-10.35 27.88,-3.08 33.06,13.21 -6.6,34.72 -31.64,79.21 -54.19,106.43 -20.08,21.63 -42.45,15.12 -57.69,-6.4 -13.25,46.75 -35.38,118.79 -58.03,146.14l-1.13 1.37 -1.53 0.9c-24.57,14.34 -46.92,1.5 -63.57,-18.2l-1.22 -1.44 -0.61 -1.78 -1.13 -3.38c4.14,30.48 -1.9,69.15 -5.97,92.19 -3.83,21.83 -15.11,94.42 -44.16,98.29 -17.28,2.44 -38.36,-9.95 -54.76,-22zm157.36 -397.07c-23.52,38.55 -27.2,87.69 -24.23,131.72 0.69,10.52 5.31,69.55 14.66,78.36 11.03,-6.02 35.77,-65.94 38.6,-75.73 12.28,-42.39 10.1,-85.59 -5.79,-127.84l-0.28 -0.74 -0.16 -0.78c-4.44,-21.77 -8.83,-20.5 -22.81,-4.99zm306.23 -120.84c2.89,1.23 5.56,-0.76 7.76,-2.61 50.59,-47.72 92.72,-105.92 128.56,-165.27l0.59 -0.96 0.78 -0.82c16.92,-17.53 32,-8.07 35,13.93l0.28 2.02 -0.53 1.96c-18.41,67.85 -88.12,145.59 -136.05,194.88l-0.76 0.79 -0.91 0.6c-24.68,16.26 -47.71,11.19 -67.43,-5.57l-24.93 53.35 -4.93 1.01c-11.6,2.38 -21.35,-2.94 -28.15,-12.23l-2.34 -3.19 28.05 -234.8 1.64 -2.17c13.96,-18.47 30.97,-15.74 40.51,4.85l1.06 2.27 -2.48 45.69c17.51,-36.79 40.18,-75.27 68.07,-100.03l0.87 -0.78 1.03 -0.56c14.93,-8.03 27.53,-1.57 31.83,14.44l1.11 4.14 -2.23 3.66c-12.67,20.89 -95.39,157.85 -76.41,185.4zm348.98 -232.44l-67.96 113.4 -0.94 0.91c-15.16,14.7 -31.97,12.64 -41.91,-6.3l-0.67 -1.28 -0.29 -1.42c-3.33,-16.67 -18.9,-83.39 -3.5,-96.61l0.32 -0.27 0.33 -0.25c21.31,-15.45 35.87,-1.47 40.6,20.7l0.32 1.5 -0.15 1.54c-0.16,1.75 -0.46,5.06 -0.73,8.87 46.96,-74.48 91,-157.62 114.93,-242.4 3.61,-12.84 23.74,-47.81 41.63,-42.74 10.78,3.06 12.88,16.34 13.62,25.82 -1.73,19.47 -13.6,42.57 -20.76,60.74 -13.86,35.15 -28.57,70.05 -43.4,104.8 0.74,9.03 1.28,19.44 5.15,27.87 18.87,-0.86 27.69,-12.88 36.96,-26.86 16.11,-24.25 31.49,-53.88 40.82,-78.89l1.47 -3.92 3.82 -1.72c14.34,-6.45 20.28,2.13 25.77,15.18 8.36,19.74 -13,53.92 -22.81,70.26 -13.87,23.11 -41.78,49.74 -63.14,66.51 -10.38,8.28 -30.62,23.43 -43.58,11.67 -5.49,-4.98 -11.24,-16.32 -15.92,-27.1zm699.33 -393.11c0.66,-6.53 2.14,-23.65 -6.83,-25.95 -10.75,-2.76 -21.74,0.52 -31.53,5.69l-31.43 14.61c-16.21,7.49 -29.98,18.92 -41.59,32.44 -26.21,30 -60.42,77.79 -44.03,119.98 3.78,9.85 8.41,19.03 19.91,14.1 35.44,-15.18 71.11,-37.84 89.71,-72.82l0.34 -0.63 0.42 -0.58c15.39,-21.02 42.4,-60.17 45.02,-86.84z"/>
   </clipPath>
    <clipPath id="id1">
     <path d="M2354.75 296.54c11.87,10.97 23.65,24.7 28.55,40.25 5.45,17.26 3.21,41.27 0.74,58.95 -2.69,18.61 -7.82,41.71 -19.74,56.89 -22.18,42.1 -54.6,92.26 -96.94,116.26 -22.66,12.72 -55.68,28.52 -82.42,24.67 -28.5,-4 -41.58,-32.64 -48.11,-57.44 -11.4,-43.24 14.5,-92.37 37.71,-127.24 30.63,-45.85 71.35,-80.26 125.4,-93.5 4.16,-2.65 6.28,-5.41 4.37,-10.61 -4.46,-12.04 -19.27,-28.92 -27.78,-38.37l-0.32 -0.36 -0.29 -0.39c-10.38,-14.03 -32.18,-43.85 -32.83,-61.83 -0.52,-13.59 4.32,-26.43 11.71,-37.64 9.75,-14.85 24.97,-28.48 38.69,-39.61l0.44 -0.35 0.47 -0.31c26.83,-17.17 54.22,-34.69 81.97,-49.9l44.06 -26.49c27.84,-15.98 58.67,-29.5 88.23,-41.94l0.45 -0.19 0.47 -0.15c14.3,-4.43 34.37,-9.58 49.33,-6.14 15.35,3.64 23.27,16.32 10.32,28.36 -8.53,8.18 -22.23,14.72 -33.06,19.52 -15.35,6.43 -30.51,13.49 -45.49,20.64l-29.99 14.6c-14.73,7.21 -29.33,14.74 -43.48,22.93 -13.41,7.95 -26.96,15.65 -40.49,23.46 -17.48,9.95 -34.52,21.9 -50.81,33.68 -7.38,5.34 -25.64,19.53 -23.72,30.45 1.94,10.45 5.58,20.2 11.26,29.13 5.72,8.8 11.33,17.62 16.8,26.53 8.93,14.23 16.96,30.95 24.52,46.12zm437.28 437.71c-319.78,26.56 -591.06,89.28 -821.67,176.07l-46.22 53.24 18.3 -69.69c29.96,-142.78 78.93,-333.87 163.81,-455.01l2.68 -3.82 -1.2 -4.51c-7.2,-27.12 -26.22,-31.92 -44.84,-10.72l-0.39 0.46 -0.34 0.49c-24.6,35.89 -128.58,188.33 -170.94,215.5 4.09,-46.49 28.94,-84.44 44.89,-125.55 -10.71,-52.23 -47.23,-20.65 -70.56,2.35 -9.84,9.68 -62.83,56.53 -42.95,72.98 7.09,6.06 17.16,5.64 26.79,3.06l-15.79 59.81 -0.06 0.96c-0.83,12.4 2.08,24.17 9.98,33.83 6.27,9.48 16.23,12.65 27.57,12.16 -32.36,30.88 -59.96,62.29 -91.84,89.68 -14.88,12.78 -56.55,47.67 -45.47,71.17l11.29 17.14c21.95,33.69 32.13,55.4 54.82,88.65l60.77 74.24 -18.01 20.75 -60.16 70.67 -0.66 -0.56 -158.44 182.58 111.27 -295.24c-697.48,356.64 -934.72,949.93 -1015.36,1290.75 191.98,-304.92 882.82,-919.69 1332.18,-947.81 0,0 -802.82,465.74 -1351.01,1190 -118.32,156.24 -205.74,295.35 -257.77,394.91 -44.33,84.9 -62.56,141.7 -45.41,153.4l12.32 -13.9c1044.78,-457.72 1346.55,-474.14 1444.57,-386.69 87.74,78.26 -365.66,339.22 163.13,336.66 347.69,-15.18 577.04,-154.96 794.17,-282.53 3.02,-5.39 5.99,-10.72 8.95,-16.07 -486.4,184.88 -651.98,199.14 -918.48,179.18l46.91 -66.5c91.22,-145.57 -16.71,-298.85 -160.12,-325.37 -148.86,-27.57 -491.26,95.71 -806.26,239.13 -162.99,74.21 -337.89,158.51 -493.71,245.81 83.24,-127.24 201.94,-246.62 301.08,-361.77 22.05,-25.64 43.51,-50.43 65.32,-75.7 587.31,-35.66 1181.66,-432.1 1554.32,-900.8l-315.51 -8.86 439.65 -162.98c169.68,-258.37 267.86,-527.26 258.45,-761.56zm-2693 1341.12c-3.05,-89.61 39.19,-196.14 67.68,-261.02l30.83 -73.37 27.03 -53.57 17.04 -31.93 15.92 -25.98 16.94 -26.19c13.23,-18.63 27.71,-36.93 42.36,-54.88 34.5,-37.17 78.19,-70.96 129.57,-79.01 62.86,-9.88 106.31,-3.29 147.85,48.18 72.87,90.29 69.01,255.84 61.62,355.46 -0.69,42.94 -3.38,109.13 -21.63,148.6l-0.21 0.46 -0.25 0.43c-13.68,23.18 -33.69,20.32 -51.22,5.96 0.37,7.62 -0.37,15.53 -0.6,20.04 -1.4,27.47 -4.37,55.27 -7.34,82.6 -6.08,56.27 -16.98,120.58 -40.99,172.25l-0.42 0.91 -0.59 0.81c-19.36,26.26 -45.04,37.72 -73.71,18.37l-5.15 -3.04 -7.64 20.3 -7.17 -0.22c-30.01,-0.93 -71.38,-170.02 -68.95,-241.96 0.96,-42.33 22.72,-76.74 49.68,-90.36 12.83,-6.49 28.32,-5.86 44.64,0.08 61.41,23.08 9.55,185.88 9.23,234.6 -0.62,7.99 -2.13,37.39 6.61,40.14 6.15,1.93 11.11,2.08 14.99,-3.5 5.85,-8.63 10.96,-17.71 15.42,-27.14 4.07,-8.59 7.52,-28.25 9.44,-37.74 5.93,-29.36 10.91,-59.05 15.77,-88.6 4.67,-28.1 9.42,-56.75 15.7,-84.52 1.74,-7.67 5.81,-32.06 16.87,-33.75 -43.29,-81.67 -83.86,-190.45 -43.05,-278.66 15.85,-34.25 50.01,-30.92 79.52,-19.29l1.67 -3.6c-4.27,-85.48 -22.1,-148.98 -69.92,-174.85 -23.35,-12.62 -53.87,-16.29 -93.46,-9.14 -66.44,11.92 -120.48,95.9 -150.41,149.86 -48.11,86.98 -90.79,177.56 -123.97,271.32 -6.45,28.35 -41.15,182.34 -5.08,199.03l4.04 1.87 1.32 4.25c6.59,21.16 1.24,35.14 -13.39,35.73l84.6 163c12.21,20.28 97.06,161.13 122.46,183.26 3.88,-20.82 -17.21,-93.46 -19.54,-106.65 -5.36,-30.26 -10.9,-62.26 -13.02,-92.93 -0.8,-11.64 -3.5,-39.07 11.47,-43.41 27.43,-7.98 66.72,184.2 71.91,226.66 1.73,14.11 4.61,34.3 3.47,48.41 -1.2,14.84 -6.77,30.29 -22.64,34.33 -16.23,4.25 -40.37,-8.17 -54.02,-15.64 -13.1,-6.49 -35.22,-36.58 -57.07,-70.31 6.57,14.92 13.2,29.81 19.84,44.67 21.51,48.38 57.52,132.73 65.34,196.2 2.81,22.76 4.91,74.99 -38.93,46.19 -44.6,-29.3 -107.53,-135.39 -116.63,-149.66 -49.67,-77.95 -88.34,-160.89 -135.55,-239.8 47.21,121.3 89.04,251.35 160.76,359.75 31.39,47.43 63.98,97.11 90.7,147.34 7.45,13.99 25.57,51.56 13.02,66.99 -19.3,24.27 -55.47,5.02 -74.95,-6.84 -19.99,-12.17 -57.98,-36.53 -59.66,-62.83 -1.1,-16.74 4.19,-32.36 21.68,-37.17 2.82,-0.79 5.53,-1.23 8.07,-1.32 -98.35,-163.33 -220.23,-423.04 -236.86,-588.5 -0.47,-18.9 10.92,-29.88 29.82,-25.95l3.76 0.79 2.28 3.09c87.49,118.87 162.49,255.06 229.71,386.26 6.37,8.63 22.91,31.7 38.23,51.56 -25.85,-76.9 -55.74,-153.14 -86.17,-228 -51.96,-127.81 -107.61,-254.35 -164.47,-380.05l-0.75 -1.66 -0.12 -1.81c-1.53,-22.84 6.37,-49.89 34.71,-34.36l2.68 1.47 9.34 18zm497.54 -110.58c7.54,-10.27 12.93,-56.84 13.9,-66.18 3.19,-30.14 12.85,-131.34 -23.42,-148.12l-6.23 -2.88c-16.67,0.77 -23.02,11.72 -25.42,28.01l-0.21 1.44 -0.61 1.32c-15.28,33.04 10.57,111.8 21.67,143.69 2.33,6.65 13.09,35.96 20.31,42.73zm-158.74 253.82c5.73,-25.68 11.42,-70.09 14.13,-96.6 2.9,-28.4 5.22,-64.04 -6,-72.9 -34.48,-5.43 -42.12,53.3 -33.59,97.65 4.47,23.24 11.88,67.77 25.46,71.85zm1435.42 -1237.95c19.1,-33.51 49.64,-207.14 61.47,-277.32l-145.63 140.17c0.74,12.72 24.57,45.68 29.9,52.57 22.81,29.28 36.33,52.02 54.26,84.58zm-1045.52 550.68l-16.06 136.99 -0.25 0.83c-4.74,15.9 -12.38,31.92 -25.15,42.94 -16.26,14.02 -35.01,5.69 -49.17,-6.83l-1.57 -1.38 -0.88 -1.89c-16.29,-34.87 -64.67,-137.94 -55.88,-176.85 6.94,-29.98 26.08,-38.68 40.68,-7.52l0.42 0.89 0.24 0.96c4.06,16.43 28.74,115.33 43.03,137.77 8.17,-19.03 13.01,-86.69 13.84,-99.34 4.72,-73.42 4.9,-147.17 -0.39,-220.57l-0.12 -1.6 0.39 -1.56c6.92,-27.61 26.66,-31.72 47.68,-14.13l3.14 2.62 0.41 4.07c1.43,14.38 8.8,88.49 16.6,129.35 0.59,3.13 9.03,44.14 21.36,32.34 13.12,-29.85 18.97,-66.32 22.09,-98.46 1.29,-12.88 3.46,-62.36 22.68,-63.32 4.62,-0.23 8.59,2.1 11.45,5.56l0.38 0.46 0.32 0.5 1.23 2.01c-23.03,-84.03 -22.44,-171.33 34.98,-243.37 19.13,-27.98 48.28,-28.22 77.45,-16.01l3.04 1.27 1.7 2.83c3.64,6.09 6.67,12.38 9.13,18.83 5.62,-13.2 15.4,-22 32.38,-14.93l7.47 3.11 -1.46 7.96c-3.53,19.24 -16.86,95.35 -3.36,112 0.82,1 3.36,4.1 4.76,4.41 11.05,-4.28 41.95,-72.86 48.37,-85.29 15.59,-10.35 27.88,-3.08 33.06,13.21 -6.6,34.72 -31.64,79.21 -54.19,106.43 -20.08,21.63 -42.45,15.12 -57.69,-6.4 -13.25,46.75 -35.38,118.79 -58.03,146.14l-1.13 1.37 -1.53 0.9c-24.57,14.34 -46.92,1.5 -63.57,-18.2l-1.22 -1.44 -0.61 -1.78 -1.13 -3.38c4.14,30.48 -1.9,69.15 -5.97,92.19 -3.83,21.83 -15.11,94.42 -44.16,98.29 -17.28,2.44 -38.36,-9.95 -54.76,-22zm157.36 -397.07c-23.52,38.55 -27.2,87.69 -24.23,131.72 0.69,10.52 5.31,69.55 14.66,78.36 11.03,-6.02 35.77,-65.94 38.6,-75.73 12.28,-42.39 10.1,-85.59 -5.79,-127.84l-0.28 -0.74 -0.16 -0.78c-4.44,-21.77 -8.83,-20.5 -22.81,-4.99zm306.23 -120.84c2.89,1.23 5.56,-0.76 7.76,-2.61 50.59,-47.72 92.72,-105.92 128.56,-165.27l0.59 -0.96 0.78 -0.82c16.92,-17.53 32,-8.07 35,13.93l0.28 2.02 -0.53 1.96c-18.41,67.85 -88.12,145.59 -136.05,194.88l-0.76 0.79 -0.91 0.6c-24.68,16.26 -47.71,11.19 -67.43,-5.57l-24.93 53.35 -4.93 1.01c-11.6,2.38 -21.35,-2.94 -28.15,-12.23l-2.34 -3.19 28.05 -234.8 1.64 -2.17c13.96,-18.47 30.97,-15.74 40.51,4.85l1.06 2.27 -2.48 45.69c17.51,-36.79 40.18,-75.27 68.07,-100.03l0.87 -0.78 1.03 -0.56c14.93,-8.03 27.53,-1.57 31.83,14.44l1.11 4.14 -2.23 3.66c-12.67,20.89 -95.39,157.85 -76.41,185.4zm348.98 -232.44l-67.96 113.4 -0.94 0.91c-15.16,14.7 -31.97,12.64 -41.91,-6.3l-0.67 -1.28 -0.29 -1.42c-3.33,-16.67 -18.9,-83.39 -3.5,-96.61l0.32 -0.27 0.33 -0.25c21.31,-15.45 35.87,-1.47 40.6,20.7l0.32 1.5 -0.15 1.54c-0.16,1.75 -0.46,5.06 -0.73,8.87 46.96,-74.48 91,-157.62 114.93,-242.4 3.61,-12.84 23.74,-47.81 41.63,-42.74 10.78,3.06 12.88,16.34 13.62,25.82 -1.73,19.47 -13.6,42.57 -20.76,60.74 -13.86,35.15 -28.57,70.05 -43.4,104.8 0.74,9.03 1.28,19.44 5.15,27.87 18.87,-0.86 27.69,-12.88 36.96,-26.86 16.11,-24.25 31.49,-53.88 40.82,-78.89l1.47 -3.92 3.82 -1.72c14.34,-6.45 20.28,2.13 25.77,15.18 8.36,19.74 -13,53.92 -22.81,70.26 -13.87,23.11 -41.78,49.74 -63.14,66.51 -10.38,8.28 -30.62,23.43 -43.58,11.67 -5.49,-4.98 -11.24,-16.32 -15.92,-27.1zm699.33 -393.11c0.66,-6.53 2.14,-23.65 -6.83,-25.95 -10.75,-2.76 -21.74,0.52 -31.53,5.69l-31.43 14.61c-16.21,7.49 -29.98,18.92 -41.59,32.44 -26.21,30 -60.42,77.79 -44.03,119.98 3.78,9.85 8.41,19.03 19.91,14.1 35.44,-15.18 71.11,-37.84 89.71,-72.82l0.34 -0.63 0.42 -0.58c15.39,-21.02 42.4,-60.17 45.02,-86.84z"/>
    </clipPath>
    <clipPath id="id2">
     <path d="M2354.75 296.54c11.87,10.97 23.65,24.7 28.55,40.25 5.45,17.26 3.21,41.27 0.74,58.95 -2.69,18.61 -7.82,41.71 -19.74,56.89 -22.18,42.1 -54.6,92.26 -96.94,116.26 -22.66,12.72 -55.68,28.52 -82.42,24.67 -28.5,-4 -41.58,-32.64 -48.11,-57.44 -11.4,-43.24 14.5,-92.37 37.71,-127.24 30.63,-45.85 71.35,-80.26 125.4,-93.5 4.16,-2.65 6.28,-5.41 4.37,-10.61 -4.46,-12.04 -19.27,-28.92 -27.78,-38.37l-0.32 -0.36 -0.29 -0.39c-10.38,-14.03 -32.18,-43.85 -32.83,-61.83 -0.52,-13.59 4.32,-26.43 11.71,-37.64 9.75,-14.85 24.97,-28.48 38.69,-39.61l0.44 -0.35 0.47 -0.31c26.83,-17.17 54.22,-34.69 81.97,-49.9l44.06 -26.49c27.84,-15.98 58.67,-29.5 88.23,-41.94l0.45 -0.19 0.47 -0.15c14.3,-4.43 34.37,-9.58 49.33,-6.14 15.35,3.64 23.27,16.32 10.32,28.36 -8.53,8.18 -22.23,14.72 -33.06,19.52 -15.35,6.43 -30.51,13.49 -45.49,20.64l-29.99 14.6c-14.73,7.21 -29.33,14.74 -43.48,22.93 -13.41,7.95 -26.96,15.65 -40.49,23.46 -17.48,9.95 -34.52,21.9 -50.81,33.68 -7.38,5.34 -25.64,19.53 -23.72,30.45 1.94,10.45 5.58,20.2 11.26,29.13 5.72,8.8 11.33,17.62 16.8,26.53 8.93,14.23 16.96,30.95 24.52,46.12zm437.28 437.71c-319.78,26.56 -591.06,89.28 -821.67,176.07l-46.22 53.24 18.3 -69.69c29.96,-142.78 78.93,-333.87 163.81,-455.01l2.68 -3.82 -1.2 -4.51c-7.2,-27.12 -26.22,-31.92 -44.84,-10.72l-0.39 0.46 -0.34 0.49c-24.6,35.89 -128.58,188.33 -170.94,215.5 4.09,-46.49 28.94,-84.44 44.89,-125.55 -10.71,-52.23 -47.23,-20.65 -70.56,2.35 -9.84,9.68 -62.83,56.53 -42.95,72.98 7.09,6.06 17.16,5.64 26.79,3.06l-15.79 59.81 -0.06 0.96c-0.83,12.4 2.08,24.17 9.98,33.83 6.27,9.48 16.23,12.65 27.57,12.16 -32.36,30.88 -59.96,62.29 -91.84,89.68 -14.88,12.78 -56.55,47.67 -45.47,71.17l11.29 17.14c21.95,33.69 32.13,55.4 54.82,88.65l60.77 74.24 -18.01 20.75 -60.16 70.67 -0.66 -0.56 -158.44 182.58 111.27 -295.24c-697.48,356.64 -934.72,949.93 -1015.36,1290.75 191.98,-304.92 882.82,-919.69 1332.18,-947.81 0,0 -802.82,465.74 -1351.01,1190 -118.32,156.24 -205.74,295.35 -257.77,394.91 -44.33,84.9 -62.56,141.7 -45.41,153.4l12.32 -13.9 0 0c1044.78,-457.72 1346.55,-474.14 1444.57,-386.69 87.74,78.26 -365.66,339.22 163.13,336.66 347.69,-15.18 577.04,-154.96 794.17,-282.53 3.02,-5.39 5.99,-10.72 8.95,-16.07 -486.4,184.88 -651.98,199.14 -918.48,179.18l46.91 -66.5c91.22,-145.57 -16.71,-298.85 -160.12,-325.37 -148.86,-27.57 -491.26,95.71 -806.26,239.13 -162.99,74.21 -337.89,158.51 -493.71,245.81 83.24,-127.24 201.94,-246.62 301.08,-361.77 22.05,-25.64 43.51,-50.43 65.32,-75.7 587.31,-35.66 1181.66,-432.1 1554.32,-900.8l-315.51 -8.86 439.65 -162.98c169.68,-258.37 267.86,-527.26 258.45,-761.56zm-2693 1341.12c-3.05,-89.61 39.19,-196.14 67.68,-261.02l30.83 -73.37 27.03 -53.57 17.04 -31.93 15.92 -25.98 16.94 -26.19c13.23,-18.63 27.71,-36.93 42.36,-54.88 34.5,-37.17 78.19,-70.96 129.57,-79.01 62.86,-9.88 106.31,-3.29 147.85,48.18 72.87,90.29 69.01,255.84 61.62,355.46 -0.69,42.94 -3.38,109.13 -21.63,148.6l-0.21 0.46 -0.25 0.43c-13.68,23.18 -33.69,20.32 -51.22,5.96 0.37,7.62 -0.37,15.53 -0.6,20.04 -1.4,27.47 -4.37,55.27 -7.34,82.6 -6.08,56.27 -16.98,120.58 -40.99,172.25l-0.42 0.91 -0.59 0.81c-19.36,26.26 -45.04,37.72 -73.71,18.37l-5.15 -3.04 -7.64 20.3 -7.17 -0.22c-30.01,-0.93 -71.38,-170.02 -68.95,-241.96 0.96,-42.33 22.72,-76.74 49.68,-90.36 12.83,-6.49 28.32,-5.86 44.64,0.08 61.41,23.08 9.55,185.88 9.23,234.6 -0.62,7.99 -2.13,37.39 6.61,40.14 6.15,1.93 11.11,2.08 14.99,-3.5 5.85,-8.63 10.96,-17.71 15.42,-27.14 4.07,-8.59 7.52,-28.25 9.44,-37.74 5.93,-29.36 10.91,-59.05 15.77,-88.6 4.67,-28.1 9.42,-56.75 15.7,-84.52 1.74,-7.67 5.81,-32.06 16.87,-33.75 -43.29,-81.67 -83.86,-190.45 -43.05,-278.66 15.85,-34.25 50.01,-30.92 79.52,-19.29l1.67 -3.6c-4.27,-85.48 -22.1,-148.98 -69.92,-174.85 -23.35,-12.62 -53.87,-16.29 -93.46,-9.14 -66.44,11.92 -120.48,95.9 -150.41,149.86 -48.11,86.98 -90.79,177.56 -123.97,271.32 -6.45,28.35 -41.15,182.34 -5.08,199.03l4.04 1.87 1.32 4.25c6.59,21.16 1.24,35.14 -13.39,35.73l84.6 163c12.21,20.28 97.06,161.13 122.46,183.26 3.88,-20.82 -17.21,-93.46 -19.54,-106.65 -5.36,-30.26 -10.9,-62.26 -13.02,-92.93 -0.8,-11.64 -3.5,-39.07 11.47,-43.41 27.43,-7.98 66.72,184.2 71.91,226.66 1.73,14.11 4.61,34.3 3.47,48.41 -1.2,14.84 -6.77,30.29 -22.64,34.33 -16.23,4.25 -40.37,-8.17 -54.02,-15.64 -13.1,-6.49 -35.22,-36.58 -57.07,-70.31 6.57,14.92 13.2,29.81 19.84,44.67 21.51,48.38 57.52,132.73 65.34,196.2 2.81,22.76 4.91,74.99 -38.93,46.19 -44.6,-29.3 -107.53,-135.39 -116.63,-149.66 -49.67,-77.95 -88.34,-160.89 -135.55,-239.8 47.21,121.3 89.04,251.35 160.76,359.75 31.39,47.43 63.98,97.11 90.7,147.34 7.45,13.99 25.57,51.56 13.02,66.99 -19.3,24.27 -55.47,5.02 -74.95,-6.84 -19.99,-12.17 -57.98,-36.53 -59.66,-62.83 -1.1,-16.74 4.19,-32.36 21.68,-37.17 2.82,-0.79 5.53,-1.23 8.07,-1.32 -98.35,-163.33 -220.23,-423.04 -236.86,-588.5 -0.47,-18.9 10.92,-29.88 29.82,-25.95l3.76 0.79 2.28 3.09c87.49,118.87 162.49,255.06 229.71,386.26 6.37,8.63 22.91,31.7 38.23,51.56 -25.85,-76.9 -55.74,-153.14 -86.17,-228 -51.96,-127.81 -107.61,-254.35 -164.47,-380.05l-0.75 -1.66 -0.12 -1.81c-1.53,-22.84 6.37,-49.89 34.71,-34.36l2.68 1.47 9.34 18zm497.54 -110.58c7.54,-10.27 12.93,-56.84 13.9,-66.18 3.19,-30.14 12.85,-131.34 -23.42,-148.12l-6.23 -2.88c-16.67,0.77 -23.02,11.72 -25.42,28.01l-0.21 1.44 -0.61 1.32c-15.28,33.04 10.57,111.8 21.67,143.69 2.33,6.65 13.09,35.96 20.31,42.73zm-158.74 253.82c5.73,-25.68 11.42,-70.09 14.13,-96.6 2.9,-28.4 5.22,-64.04 -6,-72.9 -34.48,-5.43 -42.12,53.3 -33.59,97.65 4.47,23.24 11.88,67.77 25.46,71.85zm1435.42 -1237.95c19.1,-33.51 49.64,-207.14 61.47,-277.32l-145.63 140.17c0.74,12.72 24.57,45.68 29.9,52.57 22.81,29.28 36.33,52.02 54.26,84.58zm-1045.52 550.68l-16.06 136.99 -0.25 0.83c-4.74,15.9 -12.38,31.92 -25.15,42.94 -16.26,14.02 -35.01,5.69 -49.17,-6.83l-1.57 -1.38 -0.88 -1.89c-16.29,-34.87 -64.67,-137.94 -55.88,-176.85 6.94,-29.98 26.08,-38.68 40.68,-7.52l0.42 0.89 0.24 0.96c4.06,16.43 28.74,115.33 43.03,137.77 8.17,-19.03 13.01,-86.69 13.84,-99.34 4.72,-73.42 4.9,-147.17 -0.39,-220.57l-0.12 -1.6 0.39 -1.56c6.92,-27.61 26.66,-31.72 47.68,-14.13l3.14 2.62 0.41 4.07c1.43,14.38 8.8,88.49 16.6,129.35 0.59,3.13 9.03,44.14 21.36,32.34 13.12,-29.85 18.97,-66.32 22.09,-98.46 1.29,-12.88 3.46,-62.36 22.68,-63.32 4.62,-0.23 8.59,2.1 11.45,5.56l0.38 0.46 0.32 0.5 1.23 2.01c-23.03,-84.03 -22.44,-171.33 34.98,-243.37 19.13,-27.98 48.28,-28.22 77.45,-16.01l3.04 1.27 1.7 2.83c3.64,6.09 6.67,12.38 9.13,18.83 5.62,-13.2 15.4,-22 32.38,-14.93l7.47 3.11 -1.46 7.96c-3.53,19.24 -16.86,95.35 -3.36,112 0.82,1 3.36,4.1 4.76,4.41 11.05,-4.28 41.95,-72.86 48.37,-85.29 15.59,-10.35 27.88,-3.08 33.06,13.21 -6.6,34.72 -31.64,79.21 -54.19,106.43 -20.08,21.63 -42.45,15.12 -57.69,-6.4 -13.25,46.75 -35.38,118.79 -58.03,146.14l-1.13 1.37 -1.53 0.9c-24.57,14.34 -46.92,1.5 -63.57,-18.2l-1.22 -1.44 -0.61 -1.78 -1.13 -3.38c4.14,30.48 -1.9,69.15 -5.97,92.19 -3.83,21.83 -15.11,94.42 -44.16,98.29 -17.28,2.44 -38.36,-9.95 -54.76,-22zm157.36 -397.07c-23.52,38.55 -27.2,87.69 -24.23,131.72 0.69,10.52 5.31,69.55 14.66,78.36 11.03,-6.02 35.77,-65.94 38.6,-75.73 12.28,-42.39 10.1,-85.59 -5.79,-127.84l-0.28 -0.74 -0.16 -0.78c-4.44,-21.77 -8.83,-20.5 -22.81,-4.99zm306.23 -120.84c2.89,1.23 5.56,-0.76 7.76,-2.61 50.59,-47.72 92.72,-105.92 128.56,-165.27l0.59 -0.96 0.78 -0.82c16.92,-17.53 32,-8.07 35,13.93l0.28 2.02 -0.53 1.96c-18.41,67.85 -88.12,145.59 -136.05,194.88l-0.76 0.79 -0.91 0.6c-24.68,16.26 -47.71,11.19 -67.43,-5.57l-24.93 53.35 -4.93 1.01c-11.6,2.38 -21.35,-2.94 -28.15,-12.23l-2.34 -3.19 28.05 -234.8 1.64 -2.17c13.96,-18.47 30.97,-15.74 40.51,4.85l1.06 2.27 -2.48 45.69c17.51,-36.79 40.18,-75.27 68.07,-100.03l0.87 -0.78 1.03 -0.56c14.93,-8.03 27.53,-1.57 31.83,14.44l1.11 4.14 -2.23 3.66c-12.67,20.89 -95.39,157.85 -76.41,185.4zm348.98 -232.44l-67.96 113.4 -0.94 0.91c-15.16,14.7 -31.97,12.64 -41.91,-6.3l-0.67 -1.28 -0.29 -1.42c-3.33,-16.67 -18.9,-83.39 -3.5,-96.61l0.32 -0.27 0.33 -0.25c21.31,-15.45 35.87,-1.47 40.6,20.7l0.32 1.5 -0.15 1.54c-0.16,1.75 -0.46,5.06 -0.73,8.87 46.96,-74.48 91,-157.62 114.93,-242.4 3.61,-12.84 23.74,-47.81 41.63,-42.74 10.78,3.06 12.88,16.34 13.62,25.82 -1.73,19.47 -13.6,42.57 -20.76,60.74 -13.86,35.15 -28.57,70.05 -43.4,104.8 0.74,9.03 1.28,19.44 5.15,27.87 18.87,-0.86 27.69,-12.88 36.96,-26.86 16.11,-24.25 31.49,-53.88 40.82,-78.89l1.47 -3.92 3.82 -1.72c14.34,-6.45 20.28,2.13 25.77,15.18 8.36,19.74 -13,53.92 -22.81,70.26 -13.87,23.11 -41.78,49.74 -63.14,66.51 -10.38,8.28 -30.62,23.43 -43.58,11.67 -5.49,-4.98 -11.24,-16.32 -15.92,-27.1zm699.33 -393.11c0.66,-6.53 2.14,-23.65 -6.83,-25.95 -10.75,-2.76 -21.74,0.52 -31.53,5.69l-31.43 14.61c-16.21,7.49 -29.98,18.92 -41.59,32.44 -26.21,30 -60.42,77.79 -44.03,119.98 3.78,9.85 8.41,19.03 19.91,14.1 35.44,-15.18 71.11,-37.84 89.71,-72.82l0.34 -0.63 0.42 -0.58c15.39,-21.02 42.4,-60.17 45.02,-86.84z"/>
    </clipPath>
 </defs>
 <g id="Layer_x0020_1">
  <metadata id="CorelCorpID_0Corel-Layer"/>
  <g>
  </g>
  <g style="clip-path:url(#id0)">
   <g>
   </g>
   <g style="clip-path:url(#id1)">
    <image x="-30.84" y="-30.84" width="2918.97" height="3167.84" xlink:href="ОА548500_Images\ОА548500_ImgID1.png"/>
   </g>
   <g style="clip-path:url(#id2)">
   </g>
  </g>
  <path class="fil0" d="M2354.75 296.54c11.87,10.97 23.65,24.7 28.55,40.25 5.45,17.26 3.21,41.27 0.74,58.95 -2.69,18.61 -7.82,41.71 -19.74,56.89 -22.18,42.1 -54.6,92.26 -96.94,116.26 -22.66,12.72 -55.68,28.52 -82.42,24.67 -28.5,-4 -41.58,-32.64 -48.11,-57.44 -11.4,-43.24 14.5,-92.37 37.71,-127.24 30.63,-45.85 71.35,-80.26 125.4,-93.5 4.16,-2.65 6.28,-5.41 4.37,-10.61 -4.46,-12.04 -19.27,-28.92 -27.78,-38.37l-0.32 -0.36 -0.29 -0.39c-10.38,-14.03 -32.18,-43.85 -32.83,-61.83 -0.52,-13.59 4.32,-26.43 11.71,-37.64 9.75,-14.85 24.97,-28.48 38.69,-39.61l0.44 -0.35 0.47 -0.31c26.83,-17.17 54.22,-34.69 81.97,-49.9l44.06 -26.49c27.84,-15.98 58.67,-29.5 88.23,-41.94l0.45 -0.19 0.47 -0.15c14.3,-4.43 34.37,-9.58 49.33,-6.14 15.35,3.64 23.27,16.32 10.32,28.36 -8.53,8.18 -22.23,14.72 -33.06,19.52 -15.35,6.43 -30.51,13.49 -45.49,20.64l-29.99 14.6c-14.73,7.21 -29.33,14.74 -43.48,22.93 -13.41,7.95 -26.96,15.65 -40.49,23.46 -17.48,9.95 -34.52,21.9 -50.81,33.68 -7.38,5.34 -25.64,19.53 -23.72,30.45 1.94,10.45 5.58,20.2 11.26,29.13 5.72,8.8 11.33,17.62 16.8,26.53 8.93,14.23 16.96,30.95 24.52,46.12zm437.28 437.71c-319.78,26.56 -591.06,89.28 -821.67,176.07l-46.22 53.24 18.3 -69.69c29.96,-142.78 78.93,-333.87 163.81,-455.01l2.68 -3.82 -1.2 -4.51c-7.2,-27.12 -26.22,-31.92 -44.84,-10.72l-0.39 0.46 -0.34 0.49c-24.6,35.89 -128.58,188.33 -170.94,215.5 4.09,-46.49 28.94,-84.44 44.89,-125.55 -10.71,-52.23 -47.23,-20.65 -70.56,2.35 -9.84,9.68 -62.83,56.53 -42.95,72.98 7.09,6.06 17.16,5.64 26.79,3.06l-15.79 59.81 -0.06 0.96c-0.83,12.4 2.08,24.17 9.98,33.83 6.27,9.48 16.23,12.65 27.57,12.16 -32.36,30.88 -59.96,62.29 -91.84,89.68 -14.88,12.78 -56.55,47.67 -45.47,71.17l11.29 17.14c21.95,33.69 32.13,55.4 54.82,88.65l60.77 74.24 -18.01 20.75 -60.16 70.67 -0.66 -0.56 -158.44 182.58 111.27 -295.24c-697.48,356.64 -934.72,949.93 -1015.36,1290.75 191.98,-304.92 882.82,-919.69 1332.18,-947.81 0,0 -802.82,465.74 -1351.01,1190 -118.32,156.24 -205.74,295.35 -257.77,394.91 -44.33,84.9 -62.56,141.7 -45.41,153.4l12.32 -13.9 0 0c1044.78,-457.72 1346.55,-474.14 1444.57,-386.69 87.74,78.26 -365.66,339.22 163.13,336.66 347.69,-15.18 577.04,-154.96 794.17,-282.53 3.02,-5.39 5.99,-10.72 8.95,-16.07 -486.4,184.88 -651.98,199.14 -918.48,179.18l46.91 -66.5c91.22,-145.57 -16.71,-298.85 -160.12,-325.37 -148.86,-27.57 -491.26,95.71 -806.26,239.13 -162.99,74.21 -337.89,158.51 -493.71,245.81 83.24,-127.24 201.94,-246.62 301.08,-361.77 22.05,-25.64 43.51,-50.43 65.32,-75.7 587.31,-35.66 1181.66,-432.1 1554.32,-900.8l-315.51 -8.86 439.65 -162.98c169.68,-258.37 267.86,-527.26 258.45,-761.56zm-2693 1341.12c-3.05,-89.61 39.19,-196.14 67.68,-261.02l30.83 -73.37 27.03 -53.57 17.04 -31.93 15.92 -25.98 16.94 -26.19c13.23,-18.63 27.71,-36.93 42.36,-54.88 34.5,-37.17 78.19,-70.96 129.57,-79.01 62.86,-9.88 106.31,-3.29 147.85,48.18 72.87,90.29 69.01,255.84 61.62,355.46 -0.69,42.94 -3.38,109.13 -21.63,148.6l-0.21 0.46 -0.25 0.43c-13.68,23.18 -33.69,20.32 -51.22,5.96 0.37,7.62 -0.37,15.53 -0.6,20.04 -1.4,27.47 -4.37,55.27 -7.34,82.6 -6.08,56.27 -16.98,120.58 -40.99,172.25l-0.42 0.91 -0.59 0.81c-19.36,26.26 -45.04,37.72 -73.71,18.37l-5.15 -3.04 -7.64 20.3 -7.17 -0.22c-30.01,-0.93 -71.38,-170.02 -68.95,-241.96 0.96,-42.33 22.72,-76.74 49.68,-90.36 12.83,-6.49 28.32,-5.86 44.64,0.08 61.41,23.08 9.55,185.88 9.23,234.6 -0.62,7.99 -2.13,37.39 6.61,40.14 6.15,1.93 11.11,2.08 14.99,-3.5 5.85,-8.63 10.96,-17.71 15.42,-27.14 4.07,-8.59 7.52,-28.25 9.44,-37.74 5.93,-29.36 10.91,-59.05 15.77,-88.6 4.67,-28.1 9.42,-56.75 15.7,-84.52 1.74,-7.67 5.81,-32.06 16.87,-33.75 -43.29,-81.67 -83.86,-190.45 -43.05,-278.66 15.85,-34.25 50.01,-30.92 79.52,-19.29l1.67 -3.6c-4.27,-85.48 -22.1,-148.98 -69.92,-174.85 -23.35,-12.62 -53.87,-16.29 -93.46,-9.14 -66.44,11.92 -120.48,95.9 -150.41,149.86 -48.11,86.98 -90.79,177.56 -123.97,271.32 -6.45,28.35 -41.15,182.34 -5.08,199.03l4.04 1.87 1.32 4.25c6.59,21.16 1.24,35.14 -13.39,35.73l84.6 163c12.21,20.28 97.06,161.13 122.46,183.26 3.88,-20.82 -17.21,-93.46 -19.54,-106.65 -5.36,-30.26 -10.9,-62.26 -13.02,-92.93 -0.8,-11.64 -3.5,-39.07 11.47,-43.41 27.43,-7.98 66.72,184.2 71.91,226.66 1.73,14.11 4.61,34.3 3.47,48.41 -1.2,14.84 -6.77,30.29 -22.64,34.33 -16.23,4.25 -40.37,-8.17 -54.02,-15.64 -13.1,-6.49 -35.22,-36.58 -57.07,-70.31 6.57,14.92 13.2,29.81 19.84,44.67 21.51,48.38 57.52,132.73 65.34,196.2 2.81,22.76 4.91,74.99 -38.93,46.19 -44.6,-29.3 -107.53,-135.39 -116.63,-149.66 -49.67,-77.95 -88.34,-160.89 -135.55,-239.8 47.21,121.3 89.04,251.35 160.76,359.75 31.39,47.43 63.98,97.11 90.7,147.34 7.45,13.99 25.57,51.56 13.02,66.99 -19.3,24.27 -55.47,5.02 -74.95,-6.84 -19.99,-12.17 -57.98,-36.53 -59.66,-62.83 -1.1,-16.74 4.19,-32.36 21.68,-37.17 2.82,-0.79 5.53,-1.23 8.07,-1.32 -98.35,-163.33 -220.23,-423.04 -236.86,-588.5 -0.47,-18.9 10.92,-29.88 29.82,-25.95l3.76 0.79 2.28 3.09c87.49,118.87 162.49,255.06 229.71,386.26 6.37,8.63 22.91,31.7 38.23,51.56 -25.85,-76.9 -55.74,-153.14 -86.17,-228 -51.96,-127.81 -107.61,-254.35 -164.47,-380.05l-0.75 -1.66 -0.12 -1.81c-1.53,-22.84 6.37,-49.89 34.71,-34.36l2.68 1.47 9.34 18zm497.54 -110.58c7.54,-10.27 12.93,-56.84 13.9,-66.18 3.19,-30.14 12.85,-131.34 -23.42,-148.12l-6.23 -2.88c-16.67,0.77 -23.02,11.72 -25.42,28.01l-0.21 1.44 -0.61 1.32c-15.28,33.04 10.57,111.8 21.67,143.69 2.33,6.65 13.09,35.96 20.31,42.73zm-158.74 253.82c5.73,-25.68 11.42,-70.09 14.13,-96.6 2.9,-28.4 5.22,-64.04 -6,-72.9 -34.48,-5.43 -42.12,53.3 -33.59,97.65 4.47,23.24 11.88,67.77 25.46,71.85zm1435.42 -1237.95c19.1,-33.51 49.64,-207.14 61.47,-277.32l-145.63 140.17c0.74,12.72 24.57,45.68 29.9,52.57 22.81,29.28 36.33,52.02 54.26,84.58zm-1045.52 550.68l-16.06 136.99 -0.25 0.83c-4.74,15.9 -12.38,31.92 -25.15,42.94 -16.26,14.02 -35.01,5.69 -49.17,-6.83l-1.57 -1.38 -0.88 -1.89c-16.29,-34.87 -64.67,-137.94 -55.88,-176.85 6.94,-29.98 26.08,-38.68 40.68,-7.52l0.42 0.89 0.24 0.96c4.06,16.43 28.74,115.33 43.03,137.77 8.17,-19.03 13.01,-86.69 13.84,-99.34 4.72,-73.42 4.9,-147.17 -0.39,-220.57l-0.12 -1.6 0.39 -1.56c6.92,-27.61 26.66,-31.72 47.68,-14.13l3.14 2.62 0.41 4.07c1.43,14.38 8.8,88.49 16.6,129.35 0.59,3.13 9.03,44.14 21.36,32.34 13.12,-29.85 18.97,-66.32 22.09,-98.46 1.29,-12.88 3.46,-62.36 22.68,-63.32 4.62,-0.23 8.59,2.1 11.45,5.56l0.38 0.46 0.32 0.5 1.23 2.01c-23.03,-84.03 -22.44,-171.33 34.98,-243.37 19.13,-27.98 48.28,-28.22 77.45,-16.01l3.04 1.27 1.7 2.83c3.64,6.09 6.67,12.38 9.13,18.83 5.62,-13.2 15.4,-22 32.38,-14.93l7.47 3.11 -1.46 7.96c-3.53,19.24 -16.86,95.35 -3.36,112 0.82,1 3.36,4.1 4.76,4.41 11.05,-4.28 41.95,-72.86 48.37,-85.29 15.59,-10.35 27.88,-3.08 33.06,13.21 -6.6,34.72 -31.64,79.21 -54.19,106.43 -20.08,21.63 -42.45,15.12 -57.69,-6.4 -13.25,46.75 -35.38,118.79 -58.03,146.14l-1.13 1.37 -1.53 0.9c-24.57,14.34 -46.92,1.5 -63.57,-18.2l-1.22 -1.44 -0.61 -1.78 -1.13 -3.38c4.14,30.48 -1.9,69.15 -5.97,92.19 -3.83,21.83 -15.11,94.42 -44.16,98.29 -17.28,2.44 -38.36,-9.95 -54.76,-22zm157.36 -397.07c-23.52,38.55 -27.2,87.69 -24.23,131.72 0.69,10.52 5.31,69.55 14.66,78.36 11.03,-6.02 35.77,-65.94 38.6,-75.73 12.28,-42.39 10.1,-85.59 -5.79,-127.84l-0.28 -0.74 -0.16 -0.78c-4.44,-21.77 -8.83,-20.5 -22.81,-4.99zm306.23 -120.84c2.89,1.23 5.56,-0.76 7.76,-2.61 50.59,-47.72 92.72,-105.92 128.56,-165.27l0.59 -0.96 0.78 -0.82c16.92,-17.53 32,-8.07 35,13.93l0.28 2.02 -0.53 1.96c-18.41,67.85 -88.12,145.59 -136.05,194.88l-0.76 0.79 -0.91 0.6c-24.68,16.26 -47.71,11.19 -67.43,-5.57l-24.93 53.35 -4.93 1.01c-11.6,2.38 -21.35,-2.94 -28.15,-12.23l-2.34 -3.19 28.05 -234.8 1.64 -2.17c13.96,-18.47 30.97,-15.74 40.51,4.85l1.06 2.27 -2.48 45.69c17.51,-36.79 40.18,-75.27 68.07,-100.03l0.87 -0.78 1.03 -0.56c14.93,-8.03 27.53,-1.57 31.83,14.44l1.11 4.14 -2.23 3.66c-12.67,20.89 -95.39,157.85 -76.41,185.4zm348.98 -232.44l-67.96 113.4 -0.94 0.91c-15.16,14.7 -31.97,12.64 -41.91,-6.3l-0.67 -1.28 -0.29 -1.42c-3.33,-16.67 -18.9,-83.39 -3.5,-96.61l0.32 -0.27 0.33 -0.25c21.31,-15.45 35.87,-1.47 40.6,20.7l0.32 1.5 -0.15 1.54c-0.16,1.75 -0.46,5.06 -0.73,8.87 46.96,-74.48 91,-157.62 114.93,-242.4 3.61,-12.84 23.74,-47.81 41.63,-42.74 10.78,3.06 12.88,16.34 13.62,25.82 -1.73,19.47 -13.6,42.57 -20.76,60.74 -13.86,35.15 -28.57,70.05 -43.4,104.8 0.74,9.03 1.28,19.44 5.15,27.87 18.87,-0.86 27.69,-12.88 36.96,-26.86 16.11,-24.25 31.49,-53.88 40.82,-78.89l1.47 -3.92 3.82 -1.72c14.34,-6.45 20.28,2.13 25.77,15.18 8.36,19.74 -13,53.92 -22.81,70.26 -13.87,23.11 -41.78,49.74 -63.14,66.51 -10.38,8.28 -30.62,23.43 -43.58,11.67 -5.49,-4.98 -11.24,-16.32 -15.92,-27.1zm699.33 -393.11c0.66,-6.53 2.14,-23.65 -6.83,-25.95 -10.75,-2.76 -21.74,0.52 -31.53,5.69l-31.43 14.61c-16.21,7.49 -29.98,18.92 -41.59,32.44 -26.21,30 -60.42,77.79 -44.03,119.98 3.78,9.85 8.41,19.03 19.91,14.1 35.44,-15.18 71.11,-37.84 89.71,-72.82l0.34 -0.63 0.42 -0.58c15.39,-21.02 42.4,-60.17 45.02,-86.84z"/>
 </g>
</svg>
