<?xml version="1.0" encoding="UTF-8"?>
<!DOCTYPE svg PUBLIC "-//W3C//DTD SVG 1.1//EN" "http://www.w3.org/Graphics/SVG/1.1/DTD/svg11.dtd">
<!-- Creator: CorelDRAW 2021 (64-Bit) -->
<svg xmlns="http://www.w3.org/2000/svg" xml:space="preserve" width="270.36mm" height="92.4483mm" version="1.1" style="shape-rendering:geometricPrecision; text-rendering:geometricPrecision; image-rendering:optimizeQuality; fill-rule:evenodd; clip-rule:evenodd"
viewBox="0 0 28604.94 9781.34"
 xmlns:xlink="http://www.w3.org/1999/xlink"
 xmlns:xodm="http://www.corel.com/coreldraw/odm/2003">
 <defs>
  <style type="text/css">
   <![CDATA[
    .fil0 {fill:#009CA3;fill-rule:nonzero}
   ]]>
  </style>
 </defs>
 <g id="Layer_x0020_1">
  <metadata id="CorelCorpID_0Corel-Layer"/>
  <g id="_1498157328720">
   <path class="fil0" d="M-0 3151.32l873.36 0 0 -814.84 319.63 -355.65 792.33 1170.49 1048.93 0 -1233.51 -1796.26 1193 -1355.07 -1035.43 0 -1084.95 1278.54 0 -1278.54 -873.36 0 0 3151.32zm3763.56 0l855.36 0 0 -1746.73 711.29 0 0 -688.79 -2277.95 0 0 688.79 711.29 0 0 1746.73zm3083.79 58.52c196.58,-1.49 377.41,-35.26 541.72,-101.29 164.32,-66.78 306.88,-158.31 427.68,-276.11 120.81,-117.05 213.84,-252.11 280.62,-405.17 66.02,-153.07 99.78,-316.63 100.53,-491.46 -0.75,-177.07 -34.51,-342.14 -99.78,-495.2 -66.03,-153.82 -159.08,-288.87 -279.12,-405.17 -119.3,-116.3 -261.11,-207.83 -424.67,-273.11 -162.82,-66.03 -342.15,-99.79 -537.98,-100.54 -196.58,1.5 -377.41,35.26 -541.72,101.3 -164.32,66.77 -306.13,158.31 -426.93,275.36 -120.81,117.8 -214.59,252.86 -281.37,405.91 -66.03,153.07 -99.79,316.64 -100.54,491.46 0.75,176.33 34.51,342.15 99.79,495.21 66.03,153.82 159.06,288.86 279.12,405.16 120.04,116.3 261.11,207.84 424.67,273.12 162.82,66.02 342.15,99.04 537.98,100.53zm9 -724.8c-75.79,-0.75 -144.81,-15.01 -207.84,-44.27 -63.03,-28.51 -117.8,-68.29 -164.31,-118.55 -45.77,-51.02 -81.79,-109.55 -107.3,-175.57 -24.77,-65.28 -38.27,-135.81 -38.27,-210.84 0.75,-102.04 21.75,-193.58 63.03,-276.87 41.26,-82.53 99.79,-147.81 175.57,-197.32 75.79,-48.78 165.83,-74.28 270.12,-75.04 75.78,0.75 145.56,15 207.84,44.27 63.02,28.51 117.79,68.27 164.31,118.55 45.77,51.02 81.79,109.54 107.3,174.82 25.51,66.03 38.27,136.56 38.27,211.59 -0.75,102.05 -21.01,193.59 -63.03,276.11 -41.27,82.54 -99.79,148.57 -175.57,198.09 -75.79,48.78 -165.83,73.53 -270.12,75.04zm1629.68 1409.09c141.07,-3.76 268.61,-22.51 382.66,-57.03 113.3,-33.76 210.84,-86.28 291.88,-156.81 81.03,-71.28 143.31,-163.57 186.83,-278.37 43.52,-115.55 65.27,-255.85 66.02,-421.68l0 -715.8 -891.37 0 0 877.87 346.64 0 0 18.01c-0.75,114.8 -39.01,207.09 -115.55,275.36 -76.53,68.27 -187.58,111.8 -334.63,129.81l67.52 328.64zm3804.1 -684.29c162.07,-0.74 307.62,-21.75 438.18,-62.28 130.55,-41.26 246.85,-98.29 349.65,-172.57 102.04,-73.53 192.08,-160.57 270.11,-260.36l-472.7 -391.66c-86.28,84.78 -173.32,147.81 -259.61,188.33 -87.03,39.76 -180.07,60.02 -280.61,59.27 -133.56,0 -246.11,-33.76 -337.64,-100.54 -90.79,-67.52 -153.82,-167.32 -189.08,-300.12l1629.68 0c2.25,-29.27 3.76,-59.27 3.76,-89.29 0.75,-30.02 0.75,-59.27 0.75,-86.28 0,-144.06 -15.76,-281.37 -47.27,-413.43 -31.52,-132.05 -78.78,-253.6 -142.56,-364.65 -64.53,-111.79 -145.56,-208.59 -243.1,-291.87 -97.54,-82.54 -212.34,-147.07 -345.14,-192.84 -132.05,-45.76 -282.87,-69.03 -450.94,-69.78 -180.82,0.75 -345.89,33.76 -495.95,99.04 -150.06,65.28 -279.12,155.32 -388.66,270.87 -109.55,116.3 -193.59,251.36 -253.61,405.16 -60.02,153.82 -90.04,319.63 -90.79,498.96 0.75,192.09 33.02,366.15 96.05,522.22 63.77,155.31 153.81,289.62 270.11,401.42 115.55,112.54 253.61,198.83 412.68,258.86 159.06,60.02 334.63,90.79 526.72,91.53zm-495.21 -1476.61c15.01,-89.29 42.03,-166.57 79.54,-232.6 38.26,-66.02 86.28,-117.05 144.05,-153.07 57.78,-36.77 124.55,-54.77 199.59,-55.52 78.03,0 147.06,18.75 207.09,54.02 59.27,36 107.3,87.03 144.06,152.3 37.51,66.03 61.52,144.06 72.03,234.85l-846.36 0zm3187.33 1476.61c177.82,-0.74 334.65,-24.01 469.7,-70.53 134.31,-46.51 252.1,-111.79 352.64,-195.08 100.54,-83.28 188.33,-180.82 262.61,-292.62l-580.74 -418.67c-44.27,52.52 -89.29,98.29 -134.31,136.56 -45.02,38.26 -93.04,67.52 -145.56,88.54 -52.52,21 -112.54,31.51 -179.33,31.51 -96.79,-0.75 -181.57,-25.51 -254.35,-73.53 -72.78,-48.01 -129.06,-113.29 -169.57,-196.57 -41.26,-83.29 -61.52,-177.83 -62.28,-283.63 0.75,-103.54 20.26,-195.83 60.77,-278.36 39.77,-82.54 96.79,-147.82 171.07,-196.58 75.04,-48.78 163.57,-73.53 267.86,-74.28 91.54,0 174.07,19.51 246.1,58.52 72.03,39.02 137.31,99.04 195.08,180.08l571.74 -414.17c-69.03,-110.3 -152.31,-206.34 -250.61,-287.37 -98.29,-81.03 -213.09,-144.06 -343.64,-189.08 -130.55,-45.02 -279.12,-67.52 -445.69,-68.27 -193.58,1.5 -369.16,35.26 -528.97,101.29 -159.06,66.78 -296.38,158.32 -412.66,275.37 -115.56,116.29 -204.84,251.35 -267.86,403.66 -63.03,153.07 -95.3,315.89 -96.05,489.2 0.75,175.58 33.02,339.89 96.05,493.71 63.03,153.07 151.56,288.12 265.61,405.17 114.8,116.29 249.1,207.83 403.67,273.86 154.56,66.77 324.13,99.79 508.7,101.29zm1580.17 -27.01c86.28,0.75 168.82,-7.5 247.6,-25.51 78.03,-18.01 151.56,-49.52 219.09,-94.54 68.29,-45.02 129.81,-108.8 184.57,-189.83 54.77,-81.79 101.3,-186.08 141.07,-312.88 39.01,-127.55 69.03,-281.36 90.04,-462.94 21,-180.82 31.51,-393.92 31.51,-638.51l0 -63.03 450.19 0 0 1755.73 855.36 0 0 -2435.52 -2102.39 0 0 468.2c0,207.83 -4.5,384.91 -12.75,531.97 -9,147.07 -21.01,268.61 -36.02,364.65 -15,96.79 -33.01,173.33 -53.27,229.59 -21.01,57.03 -42.77,98.29 -66.78,125.3 -24.01,27.01 -48.01,45.02 -74.27,52.52 -25.51,7.51 -51.03,11.26 -76.54,10.51 -6.75,0 -15.75,0 -24.76,-0.75 -9.76,0 -24.01,-1.5 -41.26,-2.99 -18.01,-2.25 -42.78,-5.26 -73.53,-9.76l-36.02 661.78c36.02,6 77.28,12 123.8,17.26 47.27,5.25 93.79,9.74 139.55,13.5 45.77,3 84.04,5.25 114.81,5.25zm2678.61 -31.51l787.83 0 810.34 -1220.01 0 1220.01 828.34 0 0 -2435.52 -787.83 0 -810.34 1220.01 0 -1220.01 -828.34 0 0 2435.52zm4132.72 0l855.36 0 0 -882.37 702.3 0 0 882.37 855.36 0 0 -2435.52 -855.36 0 0 864.36 -702.3 0 0 -864.36 -855.36 0 0 2435.52zm4078.71 58.52c162.07,-0.74 307.62,-21.75 438.18,-62.28 130.55,-41.26 246.85,-98.29 349.65,-172.57 102.04,-73.53 192.08,-160.57 270.11,-260.36l-472.7 -391.66c-86.28,84.78 -173.32,147.81 -259.61,188.33 -87.03,39.76 -180.07,60.02 -280.61,59.27 -133.56,0 -246.11,-33.76 -337.64,-100.54 -90.79,-67.52 -153.82,-167.32 -189.08,-300.12l1629.68 0c2.25,-29.27 3.76,-59.27 3.76,-89.29 0.75,-30.02 0.75,-59.27 0.75,-86.28 0,-144.06 -15.76,-281.37 -47.27,-413.43 -31.52,-132.05 -78.78,-253.6 -142.56,-364.65 -64.53,-111.79 -145.56,-208.59 -243.1,-291.87 -97.54,-82.54 -212.34,-147.07 -345.14,-192.84 -132.05,-45.76 -282.87,-69.03 -450.94,-69.78 -180.82,0.75 -345.89,33.76 -495.95,99.04 -150.06,65.28 -279.12,155.32 -388.66,270.87 -109.55,116.3 -193.59,251.36 -253.61,405.16 -60.02,153.82 -90.04,319.63 -90.79,498.96 0.75,192.09 33.02,366.15 96.05,522.22 63.77,155.31 153.81,289.62 270.11,401.42 115.55,112.54 253.61,198.83 412.68,258.86 159.06,60.02 334.63,90.79 526.72,91.53zm-495.21 -1476.61c15.01,-89.29 42.03,-166.57 79.54,-232.6 38.26,-66.02 86.28,-117.05 144.05,-153.07 57.78,-36.77 124.55,-54.77 199.59,-55.52 78.03,0 147.06,18.75 207.09,54.02 59.27,36 107.3,87.03 144.06,152.3 37.51,66.03 61.52,144.06 72.03,234.85l-846.36 0z"/>
   <path class="fil0" d="M9703.55 9781.34c293.82,-1.92 551.39,-41.02 770.81,-118.3 218.45,-78.22 410.2,-185.06 572.37,-320.53 163.14,-135.46 307.18,-290.01 431.2,-465.53l-835.68 -595.28c-79.18,98.26 -162.18,183.17 -248.03,255.66 -86.81,72.51 -183.17,129.75 -290.01,169.81 -105.89,40.06 -228,60.1 -366.32,61.05 -141.19,-0.95 -269.98,-28.62 -386.36,-82.99 -116.38,-54.38 -216.55,-129.75 -302.41,-227.04 -84.91,-97.31 -150.73,-209.88 -196.52,-339.62 -46.74,-129.74 -69.64,-269.97 -70.59,-420.7 0.95,-149.78 23.85,-289.05 70.59,-418.8 45.79,-128.78 111.61,-242.3 196.52,-339.61 85.86,-97.31 186.02,-173.62 302.41,-228.96 116.38,-54.37 245.17,-82.04 386.36,-82.99 189.83,0.95 356.78,42.92 498.93,124.01 142.14,82.05 269.97,194.61 382.54,339.62l812.78 -629.63c-117.34,-165.98 -254.71,-311.94 -412.11,-438.82 -157.4,-126.88 -340.57,-226.09 -549.49,-298.6 -208.92,-71.54 -449.32,-108.76 -721.2,-109.71 -243.26,0.95 -472.22,35.3 -685.91,104.94 -213.68,68.69 -407.34,165.99 -581.92,291.92 -174.58,125.92 -324.35,275.69 -450.28,448.36 -125.92,173.62 -223.22,364.42 -290.96,573.34 -67.72,208.92 -102.07,430.24 -103.02,664.92 0.95,242.3 36.25,469.34 104.94,680.18 69.64,211.78 166.94,403.52 292.86,575.24 125.93,171.72 274.74,318.63 446.46,442.64 171.72,123.07 361.55,218.46 567.61,284.28 206.06,66.78 424.51,100.17 654.43,101.13zm1928.93 -80.14l1167.66 0 286.2 -715.47 1545.43 0 291.91 715.47 1190.56 0 -1705.7 -4035.3 -1070.36 0 -1705.7 4035.3zm1780.11 -1579.77l452.18 -1139.05 446.46 1139.05 -898.64 0zm3090.86 1579.77l1087.53 0 0 -2289.53 1018.83 1556.89 22.9 0 1024.57 -1568.33 0 2300.98 1104.7 0 0 -4006.68 -1173.39 0 -955.88 1551.16 -955.87 -1551.16 -1173.39 0 0 4006.68z"/>
  </g>
 </g>
</svg>
