<?xml version="1.0" encoding="UTF-8"?>
<!DOCTYPE svg PUBLIC "-//W3C//DTD SVG 1.1//EN" "http://www.w3.org/Graphics/SVG/1.1/DTD/svg11.dtd">
<!-- Creator: CorelDRAW 2021 (64-Bit) -->
<svg xmlns="http://www.w3.org/2000/svg" xml:space="preserve" width="100mm" height="42.5238mm" version="1.1" style="shape-rendering:geometricPrecision; text-rendering:geometricPrecision; image-rendering:optimizeQuality; fill-rule:evenodd; clip-rule:evenodd"
viewBox="0 0 9996 4250.68"
 xmlns:xlink="http://www.w3.org/1999/xlink"
 xmlns:xodm="http://www.corel.com/coreldraw/odm/2003">
 <defs>
  <style type="text/css">
   <![CDATA[
    .fil3 {fill:#FEFEFE;fill-rule:nonzero}
    .fil2 {fill:white;fill-rule:nonzero}
    .fil1 {fill:#F7A30A;fill-rule:nonzero}
    .fil0 {fill:#009CA3;fill-rule:nonzero}
   ]]>
  </style>
 </defs>
 <g id="Слой_x0020_1">
  <metadata id="CorelCorpID_0Corel-Layer"/>
  <g id="LOGO1">
   <path id="PANTONE_x0020_320C" class="fil0" d="M1557.92 0l6880.17 0c860.42,0 1557.92,697.5 1557.92,1557.93l0 1134.83c0,860.42 -697.5,1557.93 -1557.92,1557.93l-6880.17 0c-860.42,0 -1557.92,-697.51 -1557.92,-1557.93l0 -1134.83c0,-860.43 697.5,-1557.93 1557.92,-1557.93z"/>
   <path id="PANTONE_x0020_137C" class="fil1" d="M4193.96 3050.13l177.47 0 -193.73 552.21 -220.4 0 0.91 -2.12 3.21 0 7.65 -25.31 224.9 -524.78zm-527.14 -1247.22l-791.91 0c-5.6,-65.54 -20.57,-124.99 -44.92,-178.34 -23.41,-53.38 -56.16,-99.23 -98.32,-137.6 -41.18,-39.31 -91.26,-69.25 -150.24,-89.88 -58.97,-21.53 -125.9,-32.28 -200.8,-32.28 -131.04,0 -241.96,31.82 -332.76,95.44 -89.87,63.69 -158.22,155 -205.01,273.85 -45.88,118.89 -68.8,261.65 -68.8,428.27 0,175.98 23.41,323.41 70.19,442.31 47.74,117.94 116.55,206.9 206.42,266.77 89.88,58.97 197.99,88.48 324.35,88.48 72.07,0 136.66,-8.89 193.8,-26.68 57.09,-18.72 106.68,-45.39 148.84,-80.06 42.11,-34.65 76.26,-76.26 102.49,-124.95 27.13,-49.63 45.38,-105.32 54.76,-167.1l585.63 4.16 -273.17 827.57c-80.92,58.4 -172.45,108.34 -274.55,149.77 -159.13,64.6 -343.99,96.92 -554.64,96.92 -263.98,0 -500.82,-56.65 -710.52,-169.93 -208.73,-113.25 -373.97,-279.88 -495.66,-499.86 -120.76,-220.01 -181.12,-489.13 -181.12,-807.41 0,-320.14 61.76,-589.73 185.36,-808.79 123.55,-219.99 290.17,-386.17 499.88,-498.48 209.65,-113.26 443.69,-169.89 702.06,-169.89 181.61,0 348.71,24.81 501.26,74.41 152.6,49.58 286.5,122.13 401.63,217.65 115.14,94.53 207.82,211.09 278.01,349.62 70.19,138.53 112.8,297.21 127.75,476.02zm990.58 -350.2l88.73 307.4 -210.16 728 -177.45 0 298.87 -1035.4zm477.89 -728.22l948.36 0 668.38 1628.81 33.73 0 668.38 -1628.81 971.66 0 0 2875.73 -763.85 0 0 -1662.53 -22.47 0 -640.3 1640.07 -460.56 0 -640.3 -1651.27 -22.47 0 0 1041.58 -740.55 -2243.58z"/>
   <g id="WHITE">
    <path class="fil2" d="M3712.19 1802.91l-615.84 0c-5.62,-65.54 -20.59,-124.99 -44.92,-178.34 -23.41,-53.38 -56.18,-99.23 -98.32,-137.6 -41.16,-39.31 -91.24,-69.25 -150.22,-89.88 -59,-21.53 -125.88,-32.28 -200.78,-32.28 -131.09,0 -242.02,31.82 -332.82,95.44 -89.87,63.69 -158.22,155 -205,273.85 -45.88,118.89 -68.81,261.65 -68.81,428.27 0,175.98 23.43,323.41 70.21,442.31 47.75,117.94 116.53,206.9 206.4,266.77 89.89,58.97 198.01,88.48 324.41,88.48 72.04,0 136.63,-8.89 193.75,-26.68 57.1,-18.72 106.7,-45.39 148.84,-80.06 42.11,-34.65 76.29,-76.26 102.48,-124.95 27.18,-49.63 45.43,-105.32 54.78,-167.1l364.7 2.59 -322.54 977.16 -4.26 1.75c-159.14,64.6 -344,96.92 -554.64,96.92 -263.99,0 -500.82,-56.65 -710.52,-169.93 -208.74,-113.25 -373.95,-279.88 -495.64,-499.86 -120.77,-220.01 -181.17,-489.13 -181.17,-807.41 0,-320.14 61.78,-589.73 185.36,-808.79 123.59,-219.99 290.2,-386.17 499.9,-498.48 209.69,-113.26 443.7,-169.89 702.07,-169.89 181.61,0 348.7,24.81 501.29,74.41 152.58,49.58 286.46,122.13 401.58,217.65 115.14,94.53 207.81,211.09 278.03,349.62 23.37,46.1 43.68,94.45 60.94,145.01l-109.26 331.01zm1621.23 -1078.42l0 0 971.7 0 668.34 1628.81 33.72 0 668.39 -1628.81 971.66 0 0 2875.73 -763.84 0 0 -1662.53 -22.48 0 -640.28 1640.07 -460.58 0 -640.29 -1651.27 -22.48 0 0 1673.73 -12.76 0 -751.09 -2275.51 0 -600.22zm-961.99 2325.64l917.06 0 207.05 552.21 -1323.21 0 199.1 -552.21zm463.44 -1597.42l298.92 1035.4 -597.81 0 298.89 -1035.4z"/>
    <path class="fil3" d="M4136.47 1011.8l164.13 -68.27 -86.27 -206.61 -77.87 274.88zm30.47 1734.06l-223.17 -534.5 -138.05 57.34 223.19 534.49 138.03 -57.33zm500.72 -1642.86l99.89 -303.06 -191.72 83.1 91.83 219.96zm-47.8 52.01l-223.16 -534.49 -138.04 57.32 223.18 534.5 138.02 -57.33zm-173.15 740.5l99.88 -303.07 -191.73 83.12 91.85 219.95zm-47.8 52.02l-223.17 -534.49 -138.03 57.32 223.17 534.49 138.03 -57.32zm-184.16 746.31l99.87 -303.05 -191.72 83.09 91.85 219.96zm-15 -1357.11l90.97 -321.18 -176.05 73.21 -90.45 318.96 175.53 -70.99zm-288.8 471.42l168.62 -70.15 -88.64 -212.27 -79.98 282.42zm63.28 324.82l90.95 -321.07 -176.04 73.22 -90.01 316.6 175.1 -68.75zm-288.84 471.54l163.21 -67.88 -85.79 -205.45 -77.43 273.33zm66.44 313.75l87.8 -310.01 -176.03 73.22 -87.51 308.99 175.74 -72.2z"/>
   </g>
  </g>
 </g>
</svg>
