<?xml version="1.0" encoding="UTF-8"?>
<!DOCTYPE svg PUBLIC "-//W3C//DTD SVG 1.1//EN" "http://www.w3.org/Graphics/SVG/1.1/DTD/svg11.dtd">
<!-- Creator: CorelDRAW 2021 (64-Bit) -->
<svg xmlns="http://www.w3.org/2000/svg" xml:space="preserve" width="70.0762mm" height="11.2037mm" version="1.1" style="shape-rendering:geometricPrecision; text-rendering:geometricPrecision; image-rendering:optimizeQuality; fill-rule:evenodd; clip-rule:evenodd"
viewBox="0 0 15345.47 2453.42"
 xmlns:xlink="http://www.w3.org/1999/xlink"
 xmlns:xodm="http://www.corel.com/coreldraw/odm/2003">
 <defs>
  <style type="text/css">
   <![CDATA[
    .fil0 {fill:#FEFEFC}
   ]]>
  </style>
 </defs>
 <g id="Слой_x0020_1">
  <metadata id="CorelCorpID_0Corel-Layer"/>
  <path class="fil0 str0" d="M385.63 837.61l0 739.13c0,109.93 182.5,124.21 182.5,-9.11l0 -720.89c0,-133.34 -182.5,-119.06 -182.5,-9.13zm3228.29 1436.96l-231.33 -342.01 216.38 -323.07 -203.41 0 -128.63 208.41 -130.62 -208.41 -202.43 0 217.38 324.07 -232.34 341 203.41 0 144.59 -223.34 144.57 223.34 202.43 0zm342.01 11.98c203.41,0 354.99,-141.59 354.99,-344.02 0,-202.41 -151.58,-344 -354.99,-344 -203.41,0 -355.98,141.59 -355.98,344 0,202.43 152.57,344.02 355.98,344.02zm0 -151.56c-110.67,0 -181.47,-84.77 -181.47,-192.46 0,-108.68 70.8,-192.44 181.47,-192.44 109.69,0 180.49,83.76 180.49,192.44 0,107.7 -70.8,192.46 -180.49,192.46zm372.93 151.56c145.58,0 259.25,-57.83 291.16,-327.05l23.93 -200.43 169.51 0 0 515.51 171.51 0 0 -665.07 -495.58 0 -39.88 337.04c-18.96,151.56 -58.84,188.46 -120.66,188.46l0 151.56zm738.87 110.67l171.51 0 0 -122.65 371.92 0 0 122.65 172.51 0 0 -272.22 -59.83 0 0 -515.51 -495.58 0 -39.88 337.04c-18.96,151.56 -56.85,178.47 -120.66,188.46l0 262.23zm291.16 -437.72l23.93 -200.43 169.51 0 0 365.94 -266.24 0c37.88,-37.88 63.81,-90.72 72.79,-165.51zm664.09 315.07l280.19 -410.81 0 410.81 172.51 0 0 -665.07 -177.49 0 -269.24 391.87 0 -391.87 -171.51 0 0 665.07 165.53 0zm1191.57 0l0 -665.07 -171.51 0 0 249.27 -276.2 0 0 -249.27 -171.51 0 0 665.07 171.51 0 0 -266.22 276.2 0 0 266.22 171.51 0zm291.16 0l0 -515.51 316.08 0 0 -149.57 -487.59 0 0 665.07 171.51 0zm-3174.83 -1214.54l0 -515.51 185.46 0 0 -149.57 -543.43 0 0 149.57 186.46 0 0 515.51 171.51 0zm851.54 0l-251.28 -665.07 -215.37 0 -250.3 665.07 194.46 0 32.89 -95.72 262.25 0 32.91 95.72 194.43 0zm-274.21 -245.28l-169.51 0 84.75 -250.28 84.77 250.28zm581.33 245.28l0 -515.51 185.46 0 0 -149.57 -543.43 0 0 149.57 186.46 0 0 515.51 171.51 0zm886.44 0l0 -665.07 -171.51 0 0 249.27 -276.2 0 0 -249.27 -171.51 0 0 665.07 171.51 0 0 -266.22 276.2 0 0 266.22 171.51 0zm607.24 0l0 -149.57 -316.08 0 0 -112.67 309.09 0 0 -149.57 -309.09 0 0 -103.71 316.08 0 0 -149.57 -487.59 0 0 665.07 487.59 0zm564.38 0l0 -67.8c205.38,-18.94 326.07,-107.7 326.07,-264.25 0,-154.56 -120.68,-245.28 -326.07,-264.22l0 -68.8 -172.51 0 0 68.8c-205.41,18.94 -326.07,109.67 -326.07,264.22 0,155.57 120.66,245.3 326.07,264.25l0 67.8 172.51 0zm151.56 -332.04c0,61.82 -50.85,98.72 -151.56,111.68l0 -223.36c100.71,12.96 151.56,50.87 151.56,111.68zm-475.63 0c0,-60.81 50.85,-98.72 151.56,-111.68l0 223.36c-100.71,-12.96 -151.56,-49.86 -151.56,-111.68zm1035.02 332.04l0 -515.51 185.46 0 0 -149.57 -543.43 0 0 149.57 186.46 0 0 515.51 171.51 0zm754.81 0l0 -149.57 -316.08 0 0 -112.67 309.09 0 0 -149.57 -309.09 0 0 -103.71 316.08 0 0 -149.57 -487.59 0 0 665.07 487.59 0zm723.91 0l-231.33 -342.01 216.38 -323.07 -203.41 0 -128.63 208.41 -130.62 -208.41 -202.43 0 217.38 324.07 -232.34 341 203.41 0 144.59 -223.34 144.59 223.34 202.41 0zm215.37 0l280.21 -410.81 0 410.81 172.49 0 0 -665.07 -177.49 0 -269.22 391.87 0 -391.87 -171.51 0 0 665.07 165.51 0zm1327.19 0l0 -665.07 -238.32 0 -139.6 360.95 -138.59 -360.95 -238.32 0 0 665.07 171.51 0 0 -432.75 167.52 432.75 75.79 0 168.51 -432.75 0 432.75 171.51 0zm285.18 0l280.19 -410.81 0 410.81 172.51 0 0 -665.07 -177.51 0 -269.22 391.87 0 -391.87 -171.51 0 0 665.07 165.53 0zm1191.57 0l0 -665.07 -171.53 0 0 249.27 -276.18 0 0 -249.27 -171.53 0 0 665.07 171.53 0 0 -266.22 276.18 0 0 266.22 171.53 0zm508.52 0c130.62,0 195.44,-83.74 195.44,-180.46 0,-83.76 -55.84,-151.58 -126.64,-162.53 62.83,-13.97 113.67,-69.81 113.67,-152.57 0,-83.76 -62.83,-169.51 -194.46,-169.51l-376.91 0 0 665.07 388.89 0zm-50.85 -409.8l-166.54 0 0 -110.7 166.54 0c34.88,0 58.82,22.95 58.82,54.86 0,32.89 -23.93,55.84 -58.82,55.84zm5.98 265.23l-172.51 0 0 -119.65 172.51 0c41.87,0 65.8,26.91 65.8,59.83 0,35.89 -24.92,59.83 -65.8,59.83zm821.62 144.57l0 -149.57 -316.08 0 0 -112.67 309.12 0 0 -149.57 -309.12 0 0 -103.71 316.08 0 0 -149.57 -487.59 0 0 665.07 487.59 0zm425.79 11.98c160.54,0 247.28,-92.74 290.15,-178.49l-147.57 -69.79c-21.94,52.84 -78.77,96.72 -142.58,96.72 -108.68,0 -185.48,-83.76 -185.48,-192.46 0,-108.68 76.8,-192.44 185.48,-192.44 63.81,0 120.64,43.88 142.58,96.72l147.57 -69.79c-43.86,-87.77 -129.62,-178.49 -290.15,-178.49 -204.42,0 -359.96,138.59 -359.96,344 0,204.42 155.54,344.02 359.96,344.02zm684.04 -11.98l0 -515.51 185.46 0 0 -149.57 -543.43 0 0 149.57 186.46 0 0 515.51 171.51 0zm-13900.71 1361.04c0,0 609.01,88.71 781.79,-74.72 172.78,-163.45 1600.04,-2031.33 1600.04,-2031.33 0,0 166.82,-209.33 345.42,-261.51 33.66,-9.83 88.71,-23.34 88.71,-23.34 0,0 -677.25,-98.08 -882.7,121.4 -205.47,219.46 -1583.05,2064.02 -1583.05,2064.02 0,0 -121.4,158.76 -270.84,186.79 -42.37,8.98 -79.38,18.68 -79.38,18.68zm-867.74 0c0,0 608.99,88.71 781.77,-74.72 172.78,-163.45 1600.06,-2031.33 1600.06,-2031.33 0,0 166.82,-209.33 345.42,-261.51 33.66,-9.83 88.71,-23.34 88.71,-23.34 0,0 -677.25,-98.08 -882.7,121.4 -205.47,219.46 -1583.05,2064.02 -1583.05,2064.02 0,0 -121.4,158.76 -270.84,186.79 -42.37,8.98 -79.38,18.68 -79.38,18.68zm-192.38 -1702.09c17.74,-4.14 36.57,-19.45 53.34,-28.8l790.75 -452.83c8.74,0 89.21,48.81 104.94,57.31 163.8,88.58 360.69,213.68 526.26,304.12 18.15,9.92 33.29,18.29 50.23,28.49 39.24,-50.85 76.93,-99.51 112.62,-145.36l-14.69 -8.47c-12.31,-7.45 -22.42,-12.53 -34.8,-19.97l-466.02 -268.54c-38.87,-22.38 -231.38,-145.78 -273.99,-145.78 -48.57,0 -94.45,37.45 -147.4,67.03l-664.98 384.45c-45.13,25.82 -87.37,50.63 -133.49,76.38 -51.57,28.82 -85.27,45.48 -85.27,124.6l0 1031.15c0,79.01 33.02,94.53 82.36,122.94l489.56 282.73c26.08,-34.86 63.77,-85.21 110.63,-147.73l-500.05 -285.33 0 -976.38zm754.53 -153.46c0,72.44 103.73,108.07 182.24,155.39 34.99,21.11 70.6,39.46 107.19,61.62 37.67,22.82 71.48,41.65 109.43,63.94l141.64 81.55c37.6,-49.29 74.78,-97.97 111.18,-145.47 -86.65,-49.91 -176.92,-105.75 -260.87,-151.58 -50.85,-27.77 -260.46,-156.7 -285.86,-156.7l-22.82 0c-45.94,0 -82.12,44.17 -82.12,91.25z"/>
 </g>
</svg>
