<?xml version="1.0" encoding="UTF-8"?>
<!DOCTYPE svg PUBLIC "-//W3C//DTD SVG 1.1//EN" "http://www.w3.org/Graphics/SVG/1.1/DTD/svg11.dtd">
<!-- Creator: CorelDRAW 2021 (64-Bit) -->
<svg xmlns="http://www.w3.org/2000/svg" xml:space="preserve" width="120mm" height="15.2023mm" version="1.1" style="shape-rendering:geometricPrecision; text-rendering:geometricPrecision; image-rendering:optimizeQuality; fill-rule:evenodd; clip-rule:evenodd"
viewBox="0 0 18291.68 2317.3"
 xmlns:xlink="http://www.w3.org/1999/xlink"
 xmlns:xodm="http://www.corel.com/coreldraw/odm/2003">
 <defs>
  <style type="text/css">
   <![CDATA[
    .fil0 {fill:#E41D2D;fill-rule:nonzero}
   ]]>
  </style>
 </defs>
 <g id="Layer_x0020_1">
  <metadata id="CorelCorpID_0Corel-Layer"/>
  <path class="fil0" d="M1101.24 2072.22c-27.93,58.93 -151.99,245.05 -437.37,245.05 -381.55,0 -663.87,-313.29 -663.87,-837.55 0,-524.24 282.32,-834.48 666.93,-834.48 285.41,0 403.32,183.05 428.1,232.66l0 -201.6 499.45 0 0 1606.88 -493.25 0 0 -210.95zm13478.51 -608.67l-128.38 281.45 -281.43 128.38 281.43 128.36 128.38 281.43 128.33 -281.43 281.49 -128.36 -281.49 -128.38 -128.33 -281.45zm2948.8 853.75c-514.96,0 -772.4,-294.71 -772.4,-719.69l0 -921.35 502.53 0 0 896.52c0,167.51 89.98,279.19 263.71,279.19 176.79,0 269.86,-111.69 269.86,-279.19l0 -896.52 499.42 0 0 921.35c0,415.65 -254.38,719.69 -763.13,719.69zm-1811.62 -828.26l0 794.15 -499.42 0 0 -1606.93 499.42 0 0 235.76c40.33,-83.76 158.24,-238.83 465.33,-238.83l276.08 0 0 496.31 -369.13 0c-263.71,0 -372.28,102.36 -372.28,319.53zm-3394.57 794.13l0 -2283.14 502.56 0 0 1309.08 530.46 -632.82 601.78 0 -626.61 741.39 691.76 865.49 -629.71 0 -567.68 -707.29 0 707.29 -502.56 0zm-1975.17 0l0 -1606.88 499.47 0 0 207.82c55.82,-96.14 207.79,-241.97 459.11,-241.97 362.94,0 595.59,260.58 595.59,654.57l0 986.46 -502.52 0 0 -893.41c0,-192.34 -102.37,-307.09 -272.99,-307.09 -173.73,0 -279.19,117.86 -279.19,307.09l0 893.41 -499.47 0zm-927.22 -210.95c-27.89,58.93 -152.02,245.05 -437.38,245.05 -381.56,0 -663.82,-313.29 -663.82,-837.55 0,-524.24 282.26,-834.48 666.93,-834.48 285.37,0 403.27,183.05 428.1,232.66l0 -201.6 499.41 0 0 1606.88 -493.24 0 0 -210.95zm0 -592.5c0,-251.25 -111.66,-406.38 -294.71,-406.38 -189.18,0 -300.9,155.13 -300.9,406.38 0,251.27 111.72,409.49 300.9,409.49 183.05,0 294.71,-158.22 294.71,-409.49zm-2511.66 577l0 226.44 -493.28 0 0 -2283.14 499.45 0 0 908.91c21.72,-49.65 161.33,-266.77 465.36,-266.77 378.46,0 663.82,300.87 663.82,837.55 0,536.68 -285.37,837.59 -663.82,837.59 -310.24,0 -443.63,-207.84 -471.53,-260.58zm0 -577.01c0,245.09 117.86,409.49 313.31,409.49 192.29,0 313.29,-164.4 313.29,-409.49 0,-245.03 -121,-409.44 -313.29,-409.44 -195.45,0 -313.31,164.41 -313.31,409.44zm-1420.5 592.51c-27.89,58.93 -152,245.05 -437.38,245.05 -381.55,0 -663.82,-313.29 -663.82,-837.55 0,-524.24 282.27,-834.48 666.93,-834.48 285.37,0 403.27,183.05 428.1,232.66l0 -201.6 499.45 0 0 1606.88 -493.28 0 0 -210.95zm0 -592.5c0,-251.25 -111.64,-406.38 -294.66,-406.38 -189.21,0 -300.9,155.13 -300.9,406.38 0,251.27 111.69,409.49 300.9,409.49 183.02,0 294.66,-158.22 294.66,-409.49zm-2644.58 -390.86l0 -412.6 375.35 0 0 -217.12c0,-282.3 164.41,-459.14 499.47,-459.14l663.82 0 0 378.46 -456 0c-148.89,0 -204.73,62.09 -204.73,198.54l0 99.26 474.65 0 0 412.6 -474.65 0 0 1194.31 -502.56 0 0 -1194.31 -375.35 0zm-808.52 -1088.84l505.64 0 0 2283.14 -505.64 0 0 -2283.14zm-933.46 1479.71c0,-251.25 -111.67,-406.38 -294.68,-406.38 -189.23,0 -300.91,155.13 -300.91,406.38 0,251.27 111.69,409.49 300.91,409.49 183.01,0 294.68,-158.22 294.68,-409.49z"/>
 </g>
</svg>
