<?xml version="1.0" encoding="UTF-8"?>
<!DOCTYPE svg PUBLIC "-//W3C//DTD SVG 1.1//EN" "http://www.w3.org/Graphics/SVG/1.1/DTD/svg11.dtd">
<!-- Creator: CorelDRAW 2017 -->
<svg xmlns="http://www.w3.org/2000/svg" xml:space="preserve" width="28.9884mm" height="6.4979mm" version="1.1" style="shape-rendering:geometricPrecision; text-rendering:geometricPrecision; image-rendering:optimizeQuality; fill-rule:evenodd; clip-rule:evenodd"
viewBox="0 0 1345.17 301.53"
 xmlns:xlink="http://www.w3.org/1999/xlink">
 <defs>
  <style type="text/css">
   <![CDATA[
    .fil0 {fill:#EE741D}
    .fil6 {fill:#EBDE11}
    .fil7 {fill:#F27100;fill-rule:nonzero}
    .fil5 {fill:url(#id0)}
    .fil3 {fill:url(#id1)}
    .fil4 {fill:url(#id2)}
    .fil2 {fill:url(#id3)}
    .fil1 {fill:url(#id4);fill-rule:nonzero}
   ]]>
  </style>
  <linearGradient id="id0" gradientUnits="userSpaceOnUse" x1="415.39" y1="125.91" x2="441.48" y2="-14.45">
   <stop offset="0" style="stop-opacity:1; stop-color:black"/>
   <stop offset="1" style="stop-opacity:1; stop-color:#FEFEFE"/>
  </linearGradient>
  <linearGradient id="id1" gradientUnits="userSpaceOnUse" x1="243.98" y1="123.61" x2="206.66" y2="37.26">
   <stop offset="0" style="stop-opacity:1; stop-color:#0097E3"/>
   <stop offset="1" style="stop-opacity:1; stop-color:#7FD4FF"/>
  </linearGradient>
  <linearGradient id="id2" gradientUnits="userSpaceOnUse" x1="306.68" y1="63.85" x2="309.58" y2="-1.16">
   <stop offset="0" style="stop-opacity:1; stop-color:#E5097F"/>
   <stop offset="1" style="stop-opacity:1; stop-color:#FF70BC"/>
  </linearGradient>
  <linearGradient id="id3" gradientUnits="userSpaceOnUse" x1="310.06" y1="245.57" x2="529.18" y2="190.5">
   <stop offset="0" style="stop-opacity:1; stop-color:#07497B"/>
   <stop offset="1" style="stop-opacity:1; stop-color:#0097E3"/>
  </linearGradient>
  <linearGradient id="id4" gradientUnits="userSpaceOnUse" xlink:href="#id3" x1="89.62" y1="192.4" x2="287.73" y2="176.1">
  </linearGradient>
 </defs>
 <g id="Слой_x0020_1">
  <metadata id="CorelCorpID_0Corel-Layer"/>
  <path class="fil0" d="M1158.65 137.73l0 0c-6.46,0 -11.71,5.24 -11.71,11.71 0,6.47 5.24,11.71 11.71,11.71 6.47,0 11.71,-5.24 11.71,-11.71 0,-6.47 -5.24,-11.71 -11.71,-11.71l0 0zm0 -13.16l0 0c-13.74,0 -24.87,11.13 -24.87,24.87 0,13.74 11.13,24.87 24.87,24.87 13.74,0 24.87,-11.14 24.87,-24.87 0,-13.74 -11.14,-24.87 -24.87,-24.87l0 0zm-505.61 16.39l0 19.45 19.01 0 0 -19.45c-6.34,0 -12.67,0 -19.01,0l0 0zm33.61 33.83l0 -48.43 -47.99 0 0 48.43c16,0 31.99,0 47.99,0l0 0zm-68.99 -72.97l0 85.57 85.35 0 0 -85.57c-28.45,0 -56.9,0 -85.35,0l0 0zm78.28 79.82l0 -63.02 -62.58 0 0 62.8c21.03,0 41.52,0.22 62.58,0.22l0 0zm16.14 -96.85l-17.03 0 0 -48.43c0.89,-9.29 -15.69,-11.49 -15.69,0.23l0 47.76 -10.62 0 0 -47.54c0,-4.87 -2.65,-7.74 -5.97,-8.84 -4.42,-1.11 -9.95,1.76 -9.95,8.84l0 47.76 -10.84 0 0 -48.21c-0.66,-11.05 -15.26,-11.94 -15.7,0.23l0 47.76 -16.14 0c-4.42,0 -8.84,3.1 -8.84,8.18l0 17.03 -48.43 0c-8.84,0 -8.84,16.36 0.66,15.7l46.88 0 0 11.05 -47.54 0c-8.84,0 -8.84,14.82 0.66,14.82l46.88 0 0 12.61 -47.76 0c-9.29,0.22 -8.18,15.03 0,14.81l48.43 0 0 17.91c0,5.31 2.65,7.96 7.52,8.18l17.68 0 0 46.66c0,10.61 15.7,10.39 15.7,0l0 -47.32 10.84 0 0 47.1c0,5.98 5.53,8.63 9.95,7.74 3.76,-0.66 6.64,-3.54 6.64,-8.18l0 -46.66 9.95 0 0 46.88c-0.22,9.73 15.7,10.61 15.7,0.22l-0 -47.1 18.13 0c1.77,-0.22 2.87,-0.44 3.98,-0.88 3.1,-1.33 3.76,-3.54 3.76,-7.3l0 -17.03 47.1 0c9.51,0 9.51,-15.03 0,-15.03l-47.76 0 0 -12.61 47.98 0c9.07,-0.44 10.39,-14.15 0,-14.82l-47.98 0 0 -11.05 47.76 0c9.95,0 9.95,-15.03 0,-15.7l-47.1 0 0 -17.03c0,-8.12 -2.68,-7.74 -8.84,-7.74l0 0zm78.28 99.28l0 0c0.89,-4.64 1.33,-9.06 -1.99,-13.71 -0.88,-1.33 -2.65,-2.87 -4.86,-4.2 1.99,-1.1 3.76,-2.65 4.86,-4.2 3.98,-5.53 3.98,-13.71 0,-19.68 -1.1,-2 -2.65,-3.54 -4.86,-4.87 5.55,-3.7 8.18,-9.6 8.18,-16.14 -0.55,-9.42 -7.14,-17.25 -17.03,-17.25l-38.03 0 0 -8.18c-0.89,-11.5 -5.31,-16.81 -17.03,-16.81l-7.96 0 0 -40.9c-1.16,-20.21 -26.75,-20.21 -32.51,-11.05 -6.88,-8.69 -19.33,-8.07 -26.32,0 -10.85,-13.23 -34.94,-4.93 -34.27,13.04l0 38.47 -7.74 0c-12.6,0 -17.47,8.85 -17.47,19.9l0 5.75 -41.13 0c-17.12,-0.53 -21.43,24.16 -9.73,31.18 -1.77,1.33 -3.54,3.1 -4.86,4.86 -3.98,6.19 -3.32,14.82 0,20.57 1.33,1.55 2.65,3.1 4.2,3.98 -1.99,1.1 -3.1,2.65 -4.2,4.2 -7.95,12.9 1.62,26.83 17.03,27.64l38.26 0 0 9.95c0,9.73 4.94,15.03 15.7,15.03l9.5 0 0 37.15c0.8,16.09 21.2,24.78 32.06,12.16 6.95,6.95 20.59,7.26 27.42,0 2.66,2.44 5.53,4.87 10.61,5.53 12.17,0.89 21.68,-7.51 21.89,-18.13l0 -36.71 10.62 0c9.06,0 15.69,-9.73 15.69,-17.91l0 -7.52 37.81 0c7.95,0 14.04,-4.85 16.14,-12.16l0 0zm110.34 -7.96l0 -27.64c-9.14,9.14 -18.28,18.28 -27.42,27.42 9.21,0 18.5,0.22 27.42,0.22l0 0zm49.53 -7.52l0 13.71 22.77 0c11.31,0 16.45,10.13 16.81,20.35 0,9.23 -7.34,19.74 -16.81,21.01l-22.77 0 0 12.38 31.4 0c5.48,0 8.84,0.54 13.71,3.54l0 -74.52c-3.54,2.43 -7.08,3.31 -9.95,3.76 -11.7,0 -23.44,-0.22 -35.16,-0.22l0 0zm31.4 -32.73l0 0c-12.57,-2.32 -40.34,-0.47 -54.33,-0.48 -6.19,0 -9.57,5.12 -9.57,9.77l0 44c-30.96,0 -61.92,0 -92.87,0l147.71 -146.83c2.38,-2.38 5.76,-6.36 4.42,-9.95 -0.66,-1.99 -1.99,-2.43 -4.42,-2.65 -1.33,0 -2.65,0 -4.42,0l-38.92 0c-41.2,0 -82.41,0 -123.61,0 -3.98,0 -6.85,3.1 -6.85,7.08 0,4.2 2.87,8.18 7.52,8.18 40.98,0 81.96,0 122.95,0l19.68 0 -19.68 19.68c-43.88,42.99 -87.47,86.36 -130.9,129.8 -4.06,5.01 -2.64,11.72 6.41,11.72 37.44,0 74.89,0 112.33,0l0 43.35c0,5.53 3.75,8.84 10.17,8.84l51.96 0c0.89,0 1.77,-0.22 2.43,-0.44 7.52,-1.77 6.86,-12.83 0,-14.82 -0.66,-0.22 -1.32,-0.22 -1.99,-0.22l-45.99 0 0 -37.37 32.72 0c2.88,-0.22 4.87,-1.77 6.19,-3.54 1.76,-2.43 1.76,-5.97 0,-8.84 -1.33,-2 -3.54,-3.76 -6.19,-4.2l-32.06 0 0 -37.59 38.26 -0c1.93,0 7.48,0.3 9.06,-0.22 6.95,-2.24 7.65,-13.07 0,-15.26l0 0zm35.61 0.22l0 0c-2,-3.1 -12.39,-4.42 -13.49,5.09l0 111.23c0,9.95 15.04,9.95 15.48,-0.22l0 -76.29c13.66,26.52 27.21,53 40.69,79.61 4.2,6.19 12.83,4.65 12.39,-4.86l0.22 -108.79c-1.1,-10.84 -15.04,-10.62 -15.04,-0.88l0 74.52c-13.51,-26.44 -26.9,-52.85 -40.24,-79.38l0 0zm140.42 -17.91l0 0c-8.41,0.44 -16.59,4.42 -22.78,11.72 -10.43,12.2 -10.99,30.78 0,42.9 11.93,12.97 34.98,14.9 46.88,1.55 22.39,-21.28 5.24,-57.76 -24.1,-56.17l0 0zm42.67 26.98l0 0c0,-14.59 -7.3,-27.64 -18.58,-36.26 -30.46,-23.57 -70.26,0.85 -71.2,36.26 0,17.47 9.95,32.28 24.32,39.36 15.69,8.14 34.8,5.14 48,-4.57 10.74,-7.91 17.23,-20.25 17.46,-34.79l0 0zm-42.67 -62.14l0 0c-34.58,0 -64.5,27.02 -64.8,62.14 0,46.13 48.67,73.1 88.9,54.84 20.79,-9.95 35.38,-30.74 35.38,-54.84 0,-34.34 -26.49,-60.44 -59.48,-62.14l0 0zm93.75 53.07l0 0c-2.65,-3.1 -11.72,-4.42 -13.05,5.09l0 111.23c0,9.95 15.03,9.95 15.26,-0.22l0 -76.29 19.24 37.81 21.23 42.02c3.76,6.85 13.49,4.65 13.49,-4.86l0 -108.79c-0.89,-10.84 -14.59,-10.62 -15.7,-0.89l0 74.52c-13.65,-26.52 -27.07,-52.95 -40.46,-79.61l0 0zm73.64 119.63l0 -111.45c0,-4.86 -2,-8.84 -4.87,-11.72 -11.06,-10.61 -35.61,-8.62 -36.49,12.61l0 26.75 -10.84 -21.44 -7.52 -15.04c-6.64,-14.59 -31.18,-12.83 -34.27,2.88 0,-0.67 -0.22,-2 -0.45,-2.88 -0.66,-3.32 -1.33,-6.63 -2.65,-9.73 -10.39,-29.78 -39.42,-49.24 -70.54,-48.43 -31.9,1.68 -60.1,19.09 -68.99,53.07 -0.89,1.99 -1.33,3.76 -1.55,5.75 -14.21,-15.57 -38.47,-12.56 -38.47,9.07l0 26.75c-5.92,-12.25 -12.05,-24.32 -18.13,-36.48 -7.69,-12.09 -24.65,-12.33 -33.21,-1.94 -2.65,-3.32 -5.49,-5.14 -11.02,-5.14l-53.95 0c-11.89,0 -22.11,3.29 -22.11,21.45l0 32.95c-17.4,0 -34.79,0 -52.19,0l129.58 -129.58c5.31,-5.97 7.74,-12.38 5.31,-19.68 -2.21,-4.86 -5.53,-8.18 -11.06,-9.95 -2.43,-0.67 -5.3,-1.33 -8.84,-1.33l-43.56 0c-40.84,0 -81.67,0 -122.51,0 -10.61,0 -16.58,9.95 -16.58,21.01 0,11.94 8.84,19.24 17.69,19.24 38.62,0 77.24,0 115.87,0 -44.04,43.67 -87.94,87.49 -131.79,131.35 -5.91,4.93 -9.03,12.97 -5.75,20.34 3.19,8 12.29,9.51 19.9,9.51 34.57,0 69.14,0 103.7,0l0 34.05c0.83,11.58 8.77,18.79 20.34,18.79l53.96 0c7.29,-0.66 12.16,-3.54 14.59,-8.4 3.76,6.63 10.39,9.5 16.36,9.5 11.05,0.66 18.58,-6.19 19.68,-18.57l0 -26.98c6.61,12.36 12.88,24.89 19.24,37.37 11.67,17.29 36.04,5.41 36.04,-13.48l0 -79.16c26,62.97 113.5,61.99 138.2,-0.44 0.45,-1.33 1.1,-2.65 1.33,-4.2l0 82.04c0,29.41 39.81,30.52 40.24,4.87l0 -27.42 3.1 6.41 15.48 31.18c5.09,9.06 15.7,9.51 23.22,7.08 8.04,-3.22 13.49,-12.06 13.49,-20.57l0 0zm5.3 1.77l0 -112.77c-2.86,-34.4 -53.68,-31.57 -55.94,-1.99l-5.09 -9.94c-8.47,-14.13 -23.23,-17.48 -37.81,-10.18 -11.03,-30.87 -42.33,-51.97 -74.96,-51.97 -32.9,0 -64.93,21.62 -76.29,52.85 -14.8,-11.09 -37.69,-1.81 -41.8,18.58 -2.57,-16.52 -24.94,-31.26 -43.56,-17.03 -3.32,-2.21 -6.85,-3.1 -10.62,-3.32l-12.38 0c-14.74,0 -29.48,0 -44.22,0l63.68 -63.9c5.62,-6.87 8.66,-14.18 6.85,-23.23 -3.1,-12.43 -14.43,-19.02 -26.76,-19.02l-42.01 0c-41.94,0 -83.88,0 -125.82,0 -27.68,2.51 -32.04,47.83 -0.89,54.4l2.44 0.22c33.1,0 66.19,0 99.29,0 -36.44,35.42 -72.35,71.58 -108.13,107.68 -0.22,-3.98 -1.55,-8.18 -3.98,-11.5 1.55,-1.99 2.65,-4.42 3.32,-6.85 0.66,-2.65 0.89,-4.86 0.89,-7.3 0,-1.33 -0.23,-3.09 -0.23,-4.2 -0.88,-3.76 -1.99,-7.3 -4.2,-10.39 4.13,-6.19 5.64,-11.61 4.65,-19.23 -1.07,-12.9 -10.64,-21.68 -22.56,-21.68l-30.89 0c0,-25.82 -19.92,-23.1 -26.16,-23.64l0 -34.74c0.15,-19.59 -19.72,-30.95 -38.56,-19.87 -7.35,-6.41 -20.1,-5.61 -27.56,-0.48 -18.19,-12.24 -41.58,1.89 -41.58,22.03l0 31.7c-15.49,0 -24.18,10.68 -25.2,26.1l-33.83 -0c-18.66,0.1 -30.77,22.32 -19.68,38.03 -5.69,8.56 -6.66,20.74 -0.66,29.41 -12.23,17.28 3.58,38.45 21.01,38.48l32.72 0.22c0,17.93 6.38,25.21 24.99,25.21l0 30.52c0,19.38 23.71,31.74 39.36,20.78l1.1 0.66c8.06,4.02 17.82,3.69 25.65,-0.66 16.38,10.91 39.74,-2.76 40.02,-20.34l0 -30.96c15.21,0 26.1,-10.2 26.1,-25.66l31.17 0c1.33,0 2.87,-0.22 4.43,-0.22 -3.8,22.55 11.97,27.86 26.76,27.86 32.43,0 64.86,0 97.29,0l0 26.98c1.36,16.14 12.5,25.87 28.52,25.87l54.18 -0.22c4.65,-0.66 9.06,-1.77 13.04,-4.65 9.46,7.31 21.92,7.85 32.06,1.77 7.68,-4.93 9.25,-10.9 11.28,-19.02 1.73,3.29 3.95,5.99 5.65,8.79 13.9,22.89 46.99,17.71 50.07,-13.21l0 -54.18c1.77,1.99 3.32,3.54 5.31,5.3 34.6,33.22 89.61,29.07 119.85,-8.18l0 53.96c-0.12,35.97 49.81,39.95 55.06,8.4l5.31 10.62c14.96,22.4 46.61,11.2 49.31,-15.93l0 0zm14.82 -113.66l0 113.66c-2.07,33.17 -37.64,56.73 -69.44,32.72l-0.44 0.22c-29.83,20.9 -67.62,2.98 -69.65,-35.16l0 -23.22c-24.68,19.09 -72.66,16.72 -95.09,3.32l0 24.1c-1.29,35.02 -41.45,52.83 -67.44,32.06 -10.47,10.41 -35.17,13.16 -46.66,5.97 -3.7,1.8 -6.33,2.54 -11.72,2.44l-55.5 0c-24.18,0 -42.81,-16.27 -42.68,-40.91l0 -13.05 -83.36 0c-25.47,0 -38.89,-13.17 -40.02,-27.42l-9.51 0c-3.61,10.84 -13.64,20.62 -24.1,24.1l0 18.79c-0.13,24.04 -25.14,45.21 -54.84,35.38 -7.16,1.43 -19.11,2.45 -25.92,-0.91 -27.46,8.6 -53.68,-8.49 -53.68,-34.91l0 -18.35c-14.09,-2.48 -22.41,-13.14 -23,-23.44l-20.79 0c-29.64,-0.91 -45.74,-26.25 -37.81,-52.63l0.22 -0.89c-5.79,-7.5 -5.23,-22.81 0.66,-30.52 -9.36,-27.6 9.84,-50.9 35.82,-51.96l22.12 0c2.78,-12.23 9.99,-20.32 22.55,-23l0.23 -22.11c1.36,-30.9 27.24,-43.8 55.91,-34.78 6.86,-4.35 20.06,-4.27 27.56,0.41 34.42,-13.77 52.97,13.32 52.97,32.83l0 22.11c11.5,4.61 18.88,10.92 21.88,23l20.57 -0c29.21,1.75 41.59,30.19 33.61,54.18 0,0.67 0.99,4.64 1.33,5.31l59.04 -58.6 -64.57 -0.23c-43.9,-0.66 -49.61,-72.65 -0.89,-80.49 42.24,0.01 84.47,0 126.71,0l42.68 0c18.09,0 37.23,12.57 41.13,30.74 1.67,13.46 -1.39,22.12 -10.18,33.83 -13.16,13.16 -26.13,26.51 -39.58,39.36l17.79 0c9.68,0 9.15,1.31 13.14,3.06 5.41,-1.59 23.22,-10.63 44.03,5.35 11.02,-11.94 28.24,-12.36 36.05,-9.51 40.69,-66.78 130.69,-59.93 166.06,-0.88 13.04,-1.55 24.55,1.55 34.06,10.17 29.87,-23.24 68.94,-2.95 70.76,29.86l0 0z"/>
  <path class="fil1" d="M142.47 124.41l71.02 -84.39 0 -36.34 -199.29 0 0 45.54 132.86 0 -66.43 78.96 0 37.18 26.74 0c44.29,0 63.5,17.13 63.5,43.45 0,27.16 -22.97,44.28 -61.83,44.28 -33.01,0 -64.76,-11.28 -85.65,-28.83l-23.4 42.19c27.16,21.31 68.52,33.84 109.88,33.84 58.22,0 93.71,-23.42 108.18,-55.61 -19.42,-25.94 -30.92,-58.16 -30.92,-93.06 0,-4.24 0.18,-8.43 0.51,-12.58 -12.17,-7.28 -27.23,-12.33 -45.18,-14.65z"/>
  <path class="fil2" d="M342.59 46.7c57.95,0 104.94,46.98 104.94,104.94 0,57.96 -46.98,104.94 -104.94,104.94 -57.96,0 -104.94,-46.98 -104.94,-104.94 0,-57.95 46.98,-104.94 104.94,-104.94zm0 -44.95c82.78,0 149.88,67.1 149.88,149.88 0,82.78 -67.1,149.89 -149.88,149.89 -82.78,0 -149.88,-67.1 -149.88,-149.89 0,-82.78 67.1,-149.88 149.88,-149.88z"/>
  <path class="fil3" d="M268.77 76.52l-31.43 -32.32c-26.48,26.19 -42.45,61.33 -44.84,98.66 -0.21,3.26 -0.32,6.52 -0.32,9.78l45.53 0 -0.01 -1c0,-29.45 11.9,-56.06 31.07,-75.11z"/>
  <path class="fil4" d="M343.33 46.73l0.24 -45.98c-37.1,-0.19 -72.95,13.43 -100.71,38.25 -2.42,2.17 -4.77,4.41 -7.05,6.73l31.89 31.87c18.64,-19.09 44.44,-30.9 72.95,-30.9l2.68 0.03z"/>
  <path class="fil5" d="M414.35 78.39l33.24 -34.19c26.48,26.19 42.45,61.33 44.84,98.66 0.21,3.26 0.32,6.52 0.32,9.78l-49.16 0 0.01 -1c0,-28.5 -11.16,-54.34 -29.25,-73.25z"/>
  <path class="fil6" d="M342.77 46.73l0.27 -45.97c36.52,0.21 71.71,13.81 99.03,38.25 2.42,2.17 4.77,4.41 7.05,6.73l-33.75 33.73c-18.31,-19.68 -44.02,-32.15 -72.6,-32.74z"/>
  <path class="fil7" d="M313.12 176.1l0 -34.39 -13.92 0 0 11.46c0,2.59 -0.13,5.28 -0.4,8.08 -0.27,2.79 -0.88,5.34 -1.82,7.62 -0.95,2.29 -2.3,4.18 -4.05,5.65 -1.75,1.48 -4.12,2.23 -7.09,2.23 -0.81,0 -1.7,-0.07 -2.67,-0.2 -0.97,-0.13 -1.75,-0.28 -2.35,-0.45l0 -7.36c0.32,0.11 0.84,0.24 1.54,0.4 0.71,0.16 1.43,0.24 2.19,0.24 1.24,0 2.23,-0.38 2.96,-1.13 0.73,-0.76 1.29,-1.94 1.7,-3.56 0.4,-1.62 0.66,-3.72 0.77,-6.32 0.11,-2.59 0.16,-5.72 0.16,-9.39l0 -14.4 31.97 0 0 41.52 -8.98 0z"/>
  <path id="1" class="fil7" d="M339.18 157.57c0.06,1.94 0.46,3.69 1.22,5.26 0.75,1.56 1.76,2.89 3.06,3.96 1.29,1.08 2.77,1.92 4.44,2.51 1.67,0.59 3.44,0.89 5.33,0.89 1.13,0 2.33,-0.11 3.63,-0.32 1.29,-0.21 2.55,-0.5 3.75,-0.85 1.22,-0.35 2.35,-0.74 3.4,-1.17 1.04,-0.43 1.89,-0.86 2.54,-1.29l0 7.85c-1.73,0.7 -3.78,1.32 -6.15,1.86 -2.37,0.54 -5.07,0.81 -8.09,0.81 -3.56,0 -6.74,-0.52 -9.55,-1.58 -2.8,-1.05 -5.18,-2.55 -7.12,-4.49 -1.94,-1.94 -3.42,-4.27 -4.41,-7 -1,-2.73 -1.5,-5.74 -1.5,-9.03 0,-3.13 0.52,-6 1.54,-8.62 1.03,-2.61 2.44,-4.87 4.25,-6.76 1.81,-1.89 3.95,-3.36 6.44,-4.41 2.48,-1.05 5.21,-1.58 8.17,-1.58 3.35,0 6.23,0.56 8.66,1.66 2.43,1.1 4.44,2.62 6.03,4.53 1.59,1.91 2.77,4.17 3.52,6.76 0.75,2.59 1.13,5.37 1.13,8.33l0 2.67 -30.27 0zm21.36 -6.07c0,-1.51 -0.23,-2.94 -0.69,-4.29 -0.46,-1.35 -1.12,-2.54 -2.01,-3.56 -0.89,-1.03 -1.98,-1.82 -3.26,-2.39 -1.3,-0.57 -2.75,-0.85 -4.36,-0.85 -1.73,0 -3.25,0.32 -4.6,0.97 -1.33,0.65 -2.47,1.49 -3.38,2.55 -0.92,1.05 -1.63,2.24 -2.17,3.56 -0.54,1.32 -0.86,2.65 -0.97,4l21.45 0z"/>
  <polygon id="2" class="fil7" points="393.73,141.71 393.73,176.1 384.75,176.1 384.75,141.79 371.07,141.79 371.07,134.58 407.33,134.58 407.33,141.71 "/>
 </g>
</svg>
