<?xml version="1.0" encoding="utf-8"?>
<!-- Generator: Adobe Illustrator 25.0.1, SVG Export Plug-In . SVG Version: 6.00 Build 0)  -->
<svg version="1.1" id="Layer_1" xmlns="http://www.w3.org/2000/svg" xmlns:xlink="http://www.w3.org/1999/xlink" x="0px" y="0px"
	 viewBox="0 0 558.5 555.6" style="enable-background:new 0 0 558.5 555.6;" xml:space="preserve">
<style type="text/css">
	.st0{fill-rule:evenodd;clip-rule:evenodd;fill:#4E4D4D;stroke:#343434;stroke-width:2.82;stroke-miterlimit:4.24;}
	.st1{fill-rule:evenodd;clip-rule:evenodd;fill:#343434;}
	.st2{fill-rule:evenodd;clip-rule:evenodd;fill:#4E4D4D;}
	.st3{fill-rule:evenodd;clip-rule:evenodd;fill:#CDCCCC;}
	.st4{fill-rule:evenodd;clip-rule:evenodd;fill:#B4B4B4;}
	.st5{fill-rule:evenodd;clip-rule:evenodd;fill:#FFFFFF;stroke:#FFFFFF;stroke-width:1.88;stroke-miterlimit:4.24;}
	.st6{fill-rule:evenodd;clip-rule:evenodd;fill:#808181;}
</style>
<g id="g17572">
	<path id="path17536" class="st0" d="M424.5,6.1c-14.8,0.9-27.6,10.8-36.9,22.2l-35.7,39.3c-9.9-10.3-23.7-17.2-37.8-16.1
		c-17.3,0.7-34.5,11.8-40.6,29.1c-6.9,18.7-0.1,41.6,15.3,53.4c0.7,0.8,3,1.5,1.2,2.6c-40.2,45.3-81.4,89.8-120.9,135.9
		c-3.2,4.6-5.2,10.1-5.7,15.8c-9.8,1.5-16.8,9.7-22.9,17c-23.2,26.6-47.8,52-69.8,79.8c-7.2,12.1-7.2,29.5,2.3,40.3
		c7.2,8.7,16.4,15,24.5,22.7c-27,30.4-53.7,61.1-80.5,91.6L5.4,552.9c32.3-4.7,64.6-9.3,96.8-14.1l63.7-26.1
		c10.4,11,26.7,17,41,11.8c11.1-3.6,19.2-13,26.4-22c19.8-22.5,40.9-44,59.4-67.8c3.3-6.2,4.9-13.3,4.5-20.5
		c12.9-0.6,24.2-9.2,31.7-19.7l109.6-122.2c11.9,12,30.6,16.4,45.9,9.6c17.1-6.7,30.7-24.1,31.1-43.6c0.1-13.2-6.5-25.8-15.8-34.4
		c16.3-19.2,34.9-36.3,48.9-57.4c7.2-13.6,6.2-32-3.7-44c-9.8-13.6-22.9-23.9-34.3-35.8c-20.3-19.3-40.8-38.5-62.8-55.5
		C440.6,7.3,432.6,5.6,424.5,6.1L424.5,6.1z M127.4,484.3c-11.7,4.7-23.1,10.2-35.1,14c7.6-8.4,15.3-16.9,22.9-25.4L127.4,484.3z"/>
	<path id="path17538" class="st1" d="M427.6,151.9l51.3,48l46.3-48c32.1-30.9-19.4-55.1-32.8-75.4L427.6,151.9z"/>
	<path id="path17540" class="st1" d="M385,198.9l69.5,64.1c11.7,10.9,27.8,5.1,36.7-4.8c9.1-10.1,10.2-24.5-1.6-35.5l-69-63.6
		L385,198.9z"/>
	<path id="path17542" class="st1" d="M243.1,356.7l39.4,36.1c8,7.4,19.9,7.6,27.2-0.5L430,254.7l-54-50.3L243.1,356.7z"/>
	<path id="path17544" class="st1" d="M143.4,467.8l40,37c7.9,7.5,20,7.1,27.4-0.9l64.7-72.1c7.3-8.1,6.1-20.2-1.3-28.3l-39.5-37.4
		L143.4,467.8z"/>
	<path id="path17546" class="st2" d="M385,199l35.6-39.7l-87.4-81.6c-10.9-10.1-28-9.7-38.1,0.3c-10.1,10-10.4,27.5,1.5,38.6
		L385,199z"/>
	<path id="path17548" class="st3" d="M318,87.1c-7.1,1.7-11.6,8.3-16.2,13.5c-1.8,3.1-0.3,8.5,3.7,8.3c4.7,0.3,7.4-4.5,11.3-6.4
		c5-1.8,10.2,1.4,13.4,5.4c3.8,3.7,7.8,9,13.6,8.5c3.4-0.8,4.6-5.7,2.3-8.3c-3.3-5.5-9.1-8.6-13-13.5C328.9,90.6,324,86.4,318,87.1
		L318,87.1z"/>
	<path id="path17550" class="st2" d="M308.8,142.3L188.4,276.9c-7.3,8.1-6.8,22.3,1.2,29.7l55.4,49.2l133.2-146.9L308.8,142.3z"/>
	<path id="path17552" class="st2" d="M428.3,152.8l-65.8-70.1l39.9-44.8c18.2-20.5,30.6-13.8,44.8-0.9l45.3,42.5L428.3,152.8z"/>
	<path id="path17554" class="st3" d="M424.5,45.5c-7.8,0.7-12.2,8.1-17.2,13.3c-5.5,6.3-12.5,11.5-16.1,19.3
		c-0.8,3.7,3.1,7.2,6.5,5.7c5.6-1.7,8.4-7.5,12.5-11.4c4.1-4.6,7.9-10.1,13.8-12.2c6.3-0.8,10.8,4.7,15.2,8.5
		c4.5,4,9.1,9.2,15.3,9.5c3.3-0.9,3.8-5.6,1.9-8.1c-3.1-5-8.5-7.7-12.2-12.1c-5.5-5.3-11.3-11.7-19.2-12.5
		C425.5,45.5,424.3,45.4,424.5,45.5z"/>
	<path id="path17556" class="st2" d="M181.6,316c-8.2-7.5-20.4-6.9-27.9,1.3l-64.9,72.8c-7.1,7.9-6.7,20.4,0.9,27.8
		c0.1,0.1,0.3,0.3,0.4,0.4l55.3,50.9l90-101.9L181.6,316z"/>
	<polygon id="polygon17558" class="st4" points="163.3,497.2 114.7,452.1 41,534.2 97.1,524.4 	"/>
	<path id="path17560" class="st5" d="M423.6,23.2c-1,0.1-2,0.2-3,0.4l0,0c-6,1.3-12.3,5.3-19.3,13.2l0,0l-46.5,50.8
		c41.1,38.2,87.2,80.9,124.9,115.9l46.5-50.5c5-5.6,8.2-10.4,9.9-14.9c1.6-3.9,2-8.3,0.9-12.5c-0.5-1.8-3.5-5.7-7.9-10.6
		c-25.8-28.4-52-52-81-79.2l0,0c-7.1-6.5-14-11.6-21.7-12.4C425.5,23.2,424.6,23.2,423.6,23.2L423.6,23.2z M423.8,26.4
		c0.8,0,1.7,0,2.5,0.1c6.6,0.7,13,5.3,20,11.6c27.5,26,55.8,51.4,81.1,79.4c3.8,4.3,6.5,7.6,6.8,8.9c0.9,3.5,0.6,7.2-0.8,10.4
		c-1.5,3.9-4.5,8.5-9.3,13.9l-44.5,48.4c-40-37.1-84.5-78.3-120.4-111.7l44.4-48.5c6.8-7.4,12.4-11.2,17.6-12.2
		C422,26.5,422.9,26.4,423.8,26.4L423.8,26.4z"/>
	<path id="path17562" class="st5" d="M312.4,68.7c-6.9,0.3-13.4,3.2-18.4,8.1l0,0c-10.7,10.6-10.9,29.3,1.6,40.9
		c52.7,48.9,105.4,97.8,158,146.6c5.6,5.3,13.3,7.4,20.7,5.8c6.9-1.5,13.2-5.2,18.1-10.6l0,0c4.8-5.3,7.5-11.8,7.4-18.5
		c0-6.7-3-13.5-9.2-19.3l0,0c-52.2-48.5-104.3-96.9-156.5-145.2c-5.6-5.1-12.9-7.9-20.4-7.8l0,0L312.4,68.7L312.4,68.7z M312.6,71.9
		c0.4,0,0.8,0,1.2-0.1c6.7-0.1,13.2,2.4,18.3,7c52.2,48.4,104.4,96.8,156.5,145.2c5.7,5.3,8.1,11.1,8.1,16.9s-2.3,11.5-6.6,16.3
		c-4.4,4.9-10.1,8.3-16.4,9.7c-6.4,1.5-13.2-0.4-18.1-5c-52.6-48.9-105.3-97.8-158-146.6c-11.3-10.5-10.9-26.8-1.5-36.2
		C300.6,74.7,306.4,72.1,312.6,71.9L312.6,71.9z"/>
	<path id="path17564" class="st5" d="M308.6,138.6l-1,1.1l-123.2,137c-7.9,8.8-7.4,23.9,1.3,32l92.9,86.2c8.5,7.9,21.4,8.1,29.3-0.7
		l0,0l125.7-139.7L308.6,138.6z M308.9,143l120.4,111.7L305.7,392.1l0,0c-6.7,7.5-17.6,7.3-25.1,0.4l0,0l-92.9-86.2
		c-7.3-6.8-7.7-20-1.1-27.5L308.9,143z"/>
	<path id="path17566" class="st5" d="M167.9,306.9c-5.6,0.2-10.8,2.7-14.7,7L87.8,389l0,0c-7.7,8.6-7.2,22,1,30.1
		c0.1,0.1,0.3,0.3,0.4,0.4l93.1,86.4c8.5,8.1,21.6,7.6,29.5-1l0,0l65.2-74.4c7.9-8.8,6.6-21.9-1.3-30.5
		c-30.5-29.7-61.5-58.4-92.6-87.6l0,0C179,308.7,173.5,306.7,167.9,306.9L167.9,306.9z M168.1,310.1L168.1,310.1
		c4.8-0.2,9.5,1.5,13.1,4.8l92.4,87.4c6.9,7.5,8,18.6,1.2,26.1l-65.2,74.4l0,0c-6.8,7.4-18,7.8-25.3,0.8
		c-31.3-28.7-61.9-57.5-93.1-86.4l0,0c-7.2-6.6-7.9-18-1.6-25.5c0.1-0.2,0.3-0.3,0.4-0.5l0,0l65.4-75.1
		C158.8,312.4,163.3,310.3,168.1,310.1L168.1,310.1z"/>
	<path id="path17568" class="st6" d="M160.4,496.6l-22.2-20.8l-41.5,47L160.4,496.6z"/>
	<path id="path17570" class="st5" d="M114.6,449.9l-77.8,86.6l60.7-10.6l0.2-0.1l68.5-28.1L114.6,449.9z M114.9,454.3l45.6,42.3
		l-63.7,26.2l-51.5,9L114.9,454.3z"/>
</g>
</svg>
